SplineFontDB: 3.0
FontName: GentiumBookBasic
FullName: Gentium Book Basic
FamilyName: Gentium Book Basic
Weight: Book
Copyright: Copyright (c) SIL International, 2003-2008.
Version: 1.100
ItalicAngle: 0
UnderlinePosition: -200
UnderlineWidth: 100
Ascent: 1638
Descent: 410
sfntRevision: 0x00011999
LayerCount: 2
Layer: 0 1 "Back"  1
Layer: 1 1 "Fore"  0
XUID: [1021 288 713564382 6137748]
FSType: 0
OS2Version: 3
OS2_WeightWidthSlopeOnly: 0
OS2_UseTypoMetrics: 1
CreationTime: 1207161125
ModificationTime: 1309535409
PfmFamily: 17
TTFWeight: 400
TTFWidth: 5
LineGap: 0
VLineGap: 0
Panose: 2 0 5 3 6 0 0 2 0 4
OS2TypoAscent: 2219
OS2TypoAOffset: 0
OS2TypoDescent: -735
OS2TypoDOffset: 0
OS2TypoLinegap: 0
OS2WinAscent: 2219
OS2WinAOffset: 0
OS2WinDescent: 735
OS2WinDOffset: 0
HheadAscent: 2219
HheadAOffset: 0
HheadDescent: -735
HheadDOffset: 0
OS2SubXSize: 856
OS2SubYSize: 856
OS2SubXOff: 0
OS2SubYOff: 1200
OS2SupXSize: 856
OS2SupYSize: 856
OS2SupXOff: 0
OS2SupYOff: 1200
OS2StrikeYSize: 100
OS2StrikeYPos: 500
OS2Vendor: 'SIL '
OS2CodePages: 20000013.00000000
OS2UnicodeRanges: a000007f.4000204a.00000000.00000000
Lookup: 5 0 0 "'ccmp' Glyph Composition/Decomposition lookup 0"  {"'ccmp' Glyph Composition/Decomposition lookup 0 subtable"  } ['ccmp' ('cyrl' <'dflt' > 'latn' <'IPA ' 'VIT ' 'dflt' > ) ]
Lookup: 1 0 0 "Single Substitution lookup 1"  {"Single Substitution lookup 1 subtable"  } []
Lookup: 2 0 0 "Multiple Substitution lookup 2"  {"Multiple Substitution lookup 2 subtable"  } []
Lookup: 4 0 0 "'ccmp' Glyph Composition/Decomposition lookup 3"  {"'ccmp' Glyph Composition/Decomposition lookup 3 subtable"  } ['ccmp' ('cyrl' <'dflt' > 'latn' <'IPA ' 'VIT ' 'dflt' > ) ]
Lookup: 4 256 0 "'ccmp' Glyph Composition/Decomposition in Latin lookup 4"  {"'ccmp' Glyph Composition/Decomposition in Latin lookup 4 subtable"  } ['ccmp' ('latn' <'VIT ' > ) ]

StartChar: .notdef
Encoding: 65536 -1 0
Width: 1400
Flags: W
LayerCount: 2
Fore
SplineSet
150 50 m 1,0,-1
 1250 50 l 1,1,-1
 1250 1750 l 1,2,-1
 150 1750 l 1,3,-1
 150 50 l 1,0,-1
100 1800 m 1,4,-1
 1300 1800 l 1,5,-1
 1300 0 l 1,6,-1
 100 0 l 1,7,-1
 100 1800 l 1,4,-1
EndSplineSet
EndChar

StartChar: exclam
Encoding: 33 33 4
Width: 582
Flags: W
LayerCount: 2
Fore
SplineSet
419 126 m 0,0,1
 419 90 419 90 407 59.5 c 128,-1,2
 395 29 395 29 374.5 7 c 128,-1,3
 354 -15 354 -15 326 -27.5 c 128,-1,4
 298 -40 298 -40 266 -40 c 0,5,6
 210 -40 210 -40 180.5 -10 c 128,-1,7
 151 20 151 20 151 80 c 0,8,9
 151 116 151 116 163.5 146 c 128,-1,10
 176 176 176 176 197 198.5 c 128,-1,11
 218 221 218 221 246 233.5 c 128,-1,12
 274 246 274 246 305 246 c 0,13,14
 356 246 356 246 387.5 216 c 128,-1,15
 419 186 419 186 419 126 c 0,0,1
343 397 m 1,16,17
 324 383 324 383 304 374.5 c 128,-1,18
 284 366 284 366 259 358 c 1,19,-1
 230 379 l 1,20,-1
 173 1388 l 1,21,22
 193 1400 193 1400 217.5 1413.5 c 128,-1,23
 242 1427 242 1427 267 1439.5 c 128,-1,24
 292 1452 292 1452 315.5 1462.5 c 128,-1,25
 339 1473 339 1473 357 1480 c 1,26,-1
 402 1453 l 1,27,-1
 343 397 l 1,16,17
EndSplineSet
EndChar

StartChar: quotedbl
Encoding: 34 34 5
Width: 900
Flags: W
LayerCount: 2
Fore
SplineSet
322 834 m 1,0,1
 314 830 314 830 301 826 c 128,-1,2
 288 822 288 822 273 819 c 128,-1,3
 258 816 258 816 243 814.5 c 128,-1,4
 228 813 228 813 216 813 c 1,5,-1
 153 1416 l 1,6,7
 164 1422 164 1422 189 1432 c 128,-1,8
 214 1442 214 1442 241.5 1452 c 128,-1,9
 269 1462 269 1462 293.5 1470 c 128,-1,10
 318 1478 318 1478 329 1480 c 1,11,-1
 375 1457 l 1,12,-1
 322 834 l 1,0,1
695 834 m 1,13,14
 687 830 687 830 674 826 c 128,-1,15
 661 822 661 822 646 819 c 128,-1,16
 631 816 631 816 616 814.5 c 128,-1,17
 601 813 601 813 589 813 c 1,18,-1
 526 1416 l 1,19,20
 537 1422 537 1422 562 1432 c 128,-1,21
 587 1442 587 1442 614.5 1452 c 128,-1,22
 642 1462 642 1462 667 1470 c 128,-1,23
 692 1478 692 1478 703 1480 c 1,24,-1
 748 1457 l 1,25,-1
 695 834 l 1,13,14
EndSplineSet
EndChar

StartChar: numbersign
Encoding: 35 35 6
Width: 986
Flags: W
LayerCount: 2
Fore
SplineSet
825 966 m 1,0,-1
 977 966 l 1,1,-1
 1002 941 l 1,2,3
 1000 930 1000 930 995.5 916 c 128,-1,4
 991 902 991 902 985.5 888 c 128,-1,5
 980 874 980 874 975 861.5 c 128,-1,6
 970 849 970 849 966 841 c 1,7,-1
 789 841 l 1,8,-1
 719 595 l 1,9,-1
 871 595 l 1,10,-1
 893 568 l 1,11,12
 891 558 891 558 887 545 c 128,-1,13
 883 532 883 532 878 518 c 128,-1,14
 873 504 873 504 868.5 491.5 c 128,-1,15
 864 479 864 479 860 470 c 1,16,-1
 683 470 l 1,17,-1
 598 170 l 1,18,19
 580 156 580 156 551 146 c 128,-1,20
 522 136 522 136 496 127 c 1,21,-1
 470 147 l 1,22,-1
 562 470 l 1,23,-1
 378 470 l 1,24,-1
 292 170 l 1,25,26
 274 156 274 156 246 146 c 128,-1,27
 218 136 218 136 192 127 c 1,28,-1
 166 147 l 1,29,-1
 258 470 l 1,30,-1
 104 470 l 1,31,-1
 82 495 l 1,32,33
 84 505 84 505 88 518 c 128,-1,34
 92 531 92 531 97 544 c 2,35,-1
 107 571 l 2,36,37
 112 585 112 585 117 595 c 1,38,-1
 293 595 l 1,39,-1
 364 841 l 1,40,-1
 213 841 l 1,41,-1
 188 865 l 1,42,43
 193 887 193 887 204.5 916.5 c 128,-1,44
 216 946 216 946 224 966 c 1,45,-1
 399 966 l 1,46,-1
 481 1251 l 1,47,48
 503 1267 503 1267 530 1275 c 128,-1,49
 557 1283 557 1283 579 1292 c 1,50,-1
 608 1270 l 1,51,-1
 520 966 l 1,52,-1
 703 966 l 1,53,-1
 785 1251 l 1,54,55
 807 1267 807 1267 834.5 1275 c 128,-1,56
 862 1283 862 1283 885 1292 c 1,57,-1
 912 1270 l 1,58,-1
 825 966 l 1,0,-1
414 595 m 1,59,-1
 597 595 l 1,60,-1
 668 841 l 1,61,-1
 484 841 l 1,62,-1
 414 595 l 1,59,-1
EndSplineSet
EndChar

StartChar: dollar
Encoding: 36 36 7
Width: 986
Flags: W
LayerCount: 2
Fore
SplineSet
245 956 m 0,0,1
 245 920 245 920 260 892.5 c 128,-1,2
 275 865 275 865 301.5 843 c 128,-1,3
 328 821 328 821 363.5 803 c 128,-1,4
 399 785 399 785 440 769 c 1,5,-1
 440 1108 l 1,6,7
 387 1105 387 1105 350 1091 c 128,-1,8
 313 1077 313 1077 290 1056 c 128,-1,9
 267 1035 267 1035 256 1009 c 128,-1,10
 245 983 245 983 245 956 c 0,0,1
732 322 m 0,11,12
 732 366 732 366 717 400 c 128,-1,13
 702 434 702 434 676 461 c 128,-1,14
 650 488 650 488 615 508.5 c 128,-1,15
 580 529 580 529 540 546 c 1,16,-1
 540 122 l 1,17,18
 577 128 577 128 612 144 c 128,-1,19
 647 160 647 160 673.5 185.5 c 128,-1,20
 700 211 700 211 716 245.5 c 128,-1,21
 732 280 732 280 732 322 c 0,11,12
540 -138 m 1,22,23
 522 -154 522 -154 508 -161 c 128,-1,24
 494 -168 494 -168 469 -174 c 1,25,-1
 440 -150 l 1,26,-1
 440 -10 l 1,27,28
 348 -8 348 -8 266.5 18.5 c 128,-1,29
 185 45 185 45 97 101 c 0,30,31
 90 106 90 106 87 137 c 128,-1,32
 84 168 84 168 84.5 209 c 128,-1,33
 85 250 85 250 88.5 292.5 c 128,-1,34
 92 335 92 335 100 363 c 1,35,-1
 153 359 l 1,36,37
 201 256 201 256 273.5 197 c 128,-1,38
 346 138 346 138 440 124 c 1,39,-1
 440 585 l 1,40,41
 377 608 377 608 314.5 633.5 c 128,-1,42
 252 659 252 659 203 695 c 128,-1,43
 154 731 154 731 123.5 782.5 c 128,-1,44
 93 834 93 834 93 909 c 0,45,46
 93 952 93 952 110 1000.5 c 128,-1,47
 127 1049 127 1049 167.5 1092 c 128,-1,48
 208 1135 208 1135 274.5 1167.5 c 128,-1,49
 341 1200 341 1200 440 1210 c 1,50,-1
 440 1351 l 1,51,52
 454 1359 454 1359 461.5 1364 c 128,-1,53
 469 1369 469 1369 475 1372 c 128,-1,54
 481 1375 481 1375 488.5 1377.5 c 128,-1,55
 496 1380 496 1380 511 1384 c 1,56,-1
 540 1360 l 1,57,-1
 540 1214 l 1,58,59
 588 1212 588 1212 634.5 1204.5 c 128,-1,60
 681 1197 681 1197 721 1184 c 128,-1,61
 761 1171 761 1171 793 1154.5 c 128,-1,62
 825 1138 825 1138 844 1119 c 0,63,64
 850 1112 850 1112 842.5 1089.5 c 128,-1,65
 835 1067 835 1067 821 1040.5 c 128,-1,66
 807 1014 807 1014 790 989.5 c 128,-1,67
 773 965 773 965 760 953 c 1,68,-1
 711 961 l 1,69,70
 635 1068 635 1068 540 1097 c 1,71,-1
 540 731 l 1,72,73
 604 707 604 707 667 679 c 128,-1,74
 730 651 730 651 780 610 c 128,-1,75
 830 569 830 569 861 512.5 c 128,-1,76
 892 456 892 456 892 375 c 0,77,78
 892 315 892 315 870.5 253.5 c 128,-1,79
 849 192 849 192 805.5 139.5 c 128,-1,80
 762 87 762 87 696 48.5 c 128,-1,81
 630 10 630 10 540 -3 c 1,82,-1
 540 -138 l 1,22,23
EndSplineSet
EndChar

StartChar: percent
Encoding: 37 37 8
Width: 1439
Flags: W
LayerCount: 2
Fore
SplineSet
1207 289 m 0,0,1
 1207 361 1207 361 1195.5 413.5 c 128,-1,2
 1184 466 1184 466 1165 500.5 c 128,-1,3
 1146 535 1146 535 1120 552 c 128,-1,4
 1094 569 1094 569 1066 569 c 0,5,6
 1043 569 1043 569 1022 555 c 128,-1,7
 1001 541 1001 541 985.5 511.5 c 128,-1,8
 970 482 970 482 960.5 437.5 c 128,-1,9
 951 393 951 393 951 332 c 0,10,11
 951 186 951 186 989 117.5 c 128,-1,12
 1027 49 1027 49 1090 49 c 0,13,14
 1141 49 1141 49 1174 108 c 128,-1,15
 1207 167 1207 167 1207 289 c 0,0,1
1371 309 m 0,16,17
 1371 240 1371 240 1347 178.5 c 128,-1,18
 1323 117 1323 117 1281.5 70.5 c 128,-1,19
 1240 24 1240 24 1184.5 -3 c 128,-1,20
 1129 -30 1129 -30 1066 -30 c 256,21,22
 1003 -30 1003 -30 951.5 -3 c 128,-1,23
 900 24 900 24 863 70.5 c 128,-1,24
 826 117 826 117 805.5 178.5 c 128,-1,25
 785 240 785 240 785 309 c 0,26,27
 785 379 785 379 809 440.5 c 128,-1,28
 833 502 833 502 874 548 c 128,-1,29
 915 594 915 594 971 621 c 128,-1,30
 1027 648 1027 648 1090 648 c 0,31,32
 1154 648 1154 648 1206 621.5 c 128,-1,33
 1258 595 1258 595 1295 549 c 128,-1,34
 1332 503 1332 503 1351.5 441 c 128,-1,35
 1371 379 1371 379 1371 309 c 0,16,17
363 14 m 1,36,37
 354 7 354 7 335.5 0.5 c 128,-1,38
 317 -6 317 -6 296.5 -12.5 c 128,-1,39
 276 -19 276 -19 256.5 -24 c 128,-1,40
 237 -29 237 -29 224 -33 c 1,41,-1
 200 1 l 1,42,-1
 1075 1192 l 1,43,44
 1088 1199 1088 1199 1105.5 1205.5 c 128,-1,45
 1123 1212 1123 1212 1142 1218 c 128,-1,46
 1161 1224 1161 1224 1179.5 1229 c 128,-1,47
 1198 1234 1198 1234 1212 1237 c 1,48,-1
 1240 1205 l 1,49,-1
 363 14 l 1,36,37
491 877 m 0,50,51
 491 949 491 949 479.5 1001.5 c 128,-1,52
 468 1054 468 1054 448.5 1088.5 c 128,-1,53
 429 1123 429 1123 403.5 1139.5 c 128,-1,54
 378 1156 378 1156 350 1156 c 0,55,56
 327 1156 327 1156 306 1142 c 128,-1,57
 285 1128 285 1128 269 1099 c 128,-1,58
 253 1070 253 1070 243.5 1025.5 c 128,-1,59
 234 981 234 981 234 920 c 0,60,61
 234 774 234 774 272 705.5 c 128,-1,62
 310 637 310 637 373 637 c 0,63,64
 424 637 424 637 457.5 696 c 128,-1,65
 491 755 491 755 491 877 c 0,50,51
656 897 m 0,66,67
 656 828 656 828 632 766.5 c 128,-1,68
 608 705 608 705 566.5 658.5 c 128,-1,69
 525 612 525 612 469 585 c 128,-1,70
 413 558 413 558 350 558 c 256,71,72
 287 558 287 558 235 585 c 128,-1,73
 183 612 183 612 146.5 658.5 c 128,-1,74
 110 705 110 705 89.5 766.5 c 128,-1,75
 69 828 69 828 69 897 c 256,76,77
 69 966 69 966 92.5 1027.5 c 128,-1,78
 116 1089 116 1089 157.5 1135 c 128,-1,79
 199 1181 199 1181 254.5 1208 c 128,-1,80
 310 1235 310 1235 373 1235 c 0,81,82
 437 1235 437 1235 489.5 1208.5 c 128,-1,83
 542 1182 542 1182 579 1136 c 128,-1,84
 616 1090 616 1090 636 1028.5 c 128,-1,85
 656 967 656 967 656 897 c 0,66,67
EndSplineSet
EndChar

StartChar: ampersand
Encoding: 38 38 9
Width: 1384
Flags: W
LayerCount: 2
Fore
SplineSet
462 1130 m 0,0,1
 462 1073 462 1073 478 1012.5 c 128,-1,2
 494 952 494 952 523 888 c 1,3,4
 584 923 584 923 623 959.5 c 128,-1,5
 662 996 662 996 684.5 1032 c 128,-1,6
 707 1068 707 1068 715.5 1103 c 128,-1,7
 724 1138 724 1138 724 1171 c 0,8,9
 724 1206 724 1206 715 1236 c 128,-1,10
 706 1266 706 1266 689.5 1288.5 c 128,-1,11
 673 1311 673 1311 648.5 1323.5 c 128,-1,12
 624 1336 624 1336 593 1336 c 0,13,14
 560 1336 560 1336 535.5 1318.5 c 128,-1,15
 511 1301 511 1301 494.5 1272.5 c 128,-1,16
 478 1244 478 1244 470 1206.5 c 128,-1,17
 462 1169 462 1169 462 1130 c 0,0,1
543 94 m 0,18,19
 618 94 618 94 683.5 117.5 c 128,-1,20
 749 141 749 141 803 180 c 1,21,22
 753 230 753 230 701.5 288 c 128,-1,23
 650 346 650 346 600.5 410 c 128,-1,24
 551 474 551 474 505.5 542.5 c 128,-1,25
 460 611 460 611 422 681 c 1,26,27
 379 641 379 641 350 603 c 128,-1,28
 321 565 321 565 303 527.5 c 128,-1,29
 285 490 285 490 277.5 451.5 c 128,-1,30
 270 413 270 413 270 373 c 0,31,32
 270 303 270 303 293.5 250.5 c 128,-1,33
 317 198 317 198 355 163.5 c 128,-1,34
 393 129 393 129 442.5 111.5 c 128,-1,35
 492 94 492 94 543 94 c 0,18,19
1369 748 m 1,36,37
 1344 717 1344 717 1317 690.5 c 128,-1,38
 1290 664 1290 664 1265 647 c 1,39,40
 1247 656 1247 656 1224.5 663.5 c 128,-1,41
 1202 671 1202 671 1179.5 676.5 c 128,-1,42
 1157 682 1157 682 1136 685.5 c 128,-1,43
 1115 689 1115 689 1098 690 c 1,44,45
 1108 673 1108 673 1114.5 658 c 128,-1,46
 1121 643 1121 643 1125 626 c 128,-1,47
 1129 609 1129 609 1130 589 c 128,-1,48
 1131 569 1131 569 1131 543 c 0,49,50
 1131 474 1131 474 1100 396 c 128,-1,51
 1069 318 1069 318 1013 244 c 1,52,53
 1042 216 1042 216 1070 191.5 c 128,-1,54
 1098 167 1098 167 1124 147 c 1,55,56
 1167 111 1167 111 1214.5 100.5 c 128,-1,57
 1262 90 1262 90 1318 103 c 1,58,-1
 1329 50 l 1,59,60
 1286 31 1286 31 1245.5 16 c 128,-1,61
 1205 1 1205 1 1171.5 -9 c 128,-1,62
 1138 -19 1138 -19 1114 -24.5 c 128,-1,63
 1090 -30 1090 -30 1079 -30 c 0,64,65
 1056 -30 1056 -30 1002.5 6.5 c 128,-1,66
 949 43 949 43 879 107 c 1,67,68
 800 45 800 45 704.5 7.5 c 128,-1,69
 609 -30 609 -30 503 -30 c 0,70,71
 406 -30 406 -30 327 -5.5 c 128,-1,72
 248 19 248 19 192 67 c 128,-1,73
 136 115 136 115 105.5 186.5 c 128,-1,74
 75 258 75 258 75 352 c 0,75,76
 75 462 75 462 149 574 c 128,-1,77
 223 686 223 686 368 791 c 1,78,79
 337 864 337 864 319.5 934.5 c 128,-1,80
 302 1005 302 1005 302 1073 c 0,81,82
 302 1154 302 1154 330.5 1223 c 128,-1,83
 359 1292 359 1292 406.5 1342.5 c 128,-1,84
 454 1393 454 1393 517 1421.5 c 128,-1,85
 580 1450 580 1450 649 1450 c 0,86,87
 716 1450 716 1450 763.5 1429.5 c 128,-1,88
 811 1409 811 1409 840 1375 c 128,-1,89
 869 1341 869 1341 882.5 1296.5 c 128,-1,90
 896 1252 896 1252 896 1204 c 0,91,92
 896 1152 896 1152 876 1101 c 128,-1,93
 856 1050 856 1050 820 1002.5 c 128,-1,94
 784 955 784 955 734.5 912 c 128,-1,95
 685 869 685 869 626 832 c 1,96,-1
 569 795 l 1,97,98
 604 732 604 732 646.5 669.5 c 128,-1,99
 689 607 689 607 736.5 547 c 128,-1,100
 784 487 784 487 833.5 430 c 128,-1,101
 883 373 883 373 933 322 c 1,102,103
 961 367 961 367 975.5 413.5 c 128,-1,104
 990 460 990 460 990 502 c 256,105,106
 990 544 990 544 976.5 580 c 128,-1,107
 963 616 963 616 940.5 642 c 128,-1,108
 918 668 918 668 889.5 683 c 128,-1,109
 861 698 861 698 832 698 c 1,110,-1
 808 728 l 1,111,112
 813 734 813 734 822.5 743 c 128,-1,113
 832 752 832 752 843 760.5 c 128,-1,114
 854 769 854 769 865.5 776 c 128,-1,115
 877 783 877 783 887 787 c 1,116,-1
 1343 787 l 1,117,-1
 1369 748 l 1,36,37
EndSplineSet
EndChar

StartChar: quotesingle
Encoding: 39 39 10
Width: 527
Flags: W
LayerCount: 2
Fore
SplineSet
322 834 m 1,0,1
 314 830 314 830 301 826 c 128,-1,2
 288 822 288 822 273 819 c 128,-1,3
 258 816 258 816 243 814.5 c 128,-1,4
 228 813 228 813 216 813 c 1,5,-1
 153 1416 l 1,6,7
 164 1422 164 1422 189 1432 c 128,-1,8
 214 1442 214 1442 241.5 1452 c 128,-1,9
 269 1462 269 1462 293.5 1470 c 128,-1,10
 318 1478 318 1478 329 1480 c 1,11,-1
 375 1457 l 1,12,-1
 322 834 l 1,0,1
EndSplineSet
EndChar

StartChar: parenleft
Encoding: 40 40 11
Width: 659
Flags: W
LayerCount: 2
Fore
SplineSet
586 -315 m 1,0,1
 469 -258 469 -258 381 -164 c 128,-1,2
 293 -70 293 -70 234 52 c 128,-1,3
 175 174 175 174 145.5 319 c 128,-1,4
 116 464 116 464 116 623 c 0,5,6
 116 787 116 787 149.5 938.5 c 128,-1,7
 183 1090 183 1090 244.5 1217.5 c 128,-1,8
 306 1345 306 1345 392.5 1443.5 c 128,-1,9
 479 1542 479 1542 586 1600 c 1,10,-1
 625 1545 l 1,11,12
 562 1489 562 1489 505.5 1402.5 c 128,-1,13
 449 1316 449 1316 407 1202.5 c 128,-1,14
 365 1089 365 1089 340.5 950 c 128,-1,15
 316 811 316 811 316 651 c 0,16,17
 316 505 316 505 336.5 369 c 128,-1,18
 357 233 357 233 396 114.5 c 128,-1,19
 435 -4 435 -4 492.5 -99.5 c 128,-1,20
 550 -195 550 -195 625 -260 c 1,21,-1
 586 -315 l 1,0,1
EndSplineSet
EndChar

StartChar: parenright
Encoding: 41 41 12
Width: 659
Flags: W
LayerCount: 2
Fore
SplineSet
545 663 m 0,0,1
 545 499 545 499 511.5 347.5 c 128,-1,2
 478 196 478 196 416.5 68 c 128,-1,3
 355 -60 355 -60 268 -158.5 c 128,-1,4
 181 -257 181 -257 75 -315 c 1,5,-1
 36 -260 l 1,6,7
 99 -204 99 -204 155 -117 c 128,-1,8
 211 -30 211 -30 253.5 83.5 c 128,-1,9
 296 197 296 197 320.5 335.5 c 128,-1,10
 345 474 345 474 345 635 c 0,11,12
 345 780 345 780 325 916.5 c 128,-1,13
 305 1053 305 1053 265.5 1171 c 128,-1,14
 226 1289 226 1289 168.5 1385 c 128,-1,15
 111 1481 111 1481 36 1545 c 1,16,-1
 75 1600 l 1,17,18
 192 1544 192 1544 280 1450 c 128,-1,19
 368 1356 368 1356 427 1234 c 128,-1,20
 486 1112 486 1112 515.5 967 c 128,-1,21
 545 822 545 822 545 663 c 0,0,1
EndSplineSet
EndChar

StartChar: asterisk
Encoding: 42 42 13
Width: 912
Flags: W
LayerCount: 2
Fore
SplineSet
493 1199 m 1,0,-1
 739 1391 l 1,1,2
 749 1384 749 1384 764.5 1374 c 128,-1,3
 780 1364 780 1364 795.5 1352.5 c 128,-1,4
 811 1341 811 1341 825 1330 c 128,-1,5
 839 1319 839 1319 847 1311 c 1,6,-1
 845 1265 l 1,7,-1
 531 1135 l 1,8,-1
 821 1017 l 1,9,10
 820 1005 820 1005 819 987 c 128,-1,11
 818 969 818 969 815.5 949.5 c 128,-1,12
 813 930 813 930 810.5 912.5 c 128,-1,13
 808 895 808 895 804 884 c 1,14,-1
 762 862 l 1,15,-1
 495 1069 l 1,16,-1
 537 761 l 1,17,18
 526 755 526 755 510 746.5 c 128,-1,19
 494 738 494 738 476.5 730.5 c 128,-1,20
 459 723 459 723 442.5 717 c 128,-1,21
 426 711 426 711 415 709 c 1,22,-1
 374 732 l 1,23,-1
 420 1069 l 1,24,-1
 174 877 l 1,25,26
 163 884 163 884 147.5 894.5 c 128,-1,27
 132 905 132 905 116.5 916 c 128,-1,28
 101 927 101 927 87.5 938 c 128,-1,29
 74 949 74 949 67 957 c 1,30,-1
 68 1004 l 1,31,-1
 383 1133 l 1,32,-1
 92 1251 l 1,33,34
 93 1263 93 1263 94 1281.5 c 128,-1,35
 95 1300 95 1300 97 1319 c 128,-1,36
 99 1338 99 1338 102 1355.5 c 128,-1,37
 105 1373 105 1373 108 1383 c 1,38,-1
 149 1405 l 1,39,-1
 418 1198 l 1,40,-1
 375 1508 l 1,41,42
 386 1514 386 1514 402.5 1522 c 128,-1,43
 419 1530 419 1530 437 1537.5 c 128,-1,44
 455 1545 455 1545 472 1551.5 c 128,-1,45
 489 1558 489 1558 500 1561 c 1,46,-1
 538 1535 l 1,47,-1
 493 1199 l 1,0,-1
EndSplineSet
EndChar

StartChar: plus
Encoding: 43 43 14
Width: 848
Flags: W
LayerCount: 2
Fore
SplineSet
487 232 m 1,0,1
 467 222 467 222 439 213 c 128,-1,2
 411 204 411 204 389 199 c 1,3,-1
 362 223 l 1,4,-1
 362 502 l 1,5,-1
 86 502 l 1,6,-1
 58 528 l 1,7,8
 63 549 63 549 74 576 c 128,-1,9
 85 603 85 603 94 623 c 1,10,-1
 362 623 l 1,11,-1
 362 895 l 1,12,13
 381 901 381 901 409.5 911 c 128,-1,14
 438 921 438 921 460 926 c 1,15,-1
 487 901 l 1,16,-1
 487 623 l 1,17,-1
 762 623 l 1,18,-1
 789 596 l 1,19,20
 786 586 786 586 781.5 573 c 128,-1,21
 777 560 777 560 772 547 c 128,-1,22
 767 534 767 534 762 522 c 128,-1,23
 757 510 757 510 753 502 c 1,24,-1
 487 502 l 1,25,-1
 487 232 l 1,0,1
EndSplineSet
EndChar

StartChar: comma
Encoding: 44 44 15
Width: 497
Flags: W
LayerCount: 2
Fore
SplineSet
420 70 m 0,0,1
 420 26 420 26 402 -27.5 c 128,-1,2
 384 -81 384 -81 351.5 -135 c 128,-1,3
 319 -189 319 -189 274 -240 c 128,-1,4
 229 -291 229 -291 174 -330 c 1,5,-1
 121 -290 l 1,6,7
 149 -258 149 -258 169.5 -226.5 c 128,-1,8
 190 -195 190 -195 203.5 -162 c 128,-1,9
 217 -129 217 -129 224 -92.5 c 128,-1,10
 231 -56 231 -56 231 -13 c 0,11,12
 231 32 231 32 199.5 61.5 c 128,-1,13
 168 91 168 91 104 87 c 1,14,-1
 88 144 l 1,15,16
 97 156 97 156 128.5 172.5 c 128,-1,17
 160 189 160 189 199 204 c 128,-1,18
 238 219 238 219 276 229.5 c 128,-1,19
 314 240 314 240 334 239 c 1,20,21
 382 216 382 216 401 175 c 128,-1,22
 420 134 420 134 420 70 c 0,0,1
EndSplineSet
EndChar

StartChar: period
Encoding: 46 46 17
Width: 497
Flags: W
LayerCount: 2
Fore
SplineSet
399 126 m 0,0,1
 399 90 399 90 387 59.5 c 128,-1,2
 375 29 375 29 354.5 7 c 128,-1,3
 334 -15 334 -15 306 -27.5 c 128,-1,4
 278 -40 278 -40 246 -40 c 0,5,6
 191 -40 191 -40 161 -10 c 128,-1,7
 131 20 131 20 131 80 c 0,8,9
 131 116 131 116 143.5 146 c 128,-1,10
 156 176 156 176 177 198.5 c 128,-1,11
 198 221 198 221 226 233.5 c 128,-1,12
 254 246 254 246 285 246 c 0,13,14
 337 246 337 246 368 216 c 128,-1,15
 399 186 399 186 399 126 c 0,0,1
EndSplineSet
EndChar

StartChar: slash
Encoding: 47 47 18
Width: 966
Flags: W
LayerCount: 2
Fore
SplineSet
221 -282 m 1,0,1
 211 -289 211 -289 193 -296.5 c 128,-1,2
 175 -304 175 -304 155 -311.5 c 128,-1,3
 135 -319 135 -319 115.5 -325 c 128,-1,4
 96 -331 96 -331 84 -335 c 1,5,-1
 44 -308 l 1,6,-1
 745 1549 l 1,7,8
 758 1558 758 1558 775.5 1565.5 c 128,-1,9
 793 1573 793 1573 811.5 1579.5 c 128,-1,10
 830 1586 830 1586 848 1591 c 128,-1,11
 866 1596 866 1596 880 1600 c 1,12,-1
 919 1576 l 1,13,-1
 221 -282 l 1,0,1
EndSplineSet
EndChar

StartChar: zero
Encoding: 48 48 19
Width: 986
GlyphClass: 2
Flags: W
AnchorPoint: "Anchor-4" 986 900 basechar 0
AnchorPoint: "Anchor-3" 493 -100 basechar 0
AnchorPoint: "Anchor-2" 493 -100 basechar 0
AnchorPoint: "Anchor-1" 493 -100 basechar 0
AnchorPoint: "Anchor-0" 493 1370 basechar 0
LayerCount: 2
Fore
SplineSet
719 565 m 0,0,1
 719 702 719 702 699.5 805 c 128,-1,2
 680 908 680 908 646.5 977 c 128,-1,3
 613 1046 613 1046 569 1080.5 c 128,-1,4
 525 1115 525 1115 476 1115 c 0,5,6
 426 1115 426 1115 387.5 1088.5 c 128,-1,7
 349 1062 349 1062 322.5 1005 c 128,-1,8
 296 948 296 948 282 859 c 128,-1,9
 268 770 268 770 268 645 c 0,10,11
 268 508 268 508 285.5 404 c 128,-1,12
 303 300 303 300 335 230 c 128,-1,13
 367 160 367 160 411.5 125 c 128,-1,14
 456 90 456 90 510 90 c 0,15,16
 560 90 560 90 599 116.5 c 128,-1,17
 638 143 638 143 664.5 200.5 c 128,-1,18
 691 258 691 258 705 348 c 128,-1,19
 719 438 719 438 719 565 c 0,0,1
915 602 m 0,20,21
 915 473 915 473 883 358 c 128,-1,22
 851 243 851 243 793.5 157 c 128,-1,23
 736 71 736 71 655 20.5 c 128,-1,24
 574 -30 574 -30 476 -30 c 256,25,26
 378 -30 378 -30 302.5 20.5 c 128,-1,27
 227 71 227 71 175.5 157 c 128,-1,28
 124 243 124 243 97.5 358 c 128,-1,29
 71 473 71 473 71 602 c 256,30,31
 71 731 71 731 102.5 846 c 128,-1,32
 134 961 134 961 191.5 1047.5 c 128,-1,33
 249 1134 249 1134 330 1184.5 c 128,-1,34
 411 1235 411 1235 510 1235 c 256,35,36
 609 1235 609 1235 684.5 1185 c 128,-1,37
 760 1135 760 1135 811.5 1049 c 128,-1,38
 863 963 863 963 889 847.5 c 128,-1,39
 915 732 915 732 915 602 c 0,20,21
EndSplineSet
EndChar

StartChar: one
Encoding: 49 49 20
Width: 986
GlyphClass: 2
Flags: W
AnchorPoint: "Anchor-4" 986 900 basechar 0
AnchorPoint: "Anchor-3" 493 -100 basechar 0
AnchorPoint: "Anchor-2" 493 -100 basechar 0
AnchorPoint: "Anchor-1" 493 -100 basechar 0
AnchorPoint: "Anchor-0" 493 1370 basechar 0
LayerCount: 2
Fore
SplineSet
165 0 m 1,0,-1
 165 63 l 1,1,2
 243 72 243 72 295 83.5 c 128,-1,3
 347 95 347 95 378 107 c 128,-1,4
 409 119 409 119 422 130.5 c 128,-1,5
 435 142 435 142 435 153 c 2,6,-1
 435 930 l 2,7,8
 435 970 435 970 432 992 c 128,-1,9
 429 1014 429 1014 417 1028 c 0,10,11
 411 1034 411 1034 394.5 1038 c 128,-1,12
 378 1042 378 1042 347.5 1041 c 128,-1,13
 317 1040 317 1040 270.5 1034 c 128,-1,14
 224 1028 224 1028 158 1014 c 1,15,-1
 134 1075 l 1,16,17
 176 1086 176 1086 237.5 1107 c 128,-1,18
 299 1128 299 1128 363 1153 c 128,-1,19
 427 1178 427 1178 484.5 1202.5 c 128,-1,20
 542 1227 542 1227 576 1245 c 1,21,-1
 615 1208 l 1,22,-1
 615 153 l 2,23,24
 615 143 615 143 626 131.5 c 128,-1,25
 637 120 637 120 665 108 c 128,-1,26
 693 96 693 96 741.5 84 c 128,-1,27
 790 72 790 72 865 63 c 1,28,-1
 865 0 l 1,29,-1
 165 0 l 1,0,-1
EndSplineSet
EndChar

StartChar: two
Encoding: 50 50 21
Width: 986
GlyphClass: 2
Flags: W
AnchorPoint: "Anchor-4" 986 900 basechar 0
AnchorPoint: "Anchor-3" 493 -100 basechar 0
AnchorPoint: "Anchor-2" 493 -100 basechar 0
AnchorPoint: "Anchor-1" 493 -100 basechar 0
AnchorPoint: "Anchor-0" 493 1370 basechar 0
LayerCount: 2
Fore
SplineSet
851 0 m 1,0,-1
 122 0 l 1,1,-1
 93 74 l 1,2,3
 211 211 211 211 299.5 317.5 c 128,-1,4
 388 424 388 424 451.5 506 c 128,-1,5
 515 588 515 588 556.5 649.5 c 128,-1,6
 598 711 598 711 622.5 759.5 c 128,-1,7
 647 808 647 808 656.5 847.5 c 128,-1,8
 666 887 666 887 666 924 c 0,9,10
 666 969 666 969 655.5 1008 c 128,-1,11
 645 1047 645 1047 622.5 1076 c 128,-1,12
 600 1105 600 1105 565 1121.5 c 128,-1,13
 530 1138 530 1138 480 1138 c 0,14,15
 439 1138 439 1138 406 1119 c 128,-1,16
 373 1100 373 1100 350.5 1069.5 c 128,-1,17
 328 1039 328 1039 317 1002 c 128,-1,18
 306 965 306 965 308 929 c 1,19,20
 274 910 274 910 235 895 c 128,-1,21
 196 880 196 880 150 875 c 1,22,-1
 120 918 l 1,23,24
 120 970 120 970 156 1026 c 128,-1,25
 192 1082 192 1082 251.5 1128.5 c 128,-1,26
 311 1175 311 1175 388 1205 c 128,-1,27
 465 1235 465 1235 548 1235 c 0,28,29
 614 1235 614 1235 670 1218.5 c 128,-1,30
 726 1202 726 1202 766.5 1168 c 128,-1,31
 807 1134 807 1134 830 1083 c 128,-1,32
 853 1032 853 1032 853 962 c 0,33,34
 853 917 853 917 840.5 872 c 128,-1,35
 828 827 828 827 800 775.5 c 128,-1,36
 772 724 772 724 728.5 663 c 128,-1,37
 685 602 685 602 622.5 525.5 c 128,-1,38
 560 449 560 449 478 353.5 c 128,-1,39
 396 258 396 258 292 139 c 1,40,-1
 704 139 l 2,41,42
 721 139 721 139 734.5 147 c 128,-1,43
 748 155 748 155 758.5 168 c 128,-1,44
 769 181 769 181 776.5 197.5 c 128,-1,45
 784 214 784 214 789 231 c 0,46,47
 801 271 801 271 806 324 c 1,48,-1
 866 310 l 1,49,-1
 851 0 l 1,0,-1
EndSplineSet
EndChar

StartChar: three
Encoding: 51 51 22
Width: 986
GlyphClass: 2
Flags: W
AnchorPoint: "Anchor-4" 986 900 basechar 0
AnchorPoint: "Anchor-3" 493 -100 basechar 0
AnchorPoint: "Anchor-2" 493 -100 basechar 0
AnchorPoint: "Anchor-1" 493 -100 basechar 0
AnchorPoint: "Anchor-0" 493 1370 basechar 0
LayerCount: 2
Fore
SplineSet
855 381 m 0,0,1
 855 297 855 297 826 222 c 128,-1,2
 797 147 797 147 742 91 c 128,-1,3
 687 35 687 35 607 2.5 c 128,-1,4
 527 -30 527 -30 424 -30 c 0,5,6
 385 -30 385 -30 341.5 -22 c 128,-1,7
 298 -14 298 -14 253 4 c 128,-1,8
 208 22 208 22 162 51.5 c 128,-1,9
 116 81 116 81 71 124 c 1,10,-1
 107 201 l 1,11,12
 152 167 152 167 190.5 144.5 c 128,-1,13
 229 122 229 122 264.5 108.5 c 128,-1,14
 300 95 300 95 334 89 c 128,-1,15
 368 83 368 83 406 83 c 0,16,17
 462 83 462 83 509.5 101 c 128,-1,18
 557 119 557 119 591 153.5 c 128,-1,19
 625 188 625 188 644 237.5 c 128,-1,20
 663 287 663 287 663 351 c 0,21,22
 663 424 663 424 640 474.5 c 128,-1,23
 617 525 617 525 582 556.5 c 128,-1,24
 547 588 547 588 503.5 602 c 128,-1,25
 460 616 460 616 420 616 c 2,26,-1
 398 616 l 2,27,28
 391 616 391 616 385 615 c 128,-1,29
 379 614 379 614 370.5 613 c 128,-1,30
 362 612 362 612 347 609 c 1,31,-1
 332 679 l 1,32,33
 422 703 422 703 476 735.5 c 128,-1,34
 530 768 530 768 559 803 c 128,-1,35
 588 838 588 838 597 873.5 c 128,-1,36
 606 909 606 909 606 940 c 0,37,38
 606 974 606 974 596.5 1009.5 c 128,-1,39
 587 1045 587 1045 566.5 1073.5 c 128,-1,40
 546 1102 546 1102 514.5 1120 c 128,-1,41
 483 1138 483 1138 439 1138 c 0,42,43
 403 1138 403 1138 374.5 1124 c 128,-1,44
 346 1110 346 1110 327 1087 c 128,-1,45
 308 1064 308 1064 300.5 1033 c 128,-1,46
 293 1002 293 1002 300 968 c 1,47,48
 264 948 264 948 222.5 935.5 c 128,-1,49
 181 923 181 923 134 919 c 1,50,-1
 104 960 l 1,51,52
 104 1002 104 1002 134.5 1050 c 128,-1,53
 165 1098 165 1098 218.5 1139.5 c 128,-1,54
 272 1181 272 1181 343.5 1208 c 128,-1,55
 415 1235 415 1235 496 1235 c 0,56,57
 576 1235 576 1235 633.5 1211 c 128,-1,58
 691 1187 691 1187 727.5 1147.5 c 128,-1,59
 764 1108 764 1108 781 1058.5 c 128,-1,60
 798 1009 798 1009 798 958 c 0,61,62
 798 920 798 920 783 882.5 c 128,-1,63
 768 845 768 845 740 810.5 c 128,-1,64
 712 776 712 776 673 747 c 128,-1,65
 634 718 634 718 585 698 c 1,66,67
 643 691 643 691 692.5 663.5 c 128,-1,68
 742 636 742 636 778 593.5 c 128,-1,69
 814 551 814 551 834.5 496.5 c 128,-1,70
 855 442 855 442 855 381 c 0,0,1
EndSplineSet
EndChar

StartChar: four
Encoding: 52 52 23
Width: 986
GlyphClass: 2
Flags: W
AnchorPoint: "Anchor-4" 986 900 basechar 0
AnchorPoint: "Anchor-3" 493 -100 basechar 0
AnchorPoint: "Anchor-2" 493 -100 basechar 0
AnchorPoint: "Anchor-1" 493 -100 basechar 0
AnchorPoint: "Anchor-0" 493 1370 basechar 0
LayerCount: 2
Fore
SplineSet
580 1020 m 1,0,-1
 226 465 l 1,1,-1
 580 465 l 1,2,-1
 580 1020 l 1,0,-1
902 435 m 1,3,4
 881 403 881 403 859.5 382.5 c 128,-1,5
 838 362 838 362 815 345 c 1,6,-1
 750 345 l 1,7,-1
 750 114 l 2,8,9
 750 106 750 106 756 99.5 c 128,-1,10
 762 93 762 93 778 85.5 c 128,-1,11
 794 78 794 78 821 70 c 128,-1,12
 848 62 848 62 889 53 c 1,13,-1
 889 0 l 1,14,-1
 370 0 l 1,15,-1
 370 53 l 1,16,17
 435 64 435 64 476 73.5 c 128,-1,18
 517 83 517 83 540 91.5 c 128,-1,19
 563 100 563 100 571.5 108 c 128,-1,20
 580 116 580 116 580 125 c 2,21,-1
 580 345 l 1,22,-1
 91 345 l 1,23,-1
 55 381 l 1,24,-1
 546 1172 l 1,25,26
 590 1189 590 1189 633 1209 c 128,-1,27
 676 1229 676 1229 711 1245 c 1,28,-1
 750 1208 l 1,29,-1
 750 465 l 1,30,-1
 876 465 l 1,31,-1
 902 435 l 1,3,4
EndSplineSet
EndChar

StartChar: five
Encoding: 53 53 24
Width: 986
GlyphClass: 2
Flags: W
AnchorPoint: "Anchor-4" 986 900 basechar 0
AnchorPoint: "Anchor-3" 493 -100 basechar 0
AnchorPoint: "Anchor-2" 493 -100 basechar 0
AnchorPoint: "Anchor-1" 493 -100 basechar 0
AnchorPoint: "Anchor-0" 493 1370 basechar 0
LayerCount: 2
Fore
SplineSet
864 410 m 0,0,1
 864 323 864 323 837.5 243.5 c 128,-1,2
 811 164 811 164 758.5 103 c 128,-1,3
 706 42 706 42 629 6 c 128,-1,4
 552 -30 552 -30 450 -30 c 0,5,6
 357 -30 357 -30 261 6 c 128,-1,7
 165 42 165 42 78 123 c 1,8,-1
 118 197 l 1,9,10
 171 160 171 160 215.5 137 c 128,-1,11
 260 114 260 114 297.5 101.5 c 128,-1,12
 335 89 335 89 367 84.5 c 128,-1,13
 399 80 399 80 428 80 c 0,14,15
 488 80 488 80 534.5 103.5 c 128,-1,16
 581 127 581 127 612.5 166.5 c 128,-1,17
 644 206 644 206 660 258 c 128,-1,18
 676 310 676 310 676 367 c 0,19,20
 676 435 676 435 659 490 c 128,-1,21
 642 545 642 545 609 583.5 c 128,-1,22
 576 622 576 622 527 642.5 c 128,-1,23
 478 663 478 663 413 663 c 0,24,25
 358 663 358 663 297.5 641.5 c 128,-1,26
 237 620 237 620 184 580 c 1,27,-1
 137 613 l 1,28,29
 143 649 143 649 151 697.5 c 128,-1,30
 159 746 159 746 167.5 800 c 128,-1,31
 176 854 176 854 184.5 910.5 c 128,-1,32
 193 967 193 967 200 1021 c 128,-1,33
 207 1075 207 1075 212 1122.5 c 128,-1,34
 217 1170 217 1170 219 1205 c 1,35,-1
 685 1205 l 2,36,37
 714 1205 714 1205 736 1207.5 c 128,-1,38
 758 1210 758 1210 774 1214 c 0,39,40
 792 1218 792 1218 806 1223 c 1,41,-1
 838 1192 l 1,42,43
 827 1176 827 1176 811.5 1156 c 128,-1,44
 796 1136 796 1136 779 1117.5 c 128,-1,45
 762 1099 762 1099 746 1083 c 128,-1,46
 730 1067 730 1067 718 1058 c 1,47,-1
 316 1058 l 1,48,49
 314 1029 314 1029 309.5 986 c 128,-1,50
 305 943 305 943 298.5 899 c 128,-1,51
 292 855 292 855 285.5 815.5 c 128,-1,52
 279 776 279 776 275 754 c 1,53,54
 317 768 317 768 371 776.5 c 128,-1,55
 425 785 425 785 481 785 c 0,56,57
 575 785 575 785 646.5 754 c 128,-1,58
 718 723 718 723 766.5 671 c 128,-1,59
 815 619 815 619 839.5 551 c 128,-1,60
 864 483 864 483 864 410 c 0,0,1
EndSplineSet
EndChar

StartChar: six
Encoding: 54 54 25
Width: 986
GlyphClass: 2
Flags: W
AnchorPoint: "Anchor-4" 986 900 basechar 0
AnchorPoint: "Anchor-3" 493 -100 basechar 0
AnchorPoint: "Anchor-2" 493 -100 basechar 0
AnchorPoint: "Anchor-1" 493 -100 basechar 0
AnchorPoint: "Anchor-0" 493 1370 basechar 0
LayerCount: 2
Fore
SplineSet
515 655 m 0,0,1
 467 655 467 655 409.5 626 c 128,-1,2
 352 597 352 597 298 536 c 1,3,4
 298 418 298 418 316.5 332.5 c 128,-1,5
 335 247 335 247 369 191.5 c 128,-1,6
 403 136 403 136 450.5 109.5 c 128,-1,7
 498 83 498 83 555 83 c 0,8,9
 605 83 605 83 638.5 107 c 128,-1,10
 672 131 672 131 692 169.5 c 128,-1,11
 712 208 712 208 720.5 255 c 128,-1,12
 729 302 729 302 729 348 c 0,13,14
 729 442 729 442 709 501.5 c 128,-1,15
 689 561 689 561 657.5 595 c 128,-1,16
 626 629 626 629 588 642 c 128,-1,17
 550 655 550 655 515 655 c 0,0,1
911 412 m 0,18,19
 911 365 911 365 900 314 c 128,-1,20
 889 263 889 263 867 214 c 128,-1,21
 845 165 845 165 812 121 c 128,-1,22
 779 77 779 77 736 43.5 c 128,-1,23
 693 10 693 10 639 -10 c 128,-1,24
 585 -30 585 -30 521 -30 c 0,25,26
 435 -30 435 -30 359 6.5 c 128,-1,27
 283 43 283 43 226.5 109 c 128,-1,28
 170 175 170 175 137.5 267.5 c 128,-1,29
 105 360 105 360 105 473 c 0,30,31
 105 614 105 614 148 743.5 c 128,-1,32
 191 873 191 873 278.5 977 c 128,-1,33
 366 1081 366 1081 498 1152 c 128,-1,34
 630 1223 630 1223 808 1249 c 1,35,-1
 830 1180 l 1,36,37
 711 1153 711 1153 620.5 1101 c 128,-1,38
 530 1049 530 1049 466 980.5 c 128,-1,39
 402 912 402 912 363 830 c 128,-1,40
 324 748 324 748 309 661 c 1,41,42
 343 692 343 692 378 713.5 c 128,-1,43
 413 735 413 735 446 748.5 c 128,-1,44
 479 762 479 762 509.5 768.5 c 128,-1,45
 540 775 540 775 564 775 c 0,46,47
 646 775 646 775 710.5 749 c 128,-1,48
 775 723 775 723 819.5 675.5 c 128,-1,49
 864 628 864 628 887.5 561 c 128,-1,50
 911 494 911 494 911 412 c 0,18,19
EndSplineSet
EndChar

StartChar: seven
Encoding: 55 55 26
Width: 986
GlyphClass: 2
Flags: W
AnchorPoint: "Anchor-4" 986 900 basechar 0
AnchorPoint: "Anchor-3" 493 -100 basechar 0
AnchorPoint: "Anchor-2" 493 -100 basechar 0
AnchorPoint: "Anchor-1" 493 -100 basechar 0
AnchorPoint: "Anchor-0" 493 1370 basechar 0
LayerCount: 2
Fore
SplineSet
910 1167 m 1,0,1
 864 1059 864 1059 818 949.5 c 128,-1,2
 772 840 772 840 728 733 c 128,-1,3
 684 626 684 626 644 525.5 c 128,-1,4
 604 425 604 425 570 336.5 c 128,-1,5
 536 248 536 248 509 174 c 128,-1,6
 482 100 482 100 465 47 c 1,7,8
 430 22 430 22 381.5 2.5 c 128,-1,9
 333 -17 333 -17 283 -30 c 1,10,-1
 239 6 l 1,11,12
 326 159 326 159 394.5 294.5 c 128,-1,13
 463 430 463 430 521.5 557.5 c 128,-1,14
 580 685 580 685 633 807.5 c 128,-1,15
 686 930 686 930 741 1058 c 1,16,-1
 289 1058 l 2,17,18
 274 1058 274 1058 259.5 1056.5 c 128,-1,19
 245 1055 245 1055 229 1041.5 c 128,-1,20
 213 1028 213 1028 194.5 997 c 128,-1,21
 176 966 176 966 155 908 c 1,22,-1
 102 928 l 1,23,24
 105 951 105 951 110.5 989 c 128,-1,25
 116 1027 116 1027 122 1067.5 c 128,-1,26
 128 1108 128 1108 134.5 1145.5 c 128,-1,27
 141 1183 141 1183 147 1205 c 1,28,-1
 877 1205 l 1,29,-1
 910 1167 l 1,0,1
EndSplineSet
EndChar

StartChar: eight
Encoding: 56 56 27
Width: 986
GlyphClass: 2
Flags: W
AnchorPoint: "Anchor-4" 986 900 basechar 0
AnchorPoint: "Anchor-3" 493 -100 basechar 0
AnchorPoint: "Anchor-2" 493 -100 basechar 0
AnchorPoint: "Anchor-1" 493 -100 basechar 0
AnchorPoint: "Anchor-0" 493 1370 basechar 0
LayerCount: 2
Fore
SplineSet
303 950 m 0,0,1
 303 908 303 908 323 876.5 c 128,-1,2
 343 845 343 845 377 820.5 c 128,-1,3
 411 796 411 796 455.5 775 c 128,-1,4
 500 754 500 754 548 733 c 1,5,6
 611 784 611 784 638 835.5 c 128,-1,7
 665 887 665 887 665 938 c 0,8,9
 665 990 665 990 650 1027 c 128,-1,10
 635 1064 635 1064 608.5 1088 c 128,-1,11
 582 1112 582 1112 545.5 1123 c 128,-1,12
 509 1134 509 1134 466 1134 c 0,13,14
 425 1134 425 1134 394.5 1118 c 128,-1,15
 364 1102 364 1102 343.5 1076 c 128,-1,16
 323 1050 323 1050 313 1017 c 128,-1,17
 303 984 303 984 303 950 c 0,0,1
705 309 m 0,18,19
 705 373 705 373 683 418.5 c 128,-1,20
 661 464 661 464 624.5 497 c 128,-1,21
 588 530 588 530 541 554.5 c 128,-1,22
 494 579 494 579 444 601 c 1,23,24
 402 568 402 568 371.5 535.5 c 128,-1,25
 341 503 341 503 321 468.5 c 128,-1,26
 301 434 301 434 291.5 396.5 c 128,-1,27
 282 359 282 359 282 315 c 0,28,29
 282 263 282 263 299 219.5 c 128,-1,30
 316 176 316 176 346 144.5 c 128,-1,31
 376 113 376 113 418 95.5 c 128,-1,32
 460 78 460 78 510 78 c 0,33,34
 561 78 561 78 597.5 98 c 128,-1,35
 634 118 634 118 658 150 c 128,-1,36
 682 182 682 182 693.5 223.5 c 128,-1,37
 705 265 705 265 705 309 c 0,18,19
897 352 m 0,38,39
 897 274 897 274 863 205 c 128,-1,40
 829 136 829 136 770.5 83.5 c 128,-1,41
 712 31 712 31 633.5 0.5 c 128,-1,42
 555 -30 555 -30 466 -30 c 0,43,44
 375 -30 375 -30 304.5 -4 c 128,-1,45
 234 22 234 22 186 66 c 128,-1,46
 138 110 138 110 113.5 166.5 c 128,-1,47
 89 223 89 223 89 285 c 0,48,49
 89 339 89 339 108.5 388.5 c 128,-1,50
 128 438 128 438 163 483 c 128,-1,51
 198 528 198 528 247.5 567.5 c 128,-1,52
 297 607 297 607 357 640 c 1,53,54
 313 661 313 661 274 685 c 128,-1,55
 235 709 235 709 205 741 c 128,-1,56
 175 773 175 773 157.5 815.5 c 128,-1,57
 140 858 140 858 140 915 c 0,58,59
 140 984 140 984 169 1043 c 128,-1,60
 198 1102 198 1102 248 1144.5 c 128,-1,61
 298 1187 298 1187 366 1211 c 128,-1,62
 434 1235 434 1235 512 1235 c 0,63,64
 594 1235 594 1235 656.5 1215 c 128,-1,65
 719 1195 719 1195 761.5 1160 c 128,-1,66
 804 1125 804 1125 825.5 1076 c 128,-1,67
 847 1027 847 1027 847 969 c 0,68,69
 847 928 847 928 831 891 c 128,-1,70
 815 854 815 854 787.5 820.5 c 128,-1,71
 760 787 760 787 722 755 c 128,-1,72
 684 723 684 723 639 693 c 1,73,74
 689 669 689 669 735.5 639 c 128,-1,75
 782 609 782 609 818 568.5 c 128,-1,76
 854 528 854 528 875.5 475 c 128,-1,77
 897 422 897 422 897 352 c 0,38,39
EndSplineSet
EndChar

StartChar: nine
Encoding: 57 57 28
Width: 986
GlyphClass: 2
Flags: W
AnchorPoint: "Anchor-4" 986 900 basechar 0
AnchorPoint: "Anchor-3" 493 -100 basechar 0
AnchorPoint: "Anchor-2" 493 -100 basechar 0
AnchorPoint: "Anchor-1" 493 -100 basechar 0
AnchorPoint: "Anchor-0" 493 1370 basechar 0
LayerCount: 2
Fore
SplineSet
491 560 m 0,0,1
 556 560 556 560 611 595.5 c 128,-1,2
 666 631 666 631 708 686 c 1,3,4
 706 815 706 815 684.5 899.5 c 128,-1,5
 663 984 663 984 630 1033.5 c 128,-1,6
 597 1083 597 1083 557.5 1103 c 128,-1,7
 518 1123 518 1123 480 1123 c 0,8,9
 432 1123 432 1123 394.5 1103.5 c 128,-1,10
 357 1084 357 1084 331 1048.5 c 128,-1,11
 305 1013 305 1013 291.5 964 c 128,-1,12
 278 915 278 915 278 856 c 0,13,14
 278 766 278 766 299 708.5 c 128,-1,15
 320 651 320 651 351.5 618 c 128,-1,16
 383 585 383 585 420.5 572.5 c 128,-1,17
 458 560 458 560 491 560 c 0,0,1
900 731 m 0,18,19
 900 579 900 579 857 448.5 c 128,-1,20
 814 318 814 318 726.5 216.5 c 128,-1,21
 639 115 639 115 506.5 48 c 128,-1,22
 374 -19 374 -19 195 -43 c 1,23,-1
 175 26 l 1,24,25
 310 60 310 60 406 112 c 128,-1,26
 502 164 502 164 564.5 232.5 c 128,-1,27
 627 301 627 301 660 384 c 128,-1,28
 693 467 693 467 703 562 c 1,29,30
 649 505 649 505 580 471.5 c 128,-1,31
 511 438 511 438 441 438 c 0,32,33
 358 438 358 438 293.5 466 c 128,-1,34
 229 494 229 494 185 542 c 128,-1,35
 141 590 141 590 118 655 c 128,-1,36
 95 720 95 720 95 795 c 0,37,38
 95 871 95 871 126 949 c 128,-1,39
 157 1027 157 1027 213 1090.5 c 128,-1,40
 269 1154 269 1154 346.5 1194.5 c 128,-1,41
 424 1235 424 1235 516 1235 c 0,42,43
 593 1235 593 1235 663 1206 c 128,-1,44
 733 1177 733 1177 785.5 1115.5 c 128,-1,45
 838 1054 838 1054 869 959 c 128,-1,46
 900 864 900 864 900 731 c 0,18,19
EndSplineSet
EndChar

StartChar: colon
Encoding: 58 58 29
Width: 497
Flags: W
LayerCount: 2
Fore
SplineSet
399 840 m 0,0,1
 399 804 399 804 387 773.5 c 128,-1,2
 375 743 375 743 354.5 721 c 128,-1,3
 334 699 334 699 306 686.5 c 128,-1,4
 278 674 278 674 246 674 c 0,5,6
 191 674 191 674 161 704 c 128,-1,7
 131 734 131 734 131 794 c 0,8,9
 131 830 131 830 143.5 860 c 128,-1,10
 156 890 156 890 177 912.5 c 128,-1,11
 198 935 198 935 226 947.5 c 128,-1,12
 254 960 254 960 285 960 c 0,13,14
 337 960 337 960 368 930 c 128,-1,15
 399 900 399 900 399 840 c 0,0,1
399 126 m 0,16,17
 399 90 399 90 387 59.5 c 128,-1,18
 375 29 375 29 354.5 7 c 128,-1,19
 334 -15 334 -15 306 -27.5 c 128,-1,20
 278 -40 278 -40 246 -40 c 0,21,22
 191 -40 191 -40 161 -10 c 128,-1,23
 131 20 131 20 131 80 c 0,24,25
 131 116 131 116 143.5 146 c 128,-1,26
 156 176 156 176 177 198.5 c 128,-1,27
 198 221 198 221 226 233.5 c 128,-1,28
 254 246 254 246 285 246 c 0,29,30
 337 246 337 246 368 216 c 128,-1,31
 399 186 399 186 399 126 c 0,16,17
EndSplineSet
EndChar

StartChar: less
Encoding: 60 60 31
Width: 909
Flags: W
LayerCount: 2
Fore
SplineSet
851 326 m 1,0,1
 829 306 829 306 810 288 c 128,-1,2
 791 270 791 270 760 251 c 1,3,-1
 86 500 l 1,4,-1
 58 529 l 1,5,-1
 61 542 l 1,6,-1
 66 558 l 2,7,8
 73 583 73 583 80 605 c 0,9,10
 82 613 82 613 85 619 c 128,-1,11
 88 625 88 625 90 631 c 2,12,-1
 92 635 l 1,13,-1
 824 906 l 1,14,-1
 851 879 l 1,15,16
 848 868 848 868 844 853.5 c 128,-1,17
 840 839 840 839 835.5 823 c 128,-1,18
 831 807 831 807 827 792.5 c 128,-1,19
 823 778 823 778 820 769 c 1,20,-1
 273 568 l 1,21,-1
 832 364 l 1,22,-1
 851 326 l 1,0,1
EndSplineSet
EndChar

StartChar: equal
Encoding: 61 61 32
Width: 909
Flags: W
LayerCount: 2
Fore
SplineSet
851 444 m 1,0,1
 846 423 846 423 834.5 395.5 c 128,-1,2
 823 368 823 368 817 350 c 1,3,-1
 86 350 l 1,4,-1
 58 379 l 1,5,6
 63 399 63 399 74 425 c 128,-1,7
 85 451 85 451 94 471 c 1,8,-1
 824 471 l 1,9,-1
 851 444 l 1,0,1
851 744 m 1,10,11
 848 734 848 734 843.5 721 c 128,-1,12
 839 708 839 708 834 695.5 c 128,-1,13
 829 683 829 683 824.5 671 c 128,-1,14
 820 659 820 659 817 650 c 1,15,-1
 86 650 l 1,16,-1
 58 677 l 1,17,18
 63 698 63 698 74 725 c 128,-1,19
 85 752 85 752 94 771 c 1,20,-1
 824 771 l 1,21,-1
 851 744 l 1,10,11
EndSplineSet
EndChar

StartChar: greater
Encoding: 62 62 33
Width: 909
Flags: W
LayerCount: 2
Fore
SplineSet
851 628 m 1,0,1
 848 617 848 617 844.5 603.5 c 128,-1,2
 841 590 841 590 836.5 575 c 128,-1,3
 832 560 832 560 827 546 c 128,-1,4
 822 532 822 532 818 520 c 1,5,-1
 86 251 l 1,6,-1
 58 279 l 1,7,8
 61 289 61 289 65.5 303.5 c 128,-1,9
 70 318 70 318 74.5 333.5 c 128,-1,10
 79 349 79 349 83.5 363.5 c 128,-1,11
 88 378 88 378 91 387 c 1,12,-1
 634 587 l 1,13,-1
 78 792 l 1,14,-1
 58 832 l 1,15,16
 81 851 81 851 105 870.5 c 128,-1,17
 129 890 129 890 150 906 c 1,18,-1
 825 658 l 1,19,-1
 851 628 l 1,0,1
EndSplineSet
EndChar

StartChar: question
Encoding: 63 63 34
Width: 902
Flags: W
LayerCount: 2
Fore
SplineSet
826 1165 m 0,0,1
 826 1090 826 1090 802 1029.5 c 128,-1,2
 778 969 778 969 741 916.5 c 128,-1,3
 704 864 704 864 660.5 816.5 c 128,-1,4
 617 769 617 769 579 719 c 128,-1,5
 541 669 541 669 514 614.5 c 128,-1,6
 487 560 487 560 482 493 c 2,7,-1
 476 397 l 1,8,9
 457 383 457 383 438.5 373.5 c 128,-1,10
 420 364 420 364 392 356 c 1,11,-1
 365 379 l 1,12,-1
 357 493 l 2,13,14
 354 550 354 550 373 606 c 128,-1,15
 392 662 392 662 422.5 715.5 c 128,-1,16
 453 769 453 769 489 821.5 c 128,-1,17
 525 874 525 874 556.5 924.5 c 128,-1,18
 588 975 588 975 609 1023.5 c 128,-1,19
 630 1072 630 1072 630 1120 c 0,20,21
 630 1244 630 1244 579 1310.5 c 128,-1,22
 528 1377 528 1377 434 1377 c 0,23,24
 402 1377 402 1377 372.5 1362 c 128,-1,25
 343 1347 343 1347 320.5 1320.5 c 128,-1,26
 298 1294 298 1294 285 1259.5 c 128,-1,27
 272 1225 272 1225 272 1186 c 0,28,29
 272 1172 272 1172 275.5 1156 c 128,-1,30
 279 1140 279 1140 284 1126 c 1,31,32
 268 1118 268 1118 246.5 1110.5 c 128,-1,33
 225 1103 225 1103 201.5 1097 c 128,-1,34
 178 1091 178 1091 153.5 1086.5 c 128,-1,35
 129 1082 129 1082 107 1080 c 1,36,-1
 77 1113 l 1,37,38
 75 1121 75 1121 75 1132 c 2,39,-1
 75 1151 l 2,40,41
 75 1221 75 1221 110.5 1281.5 c 128,-1,42
 146 1342 146 1342 206 1386 c 128,-1,43
 266 1430 266 1430 345 1455 c 128,-1,44
 424 1480 424 1480 510 1480 c 0,45,46
 586 1480 586 1480 645 1457 c 128,-1,47
 704 1434 704 1434 744.5 1392.5 c 128,-1,48
 785 1351 785 1351 805.5 1293 c 128,-1,49
 826 1235 826 1235 826 1165 c 0,0,1
562 126 m 0,50,51
 562 90 562 90 550 59.5 c 128,-1,52
 538 29 538 29 517.5 7 c 128,-1,53
 497 -15 497 -15 469 -27.5 c 128,-1,54
 441 -40 441 -40 409 -40 c 0,55,56
 354 -40 354 -40 324 -10 c 128,-1,57
 294 20 294 20 294 80 c 0,58,59
 294 116 294 116 306.5 146 c 128,-1,60
 319 176 319 176 340 198.5 c 128,-1,61
 361 221 361 221 389 233.5 c 128,-1,62
 417 246 417 246 448 246 c 0,63,64
 500 246 500 246 531 216 c 128,-1,65
 562 186 562 186 562 126 c 0,50,51
EndSplineSet
EndChar

StartChar: at
Encoding: 64 64 35
Width: 1701
Flags: W
LayerCount: 2
Fore
SplineSet
1024 731 m 1,0,1
 1011 757 1011 757 997.5 777.5 c 128,-1,2
 984 798 984 798 966.5 812.5 c 128,-1,3
 949 827 949 827 927.5 835 c 128,-1,4
 906 843 906 843 878 843 c 0,5,6
 775 843 775 843 714 751.5 c 128,-1,7
 653 660 653 660 653 473 c 0,8,9
 653 388 653 388 671 322 c 128,-1,10
 689 256 689 256 717.5 211 c 128,-1,11
 746 166 746 166 780.5 143 c 128,-1,12
 815 120 815 120 848 120 c 0,13,14
 867 120 867 120 884.5 126.5 c 128,-1,15
 902 133 902 133 921.5 148.5 c 128,-1,16
 941 164 941 164 965.5 191 c 128,-1,17
 990 218 990 218 1024 260 c 1,18,-1
 1024 731 l 1,0,1
1626 557 m 0,19,20
 1626 471 1626 471 1606 394 c 128,-1,21
 1586 317 1586 317 1552.5 252 c 128,-1,22
 1519 187 1519 187 1474 134.5 c 128,-1,23
 1429 82 1429 82 1379 45.5 c 128,-1,24
 1329 9 1329 9 1277 -10.5 c 128,-1,25
 1225 -30 1225 -30 1177 -30 c 0,26,27
 1151 -30 1151 -30 1127.5 -20.5 c 128,-1,28
 1104 -11 1104 -11 1085 10.5 c 128,-1,29
 1066 32 1066 32 1052 67 c 128,-1,30
 1038 102 1038 102 1030 152 c 1,31,32
 989 98 989 98 958 63 c 128,-1,33
 927 28 927 28 897.5 7 c 128,-1,34
 868 -14 868 -14 837.5 -22 c 128,-1,35
 807 -30 807 -30 767 -30 c 0,36,37
 716 -30 716 -30 663.5 1 c 128,-1,38
 611 32 611 32 569 92 c 128,-1,39
 527 152 527 152 500 240 c 128,-1,40
 473 328 473 328 473 442 c 0,41,42
 473 501 473 501 486.5 562.5 c 128,-1,43
 500 624 500 624 526 681.5 c 128,-1,44
 552 739 552 739 589.5 790 c 128,-1,45
 627 841 627 841 674.5 878.5 c 128,-1,46
 722 916 722 916 780 938 c 128,-1,47
 838 960 838 960 904 960 c 0,48,49
 927 960 927 960 946.5 956.5 c 128,-1,50
 966 953 966 953 985 943 c 128,-1,51
 1004 933 1004 933 1024.5 915 c 128,-1,52
 1045 897 1045 897 1071 868 c 1,53,54
 1107 885 1107 885 1138.5 907 c 128,-1,55
 1170 929 1170 929 1203 960 c 1,56,-1
 1234 930 l 1,57,58
 1225 900 1225 900 1219 865 c 0,59,60
 1213 835 1213 835 1208.5 796.5 c 128,-1,61
 1204 758 1204 758 1204 716 c 2,62,-1
 1204 285 l 2,63,64
 1204 205 1204 205 1228.5 166 c 128,-1,65
 1253 127 1253 127 1300 127 c 0,66,67
 1325 127 1325 127 1356.5 155.5 c 128,-1,68
 1388 184 1388 184 1415.5 235 c 128,-1,69
 1443 286 1443 286 1462 357 c 128,-1,70
 1481 428 1481 428 1481 512 c 0,71,72
 1481 681 1481 681 1438.5 811 c 128,-1,73
 1396 941 1396 941 1319.5 1028.5 c 128,-1,74
 1243 1116 1243 1116 1136.5 1161 c 128,-1,75
 1030 1206 1030 1206 903 1206 c 0,76,77
 801 1206 801 1206 713 1180.5 c 128,-1,78
 625 1155 625 1155 552.5 1109.5 c 128,-1,79
 480 1064 480 1064 423.5 1000.5 c 128,-1,80
 367 937 367 937 328.5 861 c 128,-1,81
 290 785 290 785 270 699.5 c 128,-1,82
 250 614 250 614 250 524 c 0,83,84
 250 401 250 401 275 296.5 c 128,-1,85
 300 192 300 192 345 106 c 128,-1,86
 390 20 390 20 452.5 -46.5 c 128,-1,87
 515 -113 515 -113 590.5 -158 c 128,-1,88
 666 -203 666 -203 751.5 -226.5 c 128,-1,89
 837 -250 837 -250 928 -250 c 0,90,91
 1016 -250 1016 -250 1098 -232.5 c 128,-1,92
 1180 -215 1180 -215 1249 -189 c 128,-1,93
 1318 -163 1318 -163 1370.5 -133 c 128,-1,94
 1423 -103 1423 -103 1453 -77 c 1,95,-1
 1487 -143 l 1,96,97
 1451 -182 1451 -182 1393.5 -225 c 128,-1,98
 1336 -268 1336 -268 1259.5 -304 c 128,-1,99
 1183 -340 1183 -340 1087 -364 c 128,-1,100
 991 -388 991 -388 879 -388 c 0,101,102
 702 -388 702 -388 554.5 -328.5 c 128,-1,103
 407 -269 407 -269 300.5 -158.5 c 128,-1,104
 194 -48 194 -48 134.5 110 c 128,-1,105
 75 268 75 268 75 465 c 0,106,107
 75 581 75 581 106 691 c 128,-1,108
 137 801 137 801 193.5 898.5 c 128,-1,109
 250 996 250 996 329 1077.5 c 128,-1,110
 408 1159 408 1159 504.5 1218 c 128,-1,111
 601 1277 601 1277 711.5 1310 c 128,-1,112
 822 1343 822 1343 942 1343 c 0,113,114
 1095 1343 1095 1343 1221 1293 c 128,-1,115
 1347 1243 1347 1243 1437 1144.5 c 128,-1,116
 1527 1046 1527 1046 1576.5 899 c 128,-1,117
 1626 752 1626 752 1626 557 c 0,19,20
EndSplineSet
EndChar

StartChar: A
Encoding: 65 65 36
Width: 1242
GlyphClass: 2
Flags: W
AnchorPoint: "Anchor-4" 1242 900 basechar 0
AnchorPoint: "Anchor-3" 978 0 basechar 0
AnchorPoint: "Anchor-2" 1019 0 basechar 0
AnchorPoint: "Anchor-1" 610 -100 basechar 0
AnchorPoint: "Anchor-0" 610 1370 basechar 0
LayerCount: 2
Fore
SplineSet
754 540 m 1,0,-1
 582 1038 l 1,1,-1
 418 540 l 1,2,-1
 754 540 l 1,0,-1
385 440 m 1,3,-1
 279 121 l 2,4,5
 269 90 269 90 305 76 c 128,-1,6
 341 62 341 62 423 53 c 1,7,-1
 423 0 l 1,8,-1
 0 0 l 1,9,-1
 0 53 l 1,10,11
 68 65 68 65 107 78 c 128,-1,12
 146 91 146 91 156 121 c 2,13,-1
 520 1227 l 1,14,15
 552 1257 552 1257 594.5 1280 c 128,-1,16
 637 1303 637 1303 672 1317 c 1,17,-1
 1092 121 l 2,18,19
 1097 107 1097 107 1105.5 96 c 128,-1,20
 1114 85 1114 85 1129 77 c 128,-1,21
 1144 69 1144 69 1166.5 63 c 128,-1,22
 1189 57 1189 57 1221 53 c 1,23,-1
 1221 0 l 1,24,-1
 774 0 l 1,25,-1
 774 53 l 1,26,27
 852 58 852 58 881 73 c 128,-1,28
 910 88 910 88 899 121 c 2,29,-1
 789 440 l 1,30,-1
 385 440 l 1,3,-1
EndSplineSet
EndChar

StartChar: B
Encoding: 66 66 37
Width: 1161
GlyphClass: 2
Flags: W
AnchorPoint: "Anchor-4" 1161 900 basechar 0
AnchorPoint: "Anchor-3" 545 -100 basechar 0
AnchorPoint: "Anchor-2" 545 -100 basechar 0
AnchorPoint: "Anchor-1" 545 -100 basechar 0
AnchorPoint: "Anchor-0" 545 1370 basechar 0
LayerCount: 2
Fore
SplineSet
431 1199 m 0,0,1
 419 1199 419 1199 406.5 1198.5 c 128,-1,2
 394 1198 394 1198 380 1198 c 1,3,-1
 380 730 l 1,4,-1
 409 730 l 2,5,6
 518 730 518 730 586 751.5 c 128,-1,7
 654 773 654 773 691.5 807.5 c 128,-1,8
 729 842 729 842 742 885 c 128,-1,9
 755 928 755 928 755 971 c 0,10,11
 755 1021 755 1021 739 1063 c 128,-1,12
 723 1105 723 1105 685.5 1135 c 128,-1,13
 648 1165 648 1165 586 1182 c 128,-1,14
 524 1199 524 1199 431 1199 c 0,0,1
535 646 m 0,15,16
 487 646 487 646 450.5 641.5 c 128,-1,17
 414 637 414 637 380 632 c 1,18,-1
 380 112 l 2,19,20
 380 105 380 105 388 98 c 1,21,22
 404 92 404 92 424 88 c 128,-1,23
 444 84 444 84 465.5 82 c 128,-1,24
 487 80 487 80 508.5 79 c 128,-1,25
 530 78 530 78 550 78 c 0,26,27
 622 78 622 78 679 96 c 128,-1,28
 736 114 736 114 775.5 146.5 c 128,-1,29
 815 179 815 179 836 225 c 128,-1,30
 857 271 857 271 857 327 c 0,31,32
 857 382 857 382 839.5 439 c 128,-1,33
 822 496 822 496 783 542 c 128,-1,34
 744 588 744 588 683 617 c 128,-1,35
 622 646 622 646 535 646 c 0,15,16
1054 356 m 0,36,37
 1054 271 1054 271 1020 202.5 c 128,-1,38
 986 134 986 134 923.5 86 c 128,-1,39
 861 38 861 38 773 12 c 128,-1,40
 685 -14 685 -14 577 -14 c 0,41,42
 555 -14 555 -14 523.5 -13.5 c 128,-1,43
 492 -13 492 -13 456 -12 c 128,-1,44
 420 -11 420 -11 381.5 -10 c 128,-1,45
 343 -9 343 -9 306 -7 c 0,46,47
 219 -4 219 -4 123 0 c 1,48,-1
 48 0 l 1,49,-1
 48 53 l 1,50,51
 116 67 116 67 153 83.5 c 128,-1,52
 190 100 190 100 190 114 c 2,53,-1
 190 1182 l 1,54,55
 152 1177 152 1177 116 1172 c 128,-1,56
 80 1167 80 1167 48 1161 c 1,57,-1
 37 1230 l 1,58,59
 78 1241 78 1241 132.5 1251.5 c 128,-1,60
 187 1262 187 1262 247.5 1270.5 c 128,-1,61
 308 1279 308 1279 370.5 1284.5 c 128,-1,62
 433 1290 433 1290 489 1290 c 0,63,64
 594 1290 594 1290 678.5 1271.5 c 128,-1,65
 763 1253 763 1253 821.5 1218 c 128,-1,66
 880 1183 880 1183 911.5 1133 c 128,-1,67
 943 1083 943 1083 943 1020 c 0,68,69
 943 912 943 912 889.5 835 c 128,-1,70
 836 758 836 758 740 723 c 1,71,72
 807 711 807 711 864.5 678 c 128,-1,73
 922 645 922 645 964 596.5 c 128,-1,74
 1006 548 1006 548 1030 486.5 c 128,-1,75
 1054 425 1054 425 1054 356 c 0,36,37
EndSplineSet
EndChar

StartChar: C
Encoding: 67 67 38
Width: 1113
GlyphClass: 2
Flags: W
AnchorPoint: "Anchor-4" 1113 900 basechar 0
AnchorPoint: "Anchor-3" 622 -100 basechar 0
AnchorPoint: "Anchor-2" 591 0 basechar 0
AnchorPoint: "Anchor-1" 622 -100 basechar 0
AnchorPoint: "Anchor-0" 622 1370 basechar 0
LayerCount: 2
Fore
SplineSet
1036 211 m 1,0,1
 972 144 972 144 912.5 98 c 128,-1,2
 853 52 853 52 796 23.5 c 128,-1,3
 739 -5 739 -5 684.5 -17.5 c 128,-1,4
 630 -30 630 -30 576 -30 c 0,5,6
 481 -30 481 -30 389 12 c 128,-1,7
 297 54 297 54 225 133 c 128,-1,8
 153 212 153 212 109 326.5 c 128,-1,9
 65 441 65 441 65 586 c 0,10,11
 65 746 65 746 113.5 876 c 128,-1,12
 162 1006 162 1006 246 1098 c 128,-1,13
 330 1190 330 1190 442 1240 c 128,-1,14
 554 1290 554 1290 681 1290 c 0,15,16
 735 1290 735 1290 784.5 1282 c 128,-1,17
 834 1274 834 1274 877 1260.5 c 128,-1,18
 920 1247 920 1247 955.5 1229 c 128,-1,19
 991 1211 991 1211 1017 1190 c 0,20,21
 1023 1185 1023 1185 1013 1165 c 128,-1,22
 1003 1145 1003 1145 986.5 1120.5 c 128,-1,23
 970 1096 970 1096 952 1072.5 c 128,-1,24
 934 1049 934 1049 922 1037 c 1,25,-1
 877 1046 l 1,26,27
 826 1106 826 1106 757.5 1139.5 c 128,-1,28
 689 1173 689 1173 602 1173 c 0,29,30
 568 1173 568 1173 528.5 1161 c 128,-1,31
 489 1149 489 1149 450.5 1122.5 c 128,-1,32
 412 1096 412 1096 376 1053.5 c 128,-1,33
 340 1011 340 1011 313 950 c 128,-1,34
 286 889 286 889 269.5 808 c 128,-1,35
 253 727 253 727 253 623 c 0,36,37
 253 492 253 492 290 394.5 c 128,-1,38
 327 297 327 297 385 232.5 c 128,-1,39
 443 168 443 168 515 136.5 c 128,-1,40
 587 105 587 105 656 105 c 0,41,42
 683 105 683 105 719 113 c 128,-1,43
 755 121 755 121 798 139.5 c 128,-1,44
 841 158 841 158 890.5 188.5 c 128,-1,45
 940 219 940 219 994 264 c 1,46,47
 999 261 999 261 1005 253.5 c 128,-1,48
 1011 246 1011 246 1017 237.5 c 128,-1,49
 1023 229 1023 229 1028 221.5 c 128,-1,50
 1033 214 1033 214 1036 211 c 1,0,1
EndSplineSet
EndChar

StartChar: D
Encoding: 68 68 39
Width: 1244
GlyphClass: 2
Flags: W
AnchorPoint: "Anchor-4" 1244 900 basechar 0
AnchorPoint: "Anchor-3" 563 -100 basechar 0
AnchorPoint: "Anchor-2" 563 -100 basechar 0
AnchorPoint: "Anchor-1" 563 -100 basechar 0
AnchorPoint: "Anchor-0" 563 1370 basechar 0
LayerCount: 2
Fore
SplineSet
471 1199 m 0,0,1
 425 1199 425 1199 380 1196 c 1,2,-1
 380 164 l 2,3,4
 380 142 380 142 388 127 c 1,5,6
 401 109 401 109 438 100.5 c 128,-1,7
 475 92 475 92 552 92 c 0,8,9
 617 92 617 92 688 124.5 c 128,-1,10
 759 157 759 157 818 224 c 128,-1,11
 877 291 877 291 915 393.5 c 128,-1,12
 953 496 953 496 953 637 c 0,13,14
 953 770 953 770 921.5 874.5 c 128,-1,15
 890 979 890 979 828.5 1051 c 128,-1,16
 767 1123 767 1123 677.5 1161 c 128,-1,17
 588 1199 588 1199 471 1199 c 0,0,1
1156 676 m 0,18,19
 1156 551 1156 551 1130.5 452.5 c 128,-1,20
 1105 354 1105 354 1061.5 278.5 c 128,-1,21
 1018 203 1018 203 960.5 150.5 c 128,-1,22
 903 98 903 98 839 64.5 c 128,-1,23
 775 31 775 31 708 15.5 c 128,-1,24
 641 0 641 0 579 0 c 2,25,-1
 48 0 l 1,26,-1
 48 53 l 1,27,28
 116 67 116 67 153 83.5 c 128,-1,29
 190 100 190 100 190 114 c 2,30,-1
 190 1178 l 1,31,32
 151 1173 151 1173 115 1168 c 128,-1,33
 79 1163 79 1163 48 1158 c 1,34,-1
 37 1230 l 1,35,36
 83 1242 83 1242 144 1253 c 128,-1,37
 205 1264 205 1264 272 1272.5 c 128,-1,38
 339 1281 339 1281 408 1285.5 c 128,-1,39
 477 1290 477 1290 538 1290 c 0,40,41
 682 1290 682 1290 796.5 1248.5 c 128,-1,42
 911 1207 911 1207 991 1128 c 128,-1,43
 1071 1049 1071 1049 1113.5 935 c 128,-1,44
 1156 821 1156 821 1156 676 c 0,18,19
EndSplineSet
EndChar

StartChar: E
Encoding: 69 69 40
Width: 1036
GlyphClass: 2
Flags: W
AnchorPoint: "Anchor-4" 1036 900 basechar 0
AnchorPoint: "Anchor-3" 769 0 basechar 0
AnchorPoint: "Anchor-2" 513 0 basechar 0
AnchorPoint: "Anchor-1" 513 -100 basechar 0
AnchorPoint: "Anchor-0" 513 1370 basechar 0
LayerCount: 2
Fore
SplineSet
979 264 m 1,0,1
 975 221 975 221 970 180 c 128,-1,2
 965 139 965 139 959 103.5 c 128,-1,3
 953 68 953 68 947.5 41.5 c 128,-1,4
 942 15 942 15 938 0 c 1,5,-1
 48 0 l 1,6,-1
 48 53 l 1,7,8
 116 67 116 67 153 83.5 c 128,-1,9
 190 100 190 100 190 114 c 2,10,-1
 190 1145 l 2,11,12
 190 1157 190 1157 155 1175 c 128,-1,13
 120 1193 120 1193 48 1207 c 1,14,-1
 48 1260 l 1,15,-1
 879 1260 l 1,16,-1
 914 1233 l 1,17,18
 912 1207 912 1207 908 1173.5 c 128,-1,19
 904 1140 904 1140 898 1105.5 c 128,-1,20
 892 1071 892 1071 885.5 1040 c 128,-1,21
 879 1009 879 1009 873 990 c 1,22,-1
 818 990 l 1,23,24
 813 1082 813 1082 793 1121 c 128,-1,25
 773 1160 773 1160 736 1160 c 2,26,-1
 380 1160 l 1,27,-1
 380 735 l 1,28,-1
 783 735 l 1,29,-1
 811 705 l 1,30,31
 803 691 803 691 791.5 674 c 128,-1,32
 780 657 780 657 767.5 641 c 128,-1,33
 755 625 755 625 742.5 611 c 128,-1,34
 730 597 730 597 719 589 c 1,35,36
 704 604 704 604 686.5 614 c 128,-1,37
 669 624 669 624 646.5 631 c 128,-1,38
 624 638 624 638 593.5 641 c 128,-1,39
 563 644 563 644 521 644 c 2,40,-1
 380 644 l 1,41,-1
 380 164 l 2,42,43
 380 149 380 149 387 137.5 c 128,-1,44
 394 126 394 126 416 117.5 c 128,-1,45
 438 109 438 109 478 104.5 c 128,-1,46
 518 100 518 100 584 100 c 2,47,-1
 703 100 l 2,48,49
 749 100 749 100 781.5 107 c 128,-1,50
 814 114 814 114 839 134 c 128,-1,51
 864 154 864 154 884.5 190 c 128,-1,52
 905 226 905 226 926 285 c 1,53,-1
 979 264 l 1,0,1
EndSplineSet
EndChar

StartChar: F
Encoding: 70 70 41
Width: 999
GlyphClass: 2
Flags: W
AnchorPoint: "Anchor-4" 999 900 basechar 0
AnchorPoint: "Anchor-3" 484 -100 basechar 0
AnchorPoint: "Anchor-2" 484 -100 basechar 0
AnchorPoint: "Anchor-1" 484 -100 basechar 0
AnchorPoint: "Anchor-0" 484 1370 basechar 0
LayerCount: 2
Fore
SplineSet
48 0 m 1,0,-1
 48 53 l 1,1,2
 116 67 116 67 153 83.5 c 128,-1,3
 190 100 190 100 190 114 c 2,4,-1
 190 1145 l 2,5,6
 190 1157 190 1157 155 1175 c 128,-1,7
 120 1193 120 1193 48 1207 c 1,8,-1
 48 1260 l 1,9,-1
 889 1260 l 1,10,-1
 922 1233 l 1,11,12
 921 1207 921 1207 917 1173.5 c 128,-1,13
 913 1140 913 1140 907.5 1105.5 c 128,-1,14
 902 1071 902 1071 895.5 1040 c 128,-1,15
 889 1009 889 1009 883 990 c 1,16,-1
 826 990 l 1,17,18
 823 1082 823 1082 802.5 1121 c 128,-1,19
 782 1160 782 1160 744 1160 c 2,20,-1
 380 1160 l 1,21,-1
 380 735 l 1,22,-1
 752 735 l 1,23,-1
 783 705 l 1,24,25
 774 690 774 690 762 673 c 128,-1,26
 750 656 750 656 737 640 c 128,-1,27
 724 624 724 624 711.5 610.5 c 128,-1,28
 699 597 699 597 689 589 c 1,29,30
 674 604 674 604 657 614 c 128,-1,31
 640 624 640 624 617.5 631 c 128,-1,32
 595 638 595 638 564.5 641 c 128,-1,33
 534 644 534 644 492 644 c 2,34,-1
 380 644 l 1,35,-1
 380 114 l 2,36,37
 380 108 380 108 388.5 101 c 128,-1,38
 397 94 397 94 417.5 86.5 c 128,-1,39
 438 79 438 79 471 70.5 c 128,-1,40
 504 62 504 62 553 53 c 1,41,-1
 553 0 l 1,42,-1
 48 0 l 1,0,-1
EndSplineSet
EndChar

StartChar: G
Encoding: 71 71 42
Width: 1207
GlyphClass: 2
Flags: W
AnchorPoint: "Anchor-4" 1207 900 basechar 0
AnchorPoint: "Anchor-3" 646 -100 basechar 0
AnchorPoint: "Anchor-2" 625 0 basechar 0
AnchorPoint: "Anchor-1" 646 -100 basechar 0
AnchorPoint: "Anchor-0" 646 1370 basechar 0
LayerCount: 2
Fore
SplineSet
1060 1188 m 0,0,1
 1067 1183 1067 1183 1057 1163.5 c 128,-1,2
 1047 1144 1047 1144 1029.5 1121 c 128,-1,3
 1012 1098 1012 1098 992 1075.5 c 128,-1,4
 972 1053 972 1053 959 1041 c 1,5,-1
 916 1050 l 1,6,7
 883 1087 883 1087 848.5 1111 c 128,-1,8
 814 1135 814 1135 776.5 1149.5 c 128,-1,9
 739 1164 739 1164 697 1169.5 c 128,-1,10
 655 1175 655 1175 608 1175 c 0,11,12
 583 1175 583 1175 547 1164 c 128,-1,13
 511 1153 511 1153 471.5 1128 c 128,-1,14
 432 1103 432 1103 393 1062 c 128,-1,15
 354 1021 354 1021 323 961.5 c 128,-1,16
 292 902 292 902 272.5 821.5 c 128,-1,17
 253 741 253 741 253 637 c 0,18,19
 253 500 253 500 288 399.5 c 128,-1,20
 323 299 323 299 380 233 c 128,-1,21
 437 167 437 167 509 135 c 128,-1,22
 581 103 581 103 655 103 c 0,23,24
 723 103 723 103 778 116 c 128,-1,25
 833 129 833 129 878 153 c 1,26,-1
 878 480 l 2,27,28
 878 491 878 491 870.5 501.5 c 128,-1,29
 863 512 863 512 842 522 c 128,-1,30
 821 532 821 532 783.5 542 c 128,-1,31
 746 552 746 552 687 562 c 1,32,-1
 687 615 l 1,33,-1
 1160 615 l 1,34,-1
 1160 562 l 1,35,36
 1103 548 1103 548 1080.5 525.5 c 128,-1,37
 1058 503 1058 503 1058 480 c 2,38,-1
 1058 159 l 1,39,40
 984 98 984 98 923.5 61 c 128,-1,41
 863 24 863 24 811.5 3.5 c 128,-1,42
 760 -17 760 -17 714 -23.5 c 128,-1,43
 668 -30 668 -30 623 -30 c 0,44,45
 520 -30 520 -30 420 7.5 c 128,-1,46
 320 45 320 45 241 121.5 c 128,-1,47
 162 198 162 198 113.5 312.5 c 128,-1,48
 65 427 65 427 65 582 c 0,49,50
 65 748 65 748 118 879.5 c 128,-1,51
 171 1011 171 1011 262.5 1102.5 c 128,-1,52
 354 1194 354 1194 477.5 1242 c 128,-1,53
 601 1290 601 1290 742 1290 c 0,54,55
 775 1290 775 1290 816.5 1283 c 128,-1,56
 858 1276 858 1276 901.5 1263 c 128,-1,57
 945 1250 945 1250 986.5 1231 c 128,-1,58
 1028 1212 1028 1212 1060 1188 c 0,0,1
EndSplineSet
EndChar

StartChar: H
Encoding: 72 72 43
Width: 1359
GlyphClass: 2
Flags: W
AnchorPoint: "Anchor-4" 1359 900 basechar 0
AnchorPoint: "Anchor-3" 670 -100 basechar 0
AnchorPoint: "Anchor-2" 272 0 basechar 0
AnchorPoint: "Anchor-1" 670 -100 basechar 0
AnchorPoint: "Anchor-0" 670 1370 basechar 0
LayerCount: 2
Fore
SplineSet
48 0 m 1,0,-1
 48 53 l 1,1,2
 116 67 116 67 153 83.5 c 128,-1,3
 190 100 190 100 190 114 c 2,4,-1
 190 1145 l 2,5,6
 190 1157 190 1157 155 1175 c 128,-1,7
 120 1193 120 1193 48 1207 c 1,8,-1
 48 1260 l 1,9,-1
 523 1260 l 1,10,-1
 523 1207 l 1,11,12
 455 1193 455 1193 417.5 1176 c 128,-1,13
 380 1159 380 1159 380 1145 c 2,14,-1
 380 710 l 1,15,-1
 960 710 l 1,16,-1
 960 1145 l 2,17,18
 960 1157 960 1157 925 1175 c 128,-1,19
 890 1193 890 1193 818 1207 c 1,20,-1
 818 1260 l 1,21,-1
 1293 1260 l 1,22,-1
 1293 1207 l 1,23,24
 1225 1193 1225 1193 1187.5 1176 c 128,-1,25
 1150 1159 1150 1159 1150 1145 c 2,26,-1
 1150 114 l 2,27,28
 1150 102 1150 102 1185.5 84.5 c 128,-1,29
 1221 67 1221 67 1293 53 c 1,30,-1
 1293 0 l 1,31,-1
 818 0 l 1,32,-1
 818 53 l 1,33,34
 886 67 886 67 923 83.5 c 128,-1,35
 960 100 960 100 960 114 c 2,36,-1
 960 610 l 1,37,-1
 380 610 l 1,38,-1
 380 114 l 2,39,40
 380 102 380 102 415 84.5 c 128,-1,41
 450 67 450 67 523 53 c 1,42,-1
 523 0 l 1,43,-1
 48 0 l 1,0,-1
EndSplineSet
EndChar

StartChar: I
Encoding: 73 73 44
Width: 630
GlyphClass: 2
Flags: W
AnchorPoint: "Anchor-4" 630 900 basechar 0
AnchorPoint: "Anchor-3" 358 0 basechar 0
AnchorPoint: "Anchor-2" 305 0 basechar 0
AnchorPoint: "Anchor-1" 305 -100 basechar 0
AnchorPoint: "Anchor-0" 305 1370 basechar 0
LayerCount: 2
Fore
SplineSet
68 0 m 1,0,-1
 68 53 l 1,1,2
 136 67 136 67 173 83.5 c 128,-1,3
 210 100 210 100 210 114 c 2,4,-1
 210 1145 l 2,5,6
 210 1157 210 1157 175 1175 c 128,-1,7
 140 1193 140 1193 68 1207 c 1,8,-1
 68 1260 l 1,9,-1
 543 1260 l 1,10,-1
 543 1207 l 1,11,12
 475 1193 475 1193 437.5 1176 c 128,-1,13
 400 1159 400 1159 400 1145 c 2,14,-1
 400 114 l 2,15,16
 400 102 400 102 435.5 84.5 c 128,-1,17
 471 67 471 67 543 53 c 1,18,-1
 543 0 l 1,19,-1
 68 0 l 1,0,-1
EndSplineSet
EndChar

StartChar: J
Encoding: 74 74 45
Width: 645
GlyphClass: 2
Flags: W
AnchorPoint: "Anchor-4" 645 900 basechar 0
AnchorPoint: "Anchor-3" 338 -600 basechar 0
AnchorPoint: "Anchor-2" 338 -600 basechar 0
AnchorPoint: "Anchor-1" 338 -600 basechar 0
AnchorPoint: "Anchor-0" 338 1370 basechar 0
LayerCount: 2
Fore
SplineSet
578 1207 m 1,0,1
 510 1193 510 1193 472.5 1176 c 128,-1,2
 435 1159 435 1159 435 1145 c 2,3,-1
 435 198 l 2,4,5
 435 82 435 82 417 2.5 c 128,-1,6
 399 -77 399 -77 369 -133 c 128,-1,7
 339 -189 339 -189 301 -226.5 c 128,-1,8
 263 -264 263 -264 224 -296 c 0,9,10
 197 -318 197 -318 164 -336 c 128,-1,11
 131 -354 131 -354 97 -366.5 c 128,-1,12
 63 -379 63 -379 31 -386 c 128,-1,13
 -1 -393 -1 -393 -25 -393 c 0,14,15
 -60 -393 -60 -393 -94 -383 c 128,-1,16
 -128 -373 -128 -373 -155 -359.5 c 128,-1,17
 -182 -346 -182 -346 -198.5 -331.5 c 128,-1,18
 -215 -317 -215 -317 -215 -308 c 256,19,20
 -215 -299 -215 -299 -199.5 -281 c 128,-1,21
 -184 -263 -184 -263 -162.5 -244 c 128,-1,22
 -141 -225 -141 -225 -118.5 -209 c 128,-1,23
 -96 -193 -96 -193 -82 -188 c 1,24,25
 -54 -208 -54 -208 -31.5 -221 c 128,-1,26
 -9 -234 -9 -234 11 -241.5 c 128,-1,27
 31 -249 31 -249 49.5 -252 c 128,-1,28
 68 -255 68 -255 87 -255 c 0,29,30
 113 -255 113 -255 141 -239.5 c 128,-1,31
 169 -224 169 -224 192 -182 c 128,-1,32
 215 -140 215 -140 230 -66 c 128,-1,33
 245 8 245 8 245 126 c 2,34,-1
 245 1145 l 2,35,36
 245 1151 245 1151 237.5 1158 c 128,-1,37
 230 1165 230 1165 209 1173 c 128,-1,38
 188 1181 188 1181 150.5 1189.5 c 128,-1,39
 113 1198 113 1198 53 1207 c 1,40,-1
 53 1260 l 1,41,-1
 578 1260 l 1,42,-1
 578 1207 l 1,0,1
EndSplineSet
EndChar

StartChar: K
Encoding: 75 75 46
Width: 1212
GlyphClass: 2
Flags: W
AnchorPoint: "Anchor-4" 1212 900 basechar 0
AnchorPoint: "Anchor-3" 626 -100 basechar 0
AnchorPoint: "Anchor-2" 279 0 basechar 0
AnchorPoint: "Anchor-1" 626 -100 basechar 0
AnchorPoint: "Anchor-0" 603 1370 basechar 0
LayerCount: 2
Fore
SplineSet
48 0 m 1,0,-1
 48 53 l 1,1,2
 116 67 116 67 153 83.5 c 128,-1,3
 190 100 190 100 190 114 c 2,4,-1
 190 1145 l 2,5,6
 190 1157 190 1157 155 1175 c 128,-1,7
 120 1193 120 1193 48 1207 c 1,8,-1
 48 1260 l 1,9,-1
 523 1260 l 1,10,-1
 523 1207 l 1,11,12
 455 1193 455 1193 417.5 1176 c 128,-1,13
 380 1159 380 1159 380 1145 c 2,14,-1
 380 651 l 1,15,-1
 777 1118 l 2,16,17
 800 1145 800 1145 807 1161 c 128,-1,18
 814 1177 814 1177 805.5 1186 c 128,-1,19
 797 1195 797 1195 773 1199.5 c 128,-1,20
 749 1204 749 1204 710 1207 c 1,21,-1
 710 1260 l 1,22,-1
 1140 1260 l 1,23,-1
 1140 1207 l 1,24,25
 1108 1203 1108 1203 1084 1199 c 128,-1,26
 1060 1195 1060 1195 1041 1188.5 c 128,-1,27
 1022 1182 1022 1182 1006 1172 c 128,-1,28
 990 1162 990 1162 975 1145 c 2,29,-1
 540 673 l 1,30,-1
 1023 140 l 2,31,32
 1057 102 1057 102 1101 95.5 c 128,-1,33
 1145 89 1145 89 1197 95 c 1,34,-1
 1204 42 l 1,35,36
 1175 33 1175 33 1143 23 c 128,-1,37
 1111 13 1111 13 1079.5 4.5 c 128,-1,38
 1048 -4 1048 -4 1019 -9 c 128,-1,39
 990 -14 990 -14 966 -14 c 0,40,41
 937 -14 937 -14 914.5 -5 c 128,-1,42
 892 4 892 4 872 29 c 2,43,-1
 380 634 l 1,44,-1
 380 114 l 2,45,46
 380 102 380 102 415 84.5 c 128,-1,47
 450 67 450 67 523 53 c 1,48,-1
 523 0 l 1,49,-1
 48 0 l 1,0,-1
EndSplineSet
EndChar

StartChar: L
Encoding: 76 76 47
Width: 998
GlyphClass: 2
Flags: W
AnchorPoint: "Anchor-4" 773 900 basechar 0
AnchorPoint: "Anchor-3" 508 -100 basechar 0
AnchorPoint: "Anchor-2" 508 0 basechar 0
AnchorPoint: "Anchor-1" 508 -100 basechar 0
AnchorPoint: "Anchor-0" 477 1370 basechar 0
LayerCount: 2
Fore
SplineSet
969 264 m 1,0,1
 965 221 965 221 959.5 180 c 128,-1,2
 954 139 954 139 948.5 103.5 c 128,-1,3
 943 68 943 68 937.5 41.5 c 128,-1,4
 932 15 932 15 928 0 c 1,5,-1
 48 0 l 1,6,-1
 48 53 l 1,7,8
 116 67 116 67 153 83.5 c 128,-1,9
 190 100 190 100 190 114 c 2,10,-1
 190 1145 l 2,11,12
 190 1157 190 1157 155 1175 c 128,-1,13
 120 1193 120 1193 48 1207 c 1,14,-1
 48 1260 l 1,15,-1
 523 1260 l 1,16,-1
 523 1207 l 1,17,18
 455 1193 455 1193 417.5 1176 c 128,-1,19
 380 1159 380 1159 380 1145 c 2,20,-1
 380 174 l 2,21,22
 380 156 380 156 388.5 142.5 c 128,-1,23
 397 129 397 129 418 119.5 c 128,-1,24
 439 110 439 110 475 105 c 128,-1,25
 511 100 511 100 566 100 c 2,26,-1
 699 100 l 2,27,28
 745 100 745 100 776.5 107 c 128,-1,29
 808 114 808 114 832 134 c 128,-1,30
 856 154 856 154 875.5 190 c 128,-1,31
 895 226 895 226 916 285 c 1,32,-1
 969 264 l 1,0,1
EndSplineSet
EndChar

StartChar: M
Encoding: 77 77 48
Width: 1679
GlyphClass: 2
Flags: W
AnchorPoint: "Anchor-4" 1679 900 basechar 0
AnchorPoint: "Anchor-3" 829 -100 basechar 0
AnchorPoint: "Anchor-2" 829 -100 basechar 0
AnchorPoint: "Anchor-1" 829 -100 basechar 0
AnchorPoint: "Anchor-0" 829 1370 basechar 0
LayerCount: 2
Fore
SplineSet
1578 1207 m 1,0,1
 1551 1207 1551 1207 1516 1198 c 128,-1,2
 1481 1189 1481 1189 1445 1174 c 1,3,-1
 1455 114 l 2,4,5
 1455 102 1455 102 1491.5 84.5 c 128,-1,6
 1528 67 1528 67 1600 53 c 1,7,-1
 1600 0 l 1,8,-1
 1123 0 l 1,9,-1
 1123 53 l 1,10,11
 1191 67 1191 67 1233 83.5 c 128,-1,12
 1275 100 1275 100 1275 114 c 2,13,-1
 1266 1007 l 1,14,-1
 833 0 l 1,15,-1
 769 0 l 1,16,-1
 334 1003 l 1,17,-1
 325 114 l 2,18,19
 325 102 325 102 360.5 84.5 c 128,-1,20
 396 67 396 67 468 53 c 1,21,-1
 468 0 l 1,22,-1
 58 0 l 1,23,-1
 58 53 l 1,24,25
 127 67 127 67 163.5 83.5 c 128,-1,26
 200 100 200 100 200 114 c 2,27,-1
 210 1169 l 1,28,29
 173 1190 173 1190 135 1198.5 c 128,-1,30
 97 1207 97 1207 68 1207 c 1,31,-1
 68 1260 l 1,32,-1
 374 1260 l 2,33,34
 384 1260 384 1260 391 1257 c 128,-1,35
 398 1254 398 1254 405 1245 c 128,-1,36
 412 1236 412 1236 420 1219.5 c 128,-1,37
 428 1203 428 1203 440 1176 c 2,38,-1
 828 297 l 1,39,-1
 1208 1176 l 2,40,41
 1221 1206 1221 1206 1229.5 1223 c 128,-1,42
 1238 1240 1238 1240 1244.5 1248 c 128,-1,43
 1251 1256 1251 1256 1258 1258 c 128,-1,44
 1265 1260 1265 1260 1274 1260 c 2,45,-1
 1578 1260 l 1,46,-1
 1578 1207 l 1,0,1
EndSplineSet
EndChar

StartChar: N
Encoding: 78 78 49
Width: 1339
GlyphClass: 2
Flags: W
AnchorPoint: "Anchor-4" 1339 900 basechar 0
AnchorPoint: "Anchor-3" 670 -100 basechar 0
AnchorPoint: "Anchor-2" 1085 0 basechar 0
AnchorPoint: "Anchor-1" 670 -100 basechar 0
AnchorPoint: "Anchor-0" 670 1370 basechar 0
LayerCount: 2
Fore
SplineSet
48 0 m 1,0,-1
 48 53 l 1,1,2
 122 62 122 62 156 81 c 128,-1,3
 190 100 190 100 190 114 c 2,4,-1
 190 1138 l 1,5,6
 157 1168 157 1168 121.5 1184.5 c 128,-1,7
 86 1201 86 1201 48 1207 c 1,8,-1
 48 1260 l 1,9,-1
 282 1260 l 2,10,11
 297 1260 297 1260 306.5 1257.5 c 128,-1,12
 316 1255 316 1255 326 1247 c 128,-1,13
 336 1239 336 1239 347.5 1223.5 c 128,-1,14
 359 1208 359 1208 378 1182 c 2,15,-1
 1020 295 l 1,16,-1
 1020 1145 l 2,17,18
 1020 1151 1020 1151 1013 1159.5 c 128,-1,19
 1006 1168 1006 1168 989.5 1176.5 c 128,-1,20
 973 1185 973 1185 945.5 1193 c 128,-1,21
 918 1201 918 1201 878 1207 c 1,22,-1
 878 1260 l 1,23,-1
 1293 1260 l 1,24,-1
 1293 1207 l 1,25,26
 1221 1197 1221 1197 1185.5 1178 c 128,-1,27
 1150 1159 1150 1159 1150 1145 c 2,28,-1
 1150 -30 l 1,29,30
 1085 -23 1085 -23 1046.5 -3.5 c 128,-1,31
 1008 16 1008 16 991 39 c 2,32,-1
 320 969 l 1,33,-1
 320 114 l 2,34,35
 320 108 320 108 328 99.5 c 128,-1,36
 336 91 336 91 353 82.5 c 128,-1,37
 370 74 370 74 397 66 c 128,-1,38
 424 58 424 58 463 53 c 1,39,-1
 463 0 l 1,40,-1
 48 0 l 1,0,-1
EndSplineSet
EndChar

StartChar: O
Encoding: 79 79 50
Width: 1244
GlyphClass: 2
Flags: W
AnchorPoint: "Anchor-4" 1163 900 basechar 0
AnchorPoint: "Anchor-3" 685 0 basechar 0
AnchorPoint: "Anchor-2" 592 0 basechar 0
AnchorPoint: "Anchor-1" 623 -100 basechar 0
AnchorPoint: "Anchor-0" 623 1370 basechar 0
LayerCount: 2
Fore
SplineSet
971 629 m 0,0,1
 971 698 971 698 959 765 c 128,-1,2
 947 832 947 832 924.5 892 c 128,-1,3
 902 952 902 952 870 1003 c 128,-1,4
 838 1054 838 1054 797 1091 c 128,-1,5
 756 1128 756 1128 707.5 1149 c 128,-1,6
 659 1170 659 1170 604 1170 c 0,7,8
 521 1170 521 1170 455.5 1133 c 128,-1,9
 390 1096 390 1096 345 1027.5 c 128,-1,10
 300 959 300 959 276.5 861 c 128,-1,11
 253 763 253 763 253 641 c 0,12,13
 253 529 253 529 282 429.5 c 128,-1,14
 311 330 311 330 360.5 256 c 128,-1,15
 410 182 410 182 476.5 138.5 c 128,-1,16
 543 95 543 95 617 95 c 0,17,18
 694 95 694 95 759 129 c 128,-1,19
 824 163 824 163 871 230 c 128,-1,20
 918 297 918 297 944.5 397 c 128,-1,21
 971 497 971 497 971 629 c 0,0,1
1158 647 m 0,22,23
 1158 511 1158 511 1112 388.5 c 128,-1,24
 1066 266 1066 266 987 173 c 128,-1,25
 908 80 908 80 804 25 c 128,-1,26
 700 -30 700 -30 583 -30 c 0,27,28
 460 -30 460 -30 364 23 c 128,-1,29
 268 76 268 76 201.5 165 c 128,-1,30
 135 254 135 254 100 370 c 128,-1,31
 65 486 65 486 65 612 c 0,32,33
 65 748 65 748 109 871 c 128,-1,34
 153 994 153 994 230.5 1087 c 128,-1,35
 308 1180 308 1180 413 1235 c 128,-1,36
 518 1290 518 1290 641 1290 c 0,37,38
 767 1290 767 1290 864 1235.5 c 128,-1,39
 961 1181 961 1181 1026 1091 c 128,-1,40
 1091 1001 1091 1001 1124.5 885 c 128,-1,41
 1158 769 1158 769 1158 647 c 0,22,23
EndSplineSet
EndChar

StartChar: P
Encoding: 80 80 51
Width: 1101
GlyphClass: 2
Flags: W
AnchorPoint: "Anchor-4" 1101 900 basechar 0
AnchorPoint: "Anchor-3" 527 -100 basechar 0
AnchorPoint: "Anchor-2" 527 -100 basechar 0
AnchorPoint: "Anchor-1" 527 -100 basechar 0
AnchorPoint: "Anchor-0" 527 1370 basechar 0
LayerCount: 2
Fore
SplineSet
48 0 m 1,0,-1
 48 53 l 1,1,2
 116 67 116 67 153 83.5 c 128,-1,3
 190 100 190 100 190 114 c 2,4,-1
 190 1180 l 1,5,6
 152 1175 152 1175 116.5 1169.5 c 128,-1,7
 81 1164 81 1164 48 1158 c 1,8,-1
 37 1230 l 1,9,10
 87 1243 87 1243 147 1254 c 128,-1,11
 207 1265 207 1265 271 1273 c 128,-1,12
 335 1281 335 1281 401 1285.5 c 128,-1,13
 467 1290 467 1290 530 1290 c 0,14,15
 641 1290 641 1290 730.5 1267 c 128,-1,16
 820 1244 820 1244 884 1199 c 128,-1,17
 948 1154 948 1154 982.5 1088 c 128,-1,18
 1017 1022 1017 1022 1017 936 c 0,19,20
 1017 867 1017 867 997.5 810 c 128,-1,21
 978 753 978 753 945.5 708 c 128,-1,22
 913 663 913 663 871 629.5 c 128,-1,23
 829 596 829 596 783 574 c 128,-1,24
 737 552 737 552 690.5 541 c 128,-1,25
 644 530 644 530 603 530 c 0,26,27
 557 530 557 530 515.5 537.5 c 128,-1,28
 474 545 474 545 440 560 c 1,29,-1
 414 645 l 1,30,31
 456 626 456 626 492 620.5 c 128,-1,32
 528 615 528 615 563 615 c 0,33,34
 608 615 608 615 655.5 632.5 c 128,-1,35
 703 650 703 650 742 684.5 c 128,-1,36
 781 719 781 719 805.5 771.5 c 128,-1,37
 830 824 830 824 830 895 c 0,38,39
 830 973 830 973 802.5 1030.5 c 128,-1,40
 775 1088 775 1088 727 1125.5 c 128,-1,41
 679 1163 679 1163 613.5 1181 c 128,-1,42
 548 1199 548 1199 473 1199 c 0,43,44
 426 1199 426 1199 380 1196 c 1,45,-1
 380 114 l 2,46,47
 380 108 380 108 387.5 101 c 128,-1,48
 395 94 395 94 414.5 86 c 128,-1,49
 434 78 434 78 467.5 70 c 128,-1,50
 501 62 501 62 553 53 c 1,51,-1
 553 0 l 1,52,-1
 48 0 l 1,0,-1
EndSplineSet
EndChar

StartChar: Q
Encoding: 81 81 52
Width: 1244
GlyphClass: 2
Flags: W
AnchorPoint: "Anchor-4" 1244 900 basechar 0
AnchorPoint: "Anchor-3" 621 -270 basechar 0
AnchorPoint: "Anchor-2" 621 -270 basechar 0
AnchorPoint: "Anchor-1" 621 -270 basechar 0
AnchorPoint: "Anchor-0" 621 1370 basechar 0
LayerCount: 2
Fore
SplineSet
971 629 m 0,0,1
 971 698 971 698 959 765 c 128,-1,2
 947 832 947 832 924.5 892 c 128,-1,3
 902 952 902 952 870 1003 c 128,-1,4
 838 1054 838 1054 797 1091 c 128,-1,5
 756 1128 756 1128 707.5 1149 c 128,-1,6
 659 1170 659 1170 604 1170 c 0,7,8
 521 1170 521 1170 455.5 1133 c 128,-1,9
 390 1096 390 1096 345 1027.5 c 128,-1,10
 300 959 300 959 276.5 861 c 128,-1,11
 253 763 253 763 253 641 c 0,12,13
 253 529 253 529 282 429.5 c 128,-1,14
 311 330 311 330 360.5 256 c 128,-1,15
 410 182 410 182 476.5 138.5 c 128,-1,16
 543 95 543 95 617 95 c 0,17,18
 694 95 694 95 759 129 c 128,-1,19
 824 163 824 163 871 230 c 128,-1,20
 918 297 918 297 944.5 397 c 128,-1,21
 971 497 971 497 971 629 c 0,0,1
1327 -120 m 1,22,23
 1303 -164 1303 -164 1277 -199.5 c 128,-1,24
 1251 -235 1251 -235 1226 -260 c 128,-1,25
 1201 -285 1201 -285 1179 -299 c 128,-1,26
 1157 -313 1157 -313 1142 -313 c 0,27,28
 1099 -313 1099 -313 1056.5 -298.5 c 128,-1,29
 1014 -284 1014 -284 971.5 -260 c 128,-1,30
 929 -236 929 -236 886.5 -205.5 c 128,-1,31
 844 -175 844 -175 801.5 -143 c 128,-1,32
 759 -111 759 -111 716.5 -80.5 c 128,-1,33
 674 -50 674 -50 632 -27 c 1,34,35
 608 -30 608 -30 583 -30 c 0,36,37
 468 -30 468 -30 373 21.5 c 128,-1,38
 278 73 278 73 209.5 160.5 c 128,-1,39
 141 248 141 248 103 364.5 c 128,-1,40
 65 481 65 481 65 612 c 0,41,42
 65 748 65 748 109 871 c 128,-1,43
 153 994 153 994 230.5 1087 c 128,-1,44
 308 1180 308 1180 413 1235 c 128,-1,45
 518 1290 518 1290 641 1290 c 0,46,47
 767 1290 767 1290 864 1235.5 c 128,-1,48
 961 1181 961 1181 1026 1091 c 128,-1,49
 1091 1001 1091 1001 1124.5 885 c 128,-1,50
 1158 769 1158 769 1158 647 c 0,51,52
 1158 542 1158 542 1130 445 c 128,-1,53
 1102 348 1102 348 1052.5 265.5 c 128,-1,54
 1003 183 1003 183 935.5 119 c 128,-1,55
 868 55 868 55 788 17 c 1,56,57
 837 -6 837 -6 884.5 -34.5 c 128,-1,58
 932 -63 932 -63 977.5 -89 c 128,-1,59
 1023 -115 1023 -115 1066 -132.5 c 128,-1,60
 1109 -150 1109 -150 1148 -150 c 0,61,62
 1160 -150 1160 -150 1173.5 -146.5 c 128,-1,63
 1187 -143 1187 -143 1203.5 -134.5 c 128,-1,64
 1220 -126 1220 -126 1241.5 -111.5 c 128,-1,65
 1263 -97 1263 -97 1293 -75 c 1,66,-1
 1327 -120 l 1,22,23
EndSplineSet
EndChar

StartChar: R
Encoding: 82 82 53
Width: 1179
GlyphClass: 2
Flags: W
AnchorPoint: "Anchor-4" 1179 900 basechar 0
AnchorPoint: "Anchor-3" 533 -100 basechar 0
AnchorPoint: "Anchor-2" 280 0 basechar 0
AnchorPoint: "Anchor-1" 533 -100 basechar 0
AnchorPoint: "Anchor-0" 533 1370 basechar 0
LayerCount: 2
Fore
SplineSet
450 1199 m 0,0,1
 433 1199 433 1199 415.5 1198.5 c 128,-1,2
 398 1198 398 1198 380 1197 c 1,3,-1
 380 696 l 1,4,5
 407 691 407 691 427 690 c 128,-1,6
 447 689 447 689 469 689 c 0,7,8
 620 689 620 689 697.5 758 c 128,-1,9
 775 827 775 827 775 956 c 0,10,11
 775 1008 775 1008 757.5 1052.5 c 128,-1,12
 740 1097 740 1097 701 1129.5 c 128,-1,13
 662 1162 662 1162 600 1180.5 c 128,-1,14
 538 1199 538 1199 450 1199 c 0,0,1
48 0 m 1,15,-1
 48 53 l 1,16,17
 116 67 116 67 153 83.5 c 128,-1,18
 190 100 190 100 190 114 c 2,19,-1
 190 1178 l 1,20,21
 154 1173 154 1173 118.5 1168 c 128,-1,22
 83 1163 83 1163 48 1158 c 1,23,-1
 37 1230 l 1,24,25
 86 1242 86 1242 137 1252.5 c 128,-1,26
 188 1263 188 1263 243.5 1271.5 c 128,-1,27
 299 1280 299 1280 360 1285 c 128,-1,28
 421 1290 421 1290 489 1290 c 0,29,30
 612 1290 612 1290 701 1267 c 128,-1,31
 790 1244 790 1244 848 1203 c 128,-1,32
 906 1162 906 1162 934 1106.5 c 128,-1,33
 962 1051 962 1051 962 987 c 0,34,35
 962 916 962 916 941.5 858 c 128,-1,36
 921 800 921 800 884 754 c 128,-1,37
 847 708 847 708 795 675 c 128,-1,38
 743 642 743 642 681 623 c 1,39,-1
 988 154 l 1,40,41
 1003 133 1003 133 1019.5 120 c 128,-1,42
 1036 107 1036 107 1056.5 100.5 c 128,-1,43
 1077 94 1077 94 1102.5 93 c 128,-1,44
 1128 92 1128 92 1162 95 c 1,45,-1
 1174 42 l 1,46,47
 1141 31 1141 31 1106 21 c 128,-1,48
 1071 11 1071 11 1038.5 3 c 128,-1,49
 1006 -5 1006 -5 977.5 -9.5 c 128,-1,50
 949 -14 949 -14 930 -14 c 0,51,52
 901 -14 901 -14 873.5 2 c 128,-1,53
 846 18 846 18 832 41 c 1,54,-1
 535 597 l 1,55,56
 523 596 523 596 510.5 595.5 c 128,-1,57
 498 595 498 595 486 595 c 0,58,59
 460 595 460 595 434 597.5 c 128,-1,60
 408 600 408 600 380 606 c 1,61,-1
 380 114 l 2,62,63
 380 102 380 102 415 84.5 c 128,-1,64
 450 67 450 67 523 53 c 1,65,-1
 523 0 l 1,66,-1
 48 0 l 1,15,-1
EndSplineSet
EndChar

StartChar: S
Encoding: 83 83 54
Width: 1000
GlyphClass: 2
Flags: W
AnchorPoint: "Anchor-4" 1000 900 basechar 0
AnchorPoint: "Anchor-3" 512 -100 basechar 0
AnchorPoint: "Anchor-2" 491 0 basechar 0
AnchorPoint: "Anchor-1" 512 -100 basechar 0
AnchorPoint: "Anchor-0" 512 1370 basechar 0
LayerCount: 2
Fore
SplineSet
913 377 m 0,0,1
 913 332 913 332 900.5 285 c 128,-1,2
 888 238 888 238 862.5 192.5 c 128,-1,3
 837 147 837 147 799 106.5 c 128,-1,4
 761 66 761 66 709.5 36 c 128,-1,5
 658 6 658 6 593.5 -12 c 128,-1,6
 529 -30 529 -30 450 -30 c 0,7,8
 416 -30 416 -30 374.5 -23 c 128,-1,9
 333 -16 333 -16 289.5 -3.5 c 128,-1,10
 246 9 246 9 203.5 27 c 128,-1,11
 161 45 161 45 126 68 c 0,12,13
 119 72 119 72 115.5 104 c 128,-1,14
 112 136 112 136 112 179 c 128,-1,15
 112 222 112 222 116 267.5 c 128,-1,16
 120 313 120 313 129 344 c 1,17,-1
 180 339 l 1,18,19
 203 280 203 280 237 235 c 128,-1,20
 271 190 271 190 312.5 159.5 c 128,-1,21
 354 129 354 129 402 113.5 c 128,-1,22
 450 98 450 98 501 98 c 0,23,24
 546 98 546 98 590 114.5 c 128,-1,25
 634 131 634 131 669.5 160.5 c 128,-1,26
 705 190 705 190 726.5 230.5 c 128,-1,27
 748 271 748 271 748 319 c 0,28,29
 748 380 748 380 721 424 c 128,-1,30
 694 468 694 468 650 502.5 c 128,-1,31
 606 537 606 537 550 564.5 c 128,-1,32
 494 592 494 592 435 619 c 128,-1,33
 376 646 376 646 320 676.5 c 128,-1,34
 264 707 264 707 220 746.5 c 128,-1,35
 176 786 176 786 149 839 c 128,-1,36
 122 892 122 892 122 965 c 0,37,38
 122 1012 122 1012 145 1068.5 c 128,-1,39
 168 1125 168 1125 218 1174.5 c 128,-1,40
 268 1224 268 1224 347.5 1257 c 128,-1,41
 427 1290 427 1290 541 1290 c 0,42,43
 589 1290 589 1290 637 1283 c 128,-1,44
 685 1276 685 1276 726 1264 c 128,-1,45
 767 1252 767 1252 800 1235 c 128,-1,46
 833 1218 833 1218 851 1198 c 1,47,48
 858 1192 858 1192 851 1171.5 c 128,-1,49
 844 1151 844 1151 830 1126.5 c 128,-1,50
 816 1102 816 1102 799 1079 c 128,-1,51
 782 1056 782 1056 770 1045 c 1,52,-1
 724 1051 l 1,53,54
 698 1088 698 1088 668 1114 c 128,-1,55
 638 1140 638 1140 607 1155.5 c 128,-1,56
 576 1171 576 1171 544.5 1178 c 128,-1,57
 513 1185 513 1185 485 1185 c 0,58,59
 431 1185 431 1185 393 1169.5 c 128,-1,60
 355 1154 355 1154 330 1129.5 c 128,-1,61
 305 1105 305 1105 293.5 1075 c 128,-1,62
 282 1045 282 1045 282 1017 c 0,63,64
 282 970 282 970 309 933.5 c 128,-1,65
 336 897 336 897 380.5 866.5 c 128,-1,66
 425 836 425 836 481.5 808 c 128,-1,67
 538 780 538 780 597.5 750.5 c 128,-1,68
 657 721 657 721 713.5 686.5 c 128,-1,69
 770 652 770 652 814.5 608 c 128,-1,70
 859 564 859 564 886 507.5 c 128,-1,71
 913 451 913 451 913 377 c 0,0,1
EndSplineSet
EndChar

StartChar: T
Encoding: 84 84 55
Width: 1148
GlyphClass: 2
Flags: W
AnchorPoint: "Anchor-4" 1148 900 basechar 0
AnchorPoint: "Anchor-3" 556 -100 basechar 0
AnchorPoint: "Anchor-2" 560 0 basechar 0
AnchorPoint: "Anchor-1" 556 -100 basechar 0
AnchorPoint: "Anchor-0" 556 1370 basechar 0
LayerCount: 2
Fore
SplineSet
305 0 m 1,0,-1
 305 53 l 1,1,2
 351 62 351 62 382 72 c 128,-1,3
 413 82 413 82 431.5 91.5 c 128,-1,4
 450 101 450 101 458 109.5 c 128,-1,5
 466 118 466 118 466 125 c 2,6,-1
 466 1160 l 1,7,-1
 182 1160 l 2,8,9
 167 1160 167 1160 154.5 1153 c 128,-1,10
 142 1146 142 1146 128.5 1125.5 c 128,-1,11
 115 1105 115 1105 99 1068.5 c 128,-1,12
 83 1032 83 1032 61 974 c 1,13,-1
 8 995 l 1,14,15
 10 1024 10 1024 14 1059.5 c 128,-1,16
 18 1095 18 1095 22.5 1130.5 c 128,-1,17
 27 1166 27 1166 32.5 1200 c 128,-1,18
 38 1234 38 1234 43 1260 c 1,19,-1
 1073 1260 l 1,20,-1
 1106 1233 l 1,21,22
 1105 1207 1105 1207 1102 1176.5 c 128,-1,23
 1099 1146 1099 1146 1094.5 1112.5 c 128,-1,24
 1090 1079 1090 1079 1084.5 1045 c 128,-1,25
 1079 1011 1079 1011 1073 980 c 1,26,-1
 1018 980 l 1,27,28
 1008 1026 1008 1026 1001 1060 c 128,-1,29
 994 1094 994 1094 985 1116.5 c 128,-1,30
 976 1139 976 1139 962.5 1149.5 c 128,-1,31
 949 1160 949 1160 928 1160 c 2,32,-1
 656 1160 l 1,33,-1
 656 125 l 2,34,35
 656 119 656 119 664 110.5 c 128,-1,36
 672 102 672 102 691 92 c 128,-1,37
 710 82 710 82 741 72 c 128,-1,38
 772 62 772 62 818 53 c 1,39,-1
 818 0 l 1,40,-1
 305 0 l 1,0,-1
EndSplineSet
EndChar

StartChar: U
Encoding: 85 85 56
Width: 1349
GlyphClass: 2
Flags: W
AnchorPoint: "Anchor-4" 1340 900 basechar 0
AnchorPoint: "Anchor-3" 766 0 basechar 0
AnchorPoint: "Anchor-2" 682 0 basechar 0
AnchorPoint: "Anchor-1" 682 -100 basechar 0
AnchorPoint: "Anchor-0" 682 1370 basechar 0
LayerCount: 2
Fore
SplineSet
1288 1207 m 1,0,1
 1220 1193 1220 1193 1182.5 1176 c 128,-1,2
 1145 1159 1145 1159 1145 1145 c 2,3,-1
 1145 524 l 2,4,5
 1145 393 1145 393 1111.5 290 c 128,-1,6
 1078 187 1078 187 1016 116 c 128,-1,7
 954 45 954 45 866.5 7.5 c 128,-1,8
 779 -30 779 -30 671 -30 c 0,9,10
 568 -30 568 -30 480 -1.5 c 128,-1,11
 392 27 392 27 327.5 85.5 c 128,-1,12
 263 144 263 144 226.5 233 c 128,-1,13
 190 322 190 322 190 444 c 2,14,-1
 190 1145 l 2,15,16
 190 1157 190 1157 155 1175 c 128,-1,17
 120 1193 120 1193 48 1207 c 1,18,-1
 48 1260 l 1,19,-1
 523 1260 l 1,20,-1
 523 1207 l 1,21,22
 455 1193 455 1193 417.5 1176 c 128,-1,23
 380 1159 380 1159 380 1145 c 2,24,-1
 380 499 l 2,25,26
 380 307 380 307 463.5 201 c 128,-1,27
 547 95 547 95 718 95 c 0,28,29
 789 95 789 95 842 128.5 c 128,-1,30
 895 162 895 162 930 217 c 128,-1,31
 965 272 965 272 982.5 343 c 128,-1,32
 1000 414 1000 414 1000 488 c 2,33,-1
 1000 1145 l 2,34,35
 1000 1157 1000 1157 965 1175 c 128,-1,36
 930 1193 930 1193 858 1207 c 1,37,-1
 858 1260 l 1,38,-1
 1288 1260 l 1,39,-1
 1288 1207 l 1,0,1
EndSplineSet
EndChar

StartChar: V
Encoding: 86 86 57
Width: 1341
GlyphClass: 2
Flags: W
AnchorPoint: "Anchor-4" 1341 900 basechar 0
AnchorPoint: "Anchor-3" 614 0 basechar 0
AnchorPoint: "Anchor-2" 670 0 basechar 0
AnchorPoint: "Anchor-1" 660 -100 basechar 0
AnchorPoint: "Anchor-0" 670 1370 basechar 0
LayerCount: 2
Fore
SplineSet
1303 1207 m 1,0,1
 1235 1194 1235 1194 1196.5 1181.5 c 128,-1,2
 1158 1169 1158 1169 1148 1141 c 2,3,-1
 767 67 l 2,4,5
 759 45 759 45 738.5 28.5 c 128,-1,6
 718 12 718 12 693.5 0 c 128,-1,7
 669 -12 669 -12 644 -19 c 128,-1,8
 619 -26 619 -26 602 -30 c 1,9,-1
 157 1141 l 2,10,11
 147 1167 147 1167 114 1183 c 128,-1,12
 81 1199 81 1199 18 1207 c 1,13,-1
 18 1260 l 1,14,-1
 478 1260 l 1,15,-1
 478 1207 l 1,16,17
 398 1201 398 1201 369.5 1186.5 c 128,-1,18
 341 1172 341 1172 352 1143 c 2,19,-1
 696 231 l 1,20,-1
 1019 1141 l 2,21,22
 1030 1170 1030 1170 997 1183.5 c 128,-1,23
 964 1197 964 1197 882 1207 c 1,24,-1
 882 1260 l 1,25,-1
 1303 1260 l 1,26,-1
 1303 1207 l 1,0,1
EndSplineSet
EndChar

StartChar: W
Encoding: 87 87 58
Width: 1741
GlyphClass: 2
Flags: W
AnchorPoint: "Anchor-4" 1741 900 basechar 0
AnchorPoint: "Anchor-3" 866 -100 basechar 0
AnchorPoint: "Anchor-2" 866 -100 basechar 0
AnchorPoint: "Anchor-1" 866 -100 basechar 0
AnchorPoint: "Anchor-0" 866 1370 basechar 0
LayerCount: 2
Fore
SplineSet
1712 1207 m 1,0,1
 1668 1198 1668 1198 1639 1190 c 128,-1,2
 1610 1182 1610 1182 1593 1174.5 c 128,-1,3
 1576 1167 1576 1167 1568.5 1160 c 128,-1,4
 1561 1153 1561 1153 1560 1145 c 2,5,-1
 1331 59 l 2,6,7
 1326 38 1326 38 1309.5 22.5 c 128,-1,8
 1293 7 1293 7 1271.5 -3.5 c 128,-1,9
 1250 -14 1250 -14 1227.5 -20.5 c 128,-1,10
 1205 -27 1205 -27 1190 -30 c 1,11,-1
 859 922 l 1,12,-1
 572 59 l 2,13,14
 565 38 565 38 547.5 23 c 128,-1,15
 530 8 530 8 508 -2.5 c 128,-1,16
 486 -13 486 -13 462 -19.5 c 128,-1,17
 438 -26 438 -26 418 -30 c 1,18,-1
 158 1137 l 2,19,20
 153 1162 153 1162 122 1178 c 128,-1,21
 91 1194 91 1194 20 1207 c 1,22,-1
 20 1260 l 1,23,-1
 469 1260 l 1,24,-1
 469 1207 l 1,25,26
 420 1202 420 1202 392.5 1194.5 c 128,-1,27
 365 1187 365 1187 351.5 1178 c 128,-1,28
 338 1169 338 1169 336 1158.5 c 128,-1,29
 334 1148 334 1148 336 1137 c 2,30,-1
 525 295 l 1,31,-1
 839 1260 l 1,32,-1
 909 1260 l 1,33,-1
 1256 295 l 1,34,-1
 1435 1145 l 2,35,36
 1437 1157 1437 1157 1426 1166 c 128,-1,37
 1415 1175 1415 1175 1394 1182 c 128,-1,38
 1373 1189 1373 1189 1344 1195 c 128,-1,39
 1315 1201 1315 1201 1281 1207 c 1,40,-1
 1281 1260 l 1,41,-1
 1712 1260 l 1,42,-1
 1712 1207 l 1,0,1
EndSplineSet
EndChar

StartChar: X
Encoding: 88 88 59
Width: 1270
GlyphClass: 2
Flags: W
AnchorPoint: "Anchor-4" 1270 900 basechar 0
AnchorPoint: "Anchor-3" 635 -100 basechar 0
AnchorPoint: "Anchor-2" 635 -100 basechar 0
AnchorPoint: "Anchor-1" 635 -100 basechar 0
AnchorPoint: "Anchor-0" 635 1370 basechar 0
LayerCount: 2
Fore
SplineSet
763 0 m 1,0,-1
 763 53 l 1,1,2
 807 57 807 57 834 63.5 c 128,-1,3
 861 70 861 70 873 79.5 c 128,-1,4
 885 89 885 89 883.5 103 c 128,-1,5
 882 117 882 117 868 137 c 2,6,-1
 604 523 l 1,7,-1
 360 137 l 1,8,9
 331 93 331 93 359 76 c 128,-1,10
 387 59 387 59 479 53 c 1,11,-1
 479 0 l 1,12,-1
 29 0 l 1,13,-1
 29 53 l 1,14,15
 94 58 94 58 139.5 77 c 128,-1,16
 185 96 185 96 211 137 c 2,17,-1
 525 639 l 1,18,-1
 195 1123 l 2,19,20
 180 1145 180 1145 166 1159 c 128,-1,21
 152 1173 152 1173 134.5 1182 c 128,-1,22
 117 1191 117 1191 94.5 1196.5 c 128,-1,23
 72 1202 72 1202 39 1207 c 1,24,-1
 39 1260 l 1,25,-1
 520 1260 l 1,26,-1
 520 1207 l 1,27,28
 435 1199 435 1199 409 1182.5 c 128,-1,29
 383 1166 383 1166 413 1123 c 2,30,-1
 647 780 l 1,31,-1
 861 1123 l 2,32,33
 875 1146 875 1146 874.5 1160.5 c 128,-1,34
 874 1175 874 1175 859 1184.5 c 128,-1,35
 844 1194 844 1194 814.5 1199 c 128,-1,36
 785 1204 785 1204 740 1207 c 1,37,-1
 740 1260 l 1,38,-1
 1193 1260 l 1,39,-1
 1193 1207 l 1,40,41
 1157 1203 1157 1203 1128.5 1197.5 c 128,-1,42
 1100 1192 1100 1192 1078 1182.5 c 128,-1,43
 1056 1173 1056 1173 1039.5 1158.5 c 128,-1,44
 1023 1144 1023 1144 1010 1123 c 2,45,-1
 724 667 l 1,46,-1
 1086 137 l 2,47,48
 1101 116 1101 116 1116 101.5 c 128,-1,49
 1131 87 1131 87 1149.5 77.5 c 128,-1,50
 1168 68 1168 68 1190.5 62.5 c 128,-1,51
 1213 57 1213 57 1242 53 c 1,52,-1
 1242 0 l 1,53,-1
 763 0 l 1,0,-1
EndSplineSet
EndChar

StartChar: Y
Encoding: 89 89 60
Width: 1230
GlyphClass: 2
Flags: W
AnchorPoint: "Anchor-4" 1230 900 basechar 0
AnchorPoint: "Anchor-3" 612 -100 basechar 0
AnchorPoint: "Anchor-2" 612 -100 basechar 0
AnchorPoint: "Anchor-1" 612 -100 basechar 0
AnchorPoint: "Anchor-0" 612 1370 basechar 0
LayerCount: 2
Fore
SplineSet
355 0 m 1,0,-1
 355 53 l 1,1,2
 446 72 446 72 481.5 91.5 c 128,-1,3
 517 111 517 111 517 125 c 2,4,-1
 517 535 l 1,5,6
 480 616 480 616 434 702.5 c 128,-1,7
 388 789 388 789 340 871 c 128,-1,8
 292 953 292 953 246.5 1023 c 128,-1,9
 201 1093 201 1093 166 1141 c 0,10,11
 157 1152 157 1152 146 1161.5 c 128,-1,12
 135 1171 135 1171 117.5 1178.5 c 128,-1,13
 100 1186 100 1186 73 1190 c 128,-1,14
 46 1194 46 1194 4 1194 c 1,15,-1
 0 1247 l 1,16,17
 29 1251 29 1251 61.5 1255 c 128,-1,18
 94 1259 94 1259 125.5 1262.5 c 128,-1,19
 157 1266 157 1266 185 1268 c 128,-1,20
 213 1270 213 1270 234 1270 c 0,21,22
 258 1270 258 1270 280.5 1259.5 c 128,-1,23
 303 1249 303 1249 320 1229 c 1,24,25
 357 1180 357 1180 399 1115 c 128,-1,26
 441 1050 441 1050 483.5 977.5 c 128,-1,27
 526 905 526 905 566.5 828.5 c 128,-1,28
 607 752 607 752 642 680 c 1,29,-1
 899 1141 l 2,30,31
 914 1167 914 1167 889.5 1182 c 128,-1,32
 865 1197 865 1197 788 1207 c 1,33,-1
 788 1260 l 1,34,-1
 1191 1260 l 1,35,-1
 1191 1207 l 1,36,37
 1123 1194 1123 1194 1087.5 1180 c 128,-1,38
 1052 1166 1052 1166 1038 1141 c 2,39,-1
 707 536 l 1,40,-1
 707 125 l 2,41,42
 707 119 707 119 715 110.5 c 128,-1,43
 723 102 723 102 741.5 92 c 128,-1,44
 760 82 760 82 791.5 72 c 128,-1,45
 823 62 823 62 870 53 c 1,46,-1
 870 0 l 1,47,-1
 355 0 l 1,0,-1
EndSplineSet
EndChar

StartChar: Z
Encoding: 90 90 61
Width: 1086
GlyphClass: 2
Flags: W
AnchorPoint: "Anchor-4" 1086 900 basechar 0
AnchorPoint: "Anchor-3" 543 -100 basechar 0
AnchorPoint: "Anchor-2" 543 -100 basechar 0
AnchorPoint: "Anchor-1" 543 -100 basechar 0
AnchorPoint: "Anchor-0" 563 1370 basechar 0
LayerCount: 2
Fore
SplineSet
1009 313 m 1,0,1
 1007 281 1007 281 1005.5 239 c 128,-1,2
 1004 197 1004 197 1002.5 153.5 c 128,-1,3
 1001 110 1001 110 999.5 69.5 c 128,-1,4
 998 29 998 29 997 0 c 1,5,-1
 88 0 l 1,6,-1
 57 48 l 1,7,-1
 755 1150 l 1,8,-1
 319 1150 l 2,9,10
 303 1150 303 1150 283.5 1137 c 128,-1,11
 264 1124 264 1124 245.5 1097.5 c 128,-1,12
 227 1071 227 1071 210.5 1032 c 128,-1,13
 194 993 194 993 183 941 c 1,14,-1
 116 955 l 1,15,-1
 148 1276 l 1,16,17
 175 1270 175 1270 197.5 1266.5 c 128,-1,18
 220 1263 220 1263 241.5 1261.5 c 128,-1,19
 263 1260 263 1260 286 1260 c 2,20,-1
 971 1260 l 1,21,-1
 999 1215 l 1,22,-1
 306 110 l 1,23,-1
 807 110 l 2,24,25
 828 110 828 110 845 121.5 c 128,-1,26
 862 133 862 133 877.5 158.5 c 128,-1,27
 893 184 893 184 909 226 c 128,-1,28
 925 268 925 268 944 330 c 1,29,-1
 1009 313 l 1,0,1
EndSplineSet
EndChar

StartChar: bracketleft
Encoding: 91 91 62
Width: 651
Flags: W
LayerCount: 2
Fore
SplineSet
615 -242 m 1,0,1
 613 -252 613 -252 609 -264 c 2,2,-1
 601 -289 l 2,3,4
 597 -302 597 -302 592.5 -314 c 128,-1,5
 588 -326 588 -326 584 -335 c 1,6,-1
 135 -335 l 1,7,-1
 135 1600 l 1,8,-1
 578 1600 l 1,9,-1
 613 1572 l 1,10,11
 611 1560 611 1560 607 1545.5 c 128,-1,12
 603 1531 603 1531 599 1517.5 c 128,-1,13
 595 1504 595 1504 591 1492.5 c 128,-1,14
 587 1481 587 1481 584 1475 c 1,15,-1
 305 1475 l 1,16,-1
 305 -210 l 1,17,-1
 578 -210 l 1,18,-1
 615 -242 l 1,0,1
EndSplineSet
EndChar

StartChar: backslash
Encoding: 92 92 63
Width: 961
Flags: W
LayerCount: 2
Fore
SplineSet
873 -335 m 1,0,-1
 843 -325 l 2,1,2
 825 -319 825 -319 806.5 -311.5 c 128,-1,3
 788 -304 788 -304 771.5 -296.5 c 128,-1,4
 755 -289 755 -289 746 -282 c 1,5,-1
 50 1576 l 1,6,-1
 90 1600 l 1,7,8
 119 1592 119 1592 153 1579 c 128,-1,9
 187 1566 187 1566 215 1549 c 1,10,-1
 910 -308 l 1,11,-1
 873 -335 l 1,0,-1
EndSplineSet
EndChar

StartChar: bracketright
Encoding: 93 93 64
Width: 651
Flags: W
LayerCount: 2
Fore
SplineSet
73 -335 m 1,0,-1
 38 -304 l 1,1,2
 39 -292 39 -292 42.5 -278.5 c 128,-1,3
 46 -265 46 -265 50 -252 c 128,-1,4
 54 -239 54 -239 58.5 -227.5 c 128,-1,5
 63 -216 63 -216 66 -210 c 1,6,-1
 345 -210 l 1,7,-1
 345 1475 l 1,8,-1
 73 1475 l 1,9,-1
 36 1504 l 1,10,11
 39 1526 39 1526 49 1554.5 c 128,-1,12
 59 1583 59 1583 66 1600 c 1,13,-1
 515 1600 l 1,14,-1
 515 -335 l 1,15,-1
 73 -335 l 1,0,-1
EndSplineSet
EndChar

StartChar: asciicircum
Encoding: 94 94 65
Width: 1008
Flags: W
LayerCount: 2
Fore
SplineSet
907 635 m 1,0,1
 882 612 882 612 858.5 596.5 c 128,-1,2
 835 581 835 581 801 565 c 1,3,-1
 764 592 l 1,4,-1
 481 1315 l 1,5,-1
 231 635 l 1,6,7
 220 625 220 625 206 614.5 c 128,-1,8
 192 604 192 604 177 594.5 c 128,-1,9
 162 585 162 585 147.5 577.5 c 128,-1,10
 133 570 133 570 123 565 c 1,11,-1
 100 592 l 1,12,-1
 422 1462 l 1,13,14
 434 1474 434 1474 451.5 1486.5 c 128,-1,15
 469 1499 469 1499 487 1511 c 128,-1,16
 505 1523 505 1523 523 1533 c 128,-1,17
 541 1543 541 1543 555 1550 c 1,18,-1
 907 635 l 1,0,1
EndSplineSet
EndChar

StartChar: underscore
Encoding: 95 95 66
Width: 971
Flags: W
LayerCount: 2
Fore
SplineSet
910 -158 m 1,0,1
 908 -169 908 -169 904 -182 c 128,-1,2
 900 -195 900 -195 895 -208.5 c 128,-1,3
 890 -222 890 -222 885 -234.5 c 128,-1,4
 880 -247 880 -247 876 -256 c 1,5,-1
 86 -256 l 1,6,-1
 58 -227 l 1,7,8
 63 -207 63 -207 74 -179 c 128,-1,9
 85 -151 85 -151 94 -131 c 1,10,-1
 884 -131 l 1,11,-1
 910 -158 l 1,0,1
EndSplineSet
EndChar

StartChar: grave
Encoding: 96 96 67
Width: 653
Flags: W
LayerCount: 2
Fore
SplineSet
443 1081 m 1,0,1
 432 1072 432 1072 413 1061 c 128,-1,2
 394 1050 394 1050 377 1045 c 1,3,-1
 15 1422 l 1,4,-1
 39 1468 l 1,5,6
 49 1470 49 1470 72 1474.5 c 128,-1,7
 95 1479 95 1479 121.5 1483.5 c 128,-1,8
 148 1488 148 1488 173 1492 c 128,-1,9
 198 1496 198 1496 210 1497 c 1,10,-1
 443 1081 l 1,0,1
EndSplineSet
EndChar

StartChar: a
Encoding: 97 97 68
Width: 968
GlyphClass: 2
Flags: W
AnchorPoint: "Anchor-4" 968 900 basechar 0
AnchorPoint: "Anchor-3" 736 0 basechar 0
AnchorPoint: "Anchor-2" 721 0 basechar 0
AnchorPoint: "Anchor-1" 471 -100 basechar 0
AnchorPoint: "Anchor-0" 492 1050 basechar 0
LayerCount: 2
Fore
SplineSet
372 115 m 0,0,1
 424 115 424 115 485.5 142.5 c 128,-1,2
 547 170 547 170 623 235 c 1,3,-1
 623 481 l 1,4,5
 547 469 547 469 497 457 c 128,-1,6
 447 445 447 445 414 432.5 c 128,-1,7
 381 420 381 420 361.5 406.5 c 128,-1,8
 342 393 342 393 327 377 c 0,9,10
 301 350 301 350 285 317 c 128,-1,11
 269 284 269 284 269 239 c 0,12,13
 269 201 269 201 280 177 c 128,-1,14
 291 153 291 153 307 139 c 128,-1,15
 323 125 323 125 341 120 c 128,-1,16
 359 115 359 115 372 115 c 0,0,1
956 92 m 1,17,18
 871 33 871 33 804.5 1.5 c 128,-1,19
 738 -30 738 -30 707 -30 c 0,20,21
 672 -30 672 -30 649.5 15 c 128,-1,22
 627 60 627 60 623 139 c 1,23,24
 578 93 578 93 533 61 c 128,-1,25
 488 29 488 29 445.5 8.5 c 128,-1,26
 403 -12 403 -12 364 -21 c 128,-1,27
 325 -30 325 -30 293 -30 c 0,28,29
 255 -30 255 -30 216.5 -17.5 c 128,-1,30
 178 -5 178 -5 146.5 22 c 128,-1,31
 115 49 115 49 95 91 c 128,-1,32
 75 133 75 133 75 191 c 0,33,34
 75 264 75 264 101 314 c 128,-1,35
 127 364 127 364 164 401 c 0,36,37
 188 425 188 425 219 447 c 128,-1,38
 250 469 250 469 300.5 489 c 128,-1,39
 351 509 351 509 428.5 527.5 c 128,-1,40
 506 546 506 546 623 564 c 1,41,-1
 623 697 l 2,42,43
 623 730 623 730 616 758.5 c 128,-1,44
 609 787 609 787 591 807.5 c 128,-1,45
 573 828 573 828 543 839.5 c 128,-1,46
 513 851 513 851 468 850 c 0,47,48
 438 850 438 850 410 840 c 128,-1,49
 382 830 382 830 360 813 c 128,-1,50
 338 796 338 796 326 771.5 c 128,-1,51
 314 747 314 747 317 717 c 0,52,53
 318 711 318 711 305.5 703 c 128,-1,54
 293 695 293 695 273.5 687 c 128,-1,55
 254 679 254 679 230.5 672 c 128,-1,56
 207 665 207 665 184.5 660 c 128,-1,57
 162 655 162 655 143.5 652.5 c 128,-1,58
 125 650 125 650 117 652 c 1,59,-1
 101 696 l 1,60,61
 124 749 124 749 173 797 c 128,-1,62
 222 845 222 845 285 881 c 128,-1,63
 348 917 348 917 420 938.5 c 128,-1,64
 492 960 492 960 562 960 c 0,65,66
 681 960 681 960 742 899 c 128,-1,67
 803 838 803 838 803 735 c 2,68,-1
 803 198 l 2,69,70
 803 156 803 156 814 138 c 128,-1,71
 825 120 825 120 843 120 c 0,72,73
 857 120 857 120 878 125 c 128,-1,74
 899 130 899 130 939 147 c 1,75,-1
 956 92 l 1,17,18
EndSplineSet
Substitution2: "'aalt' Access All Alternates lookup 7 subtable" a.SngStory
EndChar

StartChar: b
Encoding: 98 98 69
Width: 1060
GlyphClass: 2
Flags: W
AnchorPoint: "Anchor-4" 1060 900 basechar 0
AnchorPoint: "Anchor-3" 490 -100 basechar 0
AnchorPoint: "Anchor-2" 490 0 basechar 0
AnchorPoint: "Anchor-1" 490 -100 basechar 0
AnchorPoint: "Anchor-0" 536 1620 basechar 0
LayerCount: 2
Fore
SplineSet
975 497 m 0,0,1
 975 439 975 439 958 377.5 c 128,-1,2
 941 316 941 316 909.5 257.5 c 128,-1,3
 878 199 878 199 833 146.5 c 128,-1,4
 788 94 788 94 733 55 c 128,-1,5
 678 16 678 16 614 -7 c 128,-1,6
 550 -30 550 -30 479 -30 c 0,7,8
 457 -30 457 -30 421 -21 c 128,-1,9
 385 -12 385 -12 339.5 4.5 c 128,-1,10
 294 21 294 21 241.5 44 c 128,-1,11
 189 67 189 67 135 96 c 1,12,-1
 135 1286 l 2,13,14
 135 1332 135 1332 130.5 1357 c 128,-1,15
 126 1382 126 1382 112.5 1394.5 c 128,-1,16
 99 1407 99 1407 74 1411 c 128,-1,17
 49 1415 49 1415 8 1420 c 1,18,-1
 8 1470 l 1,19,20
 83 1486 83 1486 148 1502.5 c 128,-1,21
 213 1519 213 1519 276 1550 c 1,22,-1
 286 1540 l 2,23,24
 292 1534 292 1534 299 1528 c 0,25,26
 306 1521 306 1521 315 1514 c 1,27,-1
 315 752 l 1,28,29
 365 806 365 806 414.5 845.5 c 128,-1,30
 464 885 464 885 509 910.5 c 128,-1,31
 554 936 554 936 592.5 948 c 128,-1,32
 631 960 631 960 660 960 c 0,33,34
 730 960 730 960 788 928 c 128,-1,35
 846 896 846 896 887.5 836 c 128,-1,36
 929 776 929 776 952 690.5 c 128,-1,37
 975 605 975 605 975 497 c 0,0,1
811 411 m 0,38,39
 811 511 811 511 791.5 586 c 128,-1,40
 772 661 772 661 739 711.5 c 128,-1,41
 706 762 706 762 663 787.5 c 128,-1,42
 620 813 620 813 572 813 c 0,43,44
 554 813 554 813 527 804.5 c 128,-1,45
 500 796 500 796 466 775 c 128,-1,46
 432 754 432 754 393.5 719.5 c 128,-1,47
 355 685 355 685 315 633 c 1,48,-1
 315 208 l 1,49,50
 355 181 355 181 394.5 163 c 128,-1,51
 434 145 434 145 469 133.5 c 128,-1,52
 504 122 504 122 532 117.5 c 128,-1,53
 560 113 560 113 577 113 c 0,54,55
 635 113 635 113 679 138 c 128,-1,56
 723 163 723 163 752 204.5 c 128,-1,57
 781 246 781 246 796 299.5 c 128,-1,58
 811 353 811 353 811 411 c 0,38,39
EndSplineSet
EndChar

StartChar: c
Encoding: 99 99 70
Width: 908
GlyphClass: 2
Flags: W
AnchorPoint: "Anchor-4" 908 900 basechar 0
AnchorPoint: "Anchor-3" 497 -100 basechar 0
AnchorPoint: "Anchor-2" 497 0 basechar 0
AnchorPoint: "Anchor-1" 497 -100 basechar 0
AnchorPoint: "Anchor-0" 497 1050 basechar 0
LayerCount: 2
Fore
SplineSet
858 190 m 1,0,1
 793 114 793 114 741.5 70.5 c 128,-1,2
 690 27 690 27 645.5 4.5 c 128,-1,3
 601 -18 601 -18 559 -24 c 128,-1,4
 517 -30 517 -30 470 -30 c 0,5,6
 394 -30 394 -30 323 2.5 c 128,-1,7
 252 35 252 35 197 96 c 128,-1,8
 142 157 142 157 108.5 245 c 128,-1,9
 75 333 75 333 75 444 c 0,10,11
 75 552 75 552 114.5 646 c 128,-1,12
 154 740 154 740 223.5 809.5 c 128,-1,13
 293 879 293 879 388.5 919.5 c 128,-1,14
 484 960 484 960 595 960 c 0,15,16
 628 960 628 960 665 954.5 c 128,-1,17
 702 949 702 949 736.5 938.5 c 128,-1,18
 771 928 771 928 799.5 913.5 c 128,-1,19
 828 899 828 899 845 881 c 1,20,21
 847 869 847 869 841 842 c 128,-1,22
 835 815 835 815 824.5 784.5 c 128,-1,23
 814 754 814 754 802 726.5 c 128,-1,24
 790 699 790 699 781 685 c 1,25,-1
 734 695 l 1,26,27
 723 723 723 723 704.5 750 c 128,-1,28
 686 777 686 777 658.5 798 c 128,-1,29
 631 819 631 819 594.5 832 c 128,-1,30
 558 845 558 845 510 845 c 0,31,32
 460 845 460 845 414 823 c 128,-1,33
 368 801 368 801 333 755 c 128,-1,34
 298 709 298 709 276.5 639.5 c 128,-1,35
 255 570 255 570 255 475 c 0,36,37
 255 392 255 392 279 325 c 128,-1,38
 303 258 303 258 343 211 c 128,-1,39
 383 164 383 164 436 138.5 c 128,-1,40
 489 113 489 113 547 113 c 0,41,42
 575 113 575 113 600 116 c 128,-1,43
 625 119 625 119 654 131 c 128,-1,44
 683 143 683 143 721 168.5 c 128,-1,45
 759 194 759 194 814 239 c 1,46,-1
 858 190 l 1,0,1
EndSplineSet
EndChar

StartChar: d
Encoding: 100 100 71
Width: 1093
GlyphClass: 2
Flags: W
AnchorPoint: "Anchor-4" 1093 900 basechar 0
AnchorPoint: "Anchor-3" 536 -100 basechar 0
AnchorPoint: "Anchor-2" 842 0 basechar 0
AnchorPoint: "Anchor-1" 536 -100 basechar 0
AnchorPoint: "Anchor-0" 339 1050 basechar 0
LayerCount: 2
Fore
SplineSet
1081 94 m 1,0,1
 988 32 988 32 925 1 c 128,-1,2
 862 -30 862 -30 834 -30 c 0,3,4
 799 -30 799 -30 777.5 15 c 128,-1,5
 756 60 756 60 748 161 c 1,6,7
 707 115 707 115 670 79.5 c 128,-1,8
 633 44 633 44 594 19.5 c 128,-1,9
 555 -5 555 -5 513 -17.5 c 128,-1,10
 471 -30 471 -30 421 -30 c 0,11,12
 362 -30 362 -30 300.5 2.5 c 128,-1,13
 239 35 239 35 189 96 c 128,-1,14
 139 157 139 157 107 245 c 128,-1,15
 75 333 75 333 75 444 c 0,16,17
 75 505 75 505 90.5 566.5 c 128,-1,18
 106 628 106 628 135.5 685.5 c 128,-1,19
 165 743 165 743 207.5 793 c 128,-1,20
 250 843 250 843 303 880 c 128,-1,21
 356 917 356 917 418.5 938.5 c 128,-1,22
 481 960 481 960 551 960 c 0,23,24
 598 960 598 960 644.5 948.5 c 128,-1,25
 691 937 691 937 745 899 c 1,26,-1
 745 1264 l 2,27,28
 745 1319 745 1319 742.5 1351.5 c 128,-1,29
 740 1384 740 1384 726.5 1401.5 c 128,-1,30
 713 1419 713 1419 684.5 1425.5 c 128,-1,31
 656 1432 656 1432 603 1436 c 1,32,-1
 603 1485 l 1,33,34
 694 1496 694 1496 767 1514.5 c 128,-1,35
 840 1533 840 1533 892 1550 c 1,36,-1
 925 1518 l 1,37,-1
 925 269 l 2,38,39
 925 234 925 234 926.5 209.5 c 128,-1,40
 928 185 928 185 931 168.5 c 128,-1,41
 934 152 934 152 938 142 c 128,-1,42
 942 132 942 132 948 126 c 0,43,44
 953 121 953 121 960.5 119.5 c 128,-1,45
 968 118 968 118 981.5 120.5 c 128,-1,46
 995 123 995 123 1014.5 129 c 128,-1,47
 1034 135 1034 135 1063 147 c 1,48,-1
 1081 94 l 1,0,1
745 263 m 1,49,-1
 745 722 l 1,50,51
 711 780 711 780 653.5 811.5 c 128,-1,52
 596 843 596 843 525 843 c 0,53,54
 466 843 466 843 416.5 821 c 128,-1,55
 367 799 367 799 331 754 c 128,-1,56
 295 709 295 709 275 641.5 c 128,-1,57
 255 574 255 574 255 483 c 0,58,59
 255 400 255 400 278 332.5 c 128,-1,60
 301 265 301 265 337 218 c 128,-1,61
 373 171 373 171 417 145.5 c 128,-1,62
 461 120 461 120 502 120 c 0,63,64
 534 120 534 120 564.5 131.5 c 128,-1,65
 595 143 595 143 625 162.5 c 128,-1,66
 655 182 655 182 685 208 c 128,-1,67
 715 234 715 234 745 263 c 1,49,-1
EndSplineSet
EndChar

StartChar: e
Encoding: 101 101 72
Width: 961
GlyphClass: 2
Flags: W
AnchorPoint: "Anchor-4" 961 900 basechar 0
AnchorPoint: "Anchor-3" 715 0 basechar 0
AnchorPoint: "Anchor-2" 508 0 basechar 0
AnchorPoint: "Anchor-1" 508 -100 basechar 0
AnchorPoint: "Anchor-0" 519 1050 basechar 0
LayerCount: 2
Fore
SplineSet
501 850 m 0,0,1
 451 850 451 850 410.5 830.5 c 128,-1,2
 370 811 370 811 340 775.5 c 128,-1,3
 310 740 310 740 290.5 690 c 128,-1,4
 271 640 271 640 263 580 c 1,5,-1
 659 580 l 2,6,7
 682 580 682 580 689.5 587.5 c 128,-1,8
 697 595 697 595 697 616 c 0,9,10
 697 644 697 644 689 684 c 128,-1,11
 681 724 681 724 659.5 761 c 128,-1,12
 638 798 638 798 600 824 c 128,-1,13
 562 850 562 850 501 850 c 0,0,1
886 555 m 1,14,15
 868 535 868 535 833 515.5 c 128,-1,16
 798 496 798 496 766 483 c 1,17,-1
 258 483 l 1,18,19
 259 407 259 407 279 339.5 c 128,-1,20
 299 272 299 272 335 222 c 128,-1,21
 371 172 371 172 422.5 142.5 c 128,-1,22
 474 113 474 113 539 113 c 0,23,24
 570 113 570 113 599.5 117 c 128,-1,25
 629 121 629 121 663 134.5 c 128,-1,26
 697 148 697 148 739 174 c 128,-1,27
 781 200 781 200 838 244 c 1,28,29
 851 237 851 237 863 220 c 128,-1,30
 875 203 875 203 880 195 c 1,31,32
 812 123 812 123 760 79 c 128,-1,33
 708 35 708 35 661.5 10.5 c 128,-1,34
 615 -14 615 -14 569.5 -22 c 128,-1,35
 524 -30 524 -30 470 -30 c 0,36,37
 390 -30 390 -30 318.5 3.5 c 128,-1,38
 247 37 247 37 193 98 c 128,-1,39
 139 159 139 159 107 245 c 128,-1,40
 75 331 75 331 75 437 c 0,41,42
 75 504 75 504 89.5 568 c 128,-1,43
 104 632 104 632 131.5 688 c 128,-1,44
 159 744 159 744 199 792 c 128,-1,45
 239 840 239 840 291 876 c 0,46,47
 315 893 315 893 344 908 c 128,-1,48
 373 923 373 923 404.5 934.5 c 128,-1,49
 436 946 436 946 469 953 c 128,-1,50
 502 960 502 960 532 960 c 0,51,52
 597 960 597 960 649 943 c 128,-1,53
 701 926 701 926 740.5 896.5 c 128,-1,54
 780 867 780 867 807.5 827 c 128,-1,55
 835 787 835 787 852.5 742 c 128,-1,56
 870 697 870 697 878 649 c 128,-1,57
 886 601 886 601 886 555 c 1,14,15
EndSplineSet
EndChar

StartChar: f
Encoding: 102 102 73
Width: 657
GlyphClass: 2
Flags: W
AnchorPoint: "Anchor-4" 657 900 basechar 0
AnchorPoint: "Anchor-3" 332 -100 basechar 0
AnchorPoint: "Anchor-2" 281 0 basechar 0
AnchorPoint: "Anchor-1" 332 -100 basechar 0
AnchorPoint: "Anchor-0" 440 1620 basechar 0
LayerCount: 2
Fore
SplineSet
842 1454 m 0,0,1
 842 1443 842 1443 825.5 1424 c 128,-1,2
 809 1405 809 1405 786.5 1385 c 128,-1,3
 764 1365 764 1365 740.5 1347.5 c 128,-1,4
 717 1330 717 1330 702 1323 c 1,5,6
 654 1371 654 1371 607.5 1393 c 128,-1,7
 561 1415 561 1415 532 1415 c 0,8,9
 506 1415 506 1415 478.5 1398 c 128,-1,10
 451 1381 451 1381 428 1336.5 c 128,-1,11
 405 1292 405 1292 390 1214.5 c 128,-1,12
 375 1137 375 1137 375 1016 c 2,13,-1
 375 930 l 1,14,-1
 630 930 l 1,15,-1
 662 899 l 1,16,17
 653 884 653 884 639.5 867 c 128,-1,18
 626 850 626 850 612.5 835 c 128,-1,19
 599 820 599 820 586 808 c 128,-1,20
 573 796 573 796 564 790 c 1,21,22
 541 802 541 802 498 813.5 c 128,-1,23
 455 825 455 825 375 825 c 1,24,-1
 375 112 l 2,25,26
 375 106 375 106 385.5 100 c 128,-1,27
 396 94 396 94 420 87.5 c 128,-1,28
 444 81 444 81 483.5 72.5 c 128,-1,29
 523 64 523 64 582 53 c 1,30,-1
 582 0 l 1,31,-1
 58 0 l 1,32,-1
 58 53 l 1,33,34
 127 65 127 65 161 82.5 c 128,-1,35
 195 100 195 100 195 112 c 2,36,-1
 195 825 l 1,37,-1
 66 825 l 1,38,-1
 43 856 l 1,39,-1
 121 930 l 1,40,-1
 195 930 l 1,41,-1
 195 961 l 2,42,43
 195 1067 195 1067 209.5 1143 c 128,-1,44
 224 1219 224 1219 249.5 1274 c 128,-1,45
 275 1329 275 1329 309.5 1369 c 128,-1,46
 344 1409 344 1409 384 1443 c 0,47,48
 414 1469 414 1469 449 1489 c 128,-1,49
 484 1509 484 1509 517.5 1522.5 c 128,-1,50
 551 1536 551 1536 582 1543 c 128,-1,51
 613 1550 613 1550 636 1550 c 0,52,53
 672 1550 672 1550 708.5 1538 c 128,-1,54
 745 1526 745 1526 774.5 1510.5 c 128,-1,55
 804 1495 804 1495 823 1479 c 128,-1,56
 842 1463 842 1463 842 1454 c 0,0,1
EndSplineSet
EndChar

StartChar: g
Encoding: 103 103 74
Width: 1019
GlyphClass: 2
Flags: W
AnchorPoint: "Anchor-4" 1019 900 basechar 0
AnchorPoint: "Anchor-3" 508 -600 basechar 0
AnchorPoint: "Anchor-2" 508 -470 basechar 0
AnchorPoint: "Anchor-1" 508 -600 basechar 0
AnchorPoint: "Anchor-0" 508 1050 basechar 0
LayerCount: 2
Fore
SplineSet
683 600 m 0,0,1
 683 652 683 652 667 698.5 c 128,-1,2
 651 745 651 745 619 780 c 128,-1,3
 587 815 587 815 540 835 c 128,-1,4
 493 855 493 855 431 855 c 0,5,6
 406 855 406 855 377 842.5 c 128,-1,7
 348 830 348 830 323 805.5 c 128,-1,8
 298 781 298 781 281.5 744.5 c 128,-1,9
 265 708 265 708 265 659 c 0,10,11
 265 607 265 607 280 560.5 c 128,-1,12
 295 514 295 514 326 479.5 c 128,-1,13
 357 445 357 445 404.5 425 c 128,-1,14
 452 405 452 405 517 405 c 0,15,16
 546 405 546 405 575.5 417 c 128,-1,17
 605 429 605 429 629 453.5 c 128,-1,18
 653 478 653 478 668 514.5 c 128,-1,19
 683 551 683 551 683 600 c 0,0,1
531 -17 m 0,20,21
 489 -12 489 -12 453.5 -6 c 128,-1,22
 418 0 418 0 386 7 c 1,23,24
 324 -29 324 -29 288 -58.5 c 128,-1,25
 252 -88 252 -88 233.5 -111.5 c 128,-1,26
 215 -135 215 -135 210 -153.5 c 128,-1,27
 205 -172 205 -172 205 -188 c 0,28,29
 205 -227 205 -227 231.5 -262 c 128,-1,30
 258 -297 258 -297 304 -323 c 128,-1,31
 350 -349 350 -349 411 -364.5 c 128,-1,32
 472 -380 472 -380 540 -380 c 0,33,34
 604 -380 604 -380 655.5 -363 c 128,-1,35
 707 -346 707 -346 742 -317 c 128,-1,36
 777 -288 777 -288 796 -248 c 128,-1,37
 815 -208 815 -208 815 -162 c 0,38,39
 815 -137 815 -137 803 -115 c 128,-1,40
 791 -93 791 -93 759.5 -74.5 c 128,-1,41
 728 -56 728 -56 673 -41.5 c 128,-1,42
 618 -27 618 -27 531 -17 c 0,20,21
853 641 m 0,43,44
 853 564 853 564 818.5 500.5 c 128,-1,45
 784 437 784 437 728 391.5 c 128,-1,46
 672 346 672 346 599 320.5 c 128,-1,47
 526 295 526 295 450 295 c 2,48,-1
 444 295 l 1,49,50
 400 257 400 257 384.5 232 c 128,-1,51
 369 207 369 207 369 201 c 0,52,53
 369 190 369 190 378 179.5 c 128,-1,54
 387 169 387 169 413.5 159 c 128,-1,55
 440 149 440 149 488.5 139.5 c 128,-1,56
 537 130 537 130 615 120 c 0,57,58
 727 107 727 107 800 83.5 c 128,-1,59
 873 60 873 60 916 29.5 c 128,-1,60
 959 -1 959 -1 976 -38 c 128,-1,61
 993 -75 993 -75 993 -115 c 0,62,63
 993 -167 993 -167 972 -216 c 128,-1,64
 951 -265 951 -265 914 -307.5 c 128,-1,65
 877 -350 877 -350 827.5 -385 c 128,-1,66
 778 -420 778 -420 721 -445 c 128,-1,67
 664 -470 664 -470 602 -484 c 128,-1,68
 540 -498 540 -498 480 -498 c 0,69,70
 431 -498 431 -498 378.5 -491.5 c 128,-1,71
 326 -485 326 -485 275.5 -471 c 128,-1,72
 225 -457 225 -457 179.5 -435.5 c 128,-1,73
 134 -414 134 -414 99.5 -383.5 c 128,-1,74
 65 -353 65 -353 45 -314.5 c 128,-1,75
 25 -276 25 -276 25 -227 c 0,76,77
 25 -201 25 -201 35 -173.5 c 128,-1,78
 45 -146 45 -146 73.5 -114.5 c 128,-1,79
 102 -83 102 -83 153 -46 c 128,-1,80
 204 -9 204 -9 287 36 c 1,81,82
 225 59 225 59 198.5 86.5 c 128,-1,83
 172 114 172 114 172 143 c 0,84,85
 172 152 172 152 178.5 167 c 128,-1,86
 185 182 185 182 202.5 203 c 128,-1,87
 220 224 220 224 250.5 250.5 c 128,-1,88
 281 277 281 277 328 310 c 1,89,90
 276 325 276 325 233 351.5 c 128,-1,91
 190 378 190 378 159.5 415.5 c 128,-1,92
 129 453 129 453 112 500 c 128,-1,93
 95 547 95 547 95 602 c 0,94,95
 95 675 95 675 129 740.5 c 128,-1,96
 163 806 163 806 219 854.5 c 128,-1,97
 275 903 275 903 347.5 931.5 c 128,-1,98
 420 960 420 960 498 960 c 0,99,100
 561 960 561 960 615.5 942.5 c 128,-1,101
 670 925 670 925 715 894 c 1,102,103
 814 905 814 905 880.5 925 c 128,-1,104
 947 945 947 945 989 960 c 1,105,-1
 1012 928 l 1,106,107
 1001 902 1001 902 988.5 875 c 128,-1,108
 976 848 976 848 955 823 c 1,109,110
 919 817 919 817 882.5 812.5 c 128,-1,111
 846 808 846 808 801 806 c 1,112,113
 826 770 826 770 839.5 728 c 128,-1,114
 853 686 853 686 853 641 c 0,43,44
EndSplineSet
Substitution2: "'aalt' Access All Alternates lookup 7 subtable" g.SngBowl
EndChar

StartChar: h
Encoding: 104 104 75
Width: 1150
GlyphClass: 2
Flags: W
AnchorPoint: "Anchor-4" 1150 900 basechar 0
AnchorPoint: "Anchor-3" 587 -100 basechar 0
AnchorPoint: "Anchor-2" 259 0 basechar 0
AnchorPoint: "Anchor-1" 587 -100 basechar 0
AnchorPoint: "Anchor-0" 587 1620 basechar 0
LayerCount: 2
Fore
SplineSet
668 0 m 1,0,-1
 668 53 l 1,1,2
 740 72 740 72 772.5 86 c 128,-1,3
 805 100 805 100 805 114 c 2,4,-1
 805 613 l 2,5,6
 805 674 805 674 798 712.5 c 128,-1,7
 791 751 791 751 776 773.5 c 128,-1,8
 761 796 761 796 737.5 804.5 c 128,-1,9
 714 813 714 813 682 813 c 0,10,11
 616 813 616 813 535.5 754 c 128,-1,12
 455 695 455 695 370 579 c 1,13,-1
 370 114 l 2,14,15
 370 99 370 99 406.5 83 c 128,-1,16
 443 67 443 67 508 53 c 1,17,-1
 508 0 l 1,18,-1
 53 0 l 1,19,-1
 53 53 l 1,20,21
 119 70 119 70 154.5 83.5 c 128,-1,22
 190 97 190 97 190 114 c 2,23,-1
 190 1288 l 2,24,25
 190 1330 190 1330 186.5 1353.5 c 128,-1,26
 183 1377 183 1377 169.5 1390 c 128,-1,27
 156 1403 156 1403 128.5 1408.5 c 128,-1,28
 101 1414 101 1414 53 1420 c 1,29,-1
 53 1470 l 1,30,31
 100 1478 100 1478 137.5 1486 c 128,-1,32
 175 1494 175 1494 207.5 1503.5 c 128,-1,33
 240 1513 240 1513 269.5 1524 c 128,-1,34
 299 1535 299 1535 331 1550 c 1,35,-1
 370 1514 l 1,36,-1
 370 717 l 1,37,38
 418 775 418 775 471 820.5 c 128,-1,39
 524 866 524 866 576 897 c 128,-1,40
 628 928 628 928 676.5 944 c 128,-1,41
 725 960 725 960 764 960 c 0,42,43
 807 960 807 960 847 946.5 c 128,-1,44
 887 933 887 933 917.5 905 c 128,-1,45
 948 877 948 877 966.5 833.5 c 128,-1,46
 985 790 985 790 985 729 c 2,47,-1
 985 114 l 2,48,49
 985 107 985 107 992 100.5 c 128,-1,50
 999 94 999 94 1015 87 c 128,-1,51
 1031 80 1031 80 1057.5 71.5 c 128,-1,52
 1084 63 1084 63 1123 53 c 1,53,-1
 1123 0 l 1,54,-1
 668 0 l 1,0,-1
EndSplineSet
EndChar

StartChar: i
Encoding: 105 105 76
Width: 575
GlyphClass: 2
Flags: W
AnchorPoint: "Anchor-4" 575 900 basechar 0
AnchorPoint: "Anchor-3" 348 0 basechar 0
AnchorPoint: "Anchor-2" 295 0 basechar 0
AnchorPoint: "Anchor-1" 295 -100 basechar 0
AnchorPoint: "Anchor-0" 295 1050 basechar 0
LayerCount: 2
Fore
SplineSet
68 0 m 1,0,-1
 68 53 l 1,1,2
 136 67 136 67 170.5 83.5 c 128,-1,3
 205 100 205 100 205 114 c 2,4,-1
 205 663 l 2,5,6
 205 714 205 714 203.5 745.5 c 128,-1,7
 202 777 202 777 189.5 794.5 c 128,-1,8
 177 812 177 812 149 820 c 128,-1,9
 121 828 121 828 68 833 c 1,10,-1
 68 883 l 1,11,12
 139 895 139 895 211.5 915 c 128,-1,13
 284 935 284 935 341 960 c 1,14,-1
 385 960 l 1,15,-1
 385 114 l 2,16,17
 385 102 385 102 417.5 84.5 c 128,-1,18
 450 67 450 67 523 53 c 1,19,-1
 523 0 l 1,20,-1
 68 0 l 1,0,-1
418 1261 m 0,21,22
 418 1231 418 1231 407.5 1205 c 128,-1,23
 397 1179 397 1179 379 1160 c 128,-1,24
 361 1141 361 1141 336.5 1130 c 128,-1,25
 312 1119 312 1119 284 1119 c 0,26,27
 236 1119 236 1119 209.5 1144.5 c 128,-1,28
 183 1170 183 1170 183 1220 c 0,29,30
 183 1250 183 1250 193.5 1276 c 128,-1,31
 204 1302 204 1302 222 1321 c 128,-1,32
 240 1340 240 1340 264 1350.5 c 128,-1,33
 288 1361 288 1361 315 1361 c 0,34,35
 362 1361 362 1361 390 1336.5 c 128,-1,36
 418 1312 418 1312 418 1261 c 0,21,22
EndSplineSet
Substitution2: "Single Substitution lookup 1 subtable" i.Dotless
EndChar

StartChar: j
Encoding: 106 106 77
Width: 550
GlyphClass: 2
Flags: W
AnchorPoint: "Anchor-4" 550 900 basechar 0
AnchorPoint: "Anchor-3" 290 -600 basechar 0
AnchorPoint: "Anchor-2" 290 -600 basechar 0
AnchorPoint: "Anchor-1" 290 -600 basechar 0
AnchorPoint: "Anchor-0" 291 1050 basechar 0
LayerCount: 2
Fore
SplineSet
380 102 m 2,0,1
 380 -14 380 -14 363.5 -94 c 128,-1,2
 347 -174 347 -174 319 -230 c 128,-1,3
 291 -286 291 -286 254.5 -324.5 c 128,-1,4
 218 -363 218 -363 178 -395 c 0,5,6
 151 -416 151 -416 120 -435 c 128,-1,7
 89 -454 89 -454 57.5 -468 c 128,-1,8
 26 -482 26 -482 -3 -490 c 128,-1,9
 -32 -498 -32 -498 -54 -498 c 0,10,11
 -88 -498 -88 -498 -121.5 -489.5 c 128,-1,12
 -155 -481 -155 -481 -182 -469 c 128,-1,13
 -209 -457 -209 -457 -226 -443.5 c 128,-1,14
 -243 -430 -243 -430 -243 -421 c 0,15,16
 -243 -411 -243 -411 -226.5 -392 c 128,-1,17
 -210 -373 -210 -373 -187 -353.5 c 128,-1,18
 -164 -334 -164 -334 -140 -317 c 128,-1,19
 -116 -300 -116 -300 -101 -293 c 1,20,21
 -68 -325 -68 -325 -28 -337.5 c 128,-1,22
 12 -350 12 -350 50 -350 c 0,23,24
 78 -350 78 -350 105 -333 c 128,-1,25
 132 -316 132 -316 153 -272 c 128,-1,26
 174 -228 174 -228 187 -152 c 128,-1,27
 200 -76 200 -76 200 43 c 2,28,-1
 200 663 l 2,29,30
 200 714 200 714 198 745 c 128,-1,31
 196 776 196 776 183.5 793.5 c 128,-1,32
 171 811 171 811 143 819 c 128,-1,33
 115 827 115 827 63 833 c 1,34,-1
 63 883 l 1,35,36
 108 890 108 890 143 898.5 c 128,-1,37
 178 907 178 907 209 916 c 128,-1,38
 240 925 240 925 269.5 936 c 128,-1,39
 299 947 299 947 333 960 c 1,40,-1
 380 960 l 1,41,-1
 380 102 l 2,0,1
414 1261 m 0,42,43
 414 1231 414 1231 404 1205 c 128,-1,44
 394 1179 394 1179 376 1160 c 128,-1,45
 358 1141 358 1141 333.5 1130 c 128,-1,46
 309 1119 309 1119 281 1119 c 0,47,48
 233 1119 233 1119 206 1144.5 c 128,-1,49
 179 1170 179 1170 179 1220 c 0,50,51
 179 1250 179 1250 189.5 1276 c 128,-1,52
 200 1302 200 1302 218 1321 c 128,-1,53
 236 1340 236 1340 260 1350.5 c 128,-1,54
 284 1361 284 1361 311 1361 c 0,55,56
 358 1361 358 1361 386 1336.5 c 128,-1,57
 414 1312 414 1312 414 1261 c 0,42,43
EndSplineSet
Substitution2: "Single Substitution lookup 1 subtable" j.Dotless
EndChar

StartChar: k
Encoding: 107 107 78
Width: 1059
GlyphClass: 2
Flags: W
AnchorPoint: "Anchor-4" 1059 900 basechar 0
AnchorPoint: "Anchor-3" 557 -100 basechar 0
AnchorPoint: "Anchor-2" 282 0 basechar 0
AnchorPoint: "Anchor-1" 557 -100 basechar 0
AnchorPoint: "Anchor-0" 557 1620 basechar 0
LayerCount: 2
Fore
SplineSet
53 0 m 1,0,-1
 53 53 l 1,1,2
 119 70 119 70 154.5 83 c 128,-1,3
 190 96 190 96 190 114 c 2,4,-1
 190 1286 l 2,5,6
 190 1332 190 1332 185 1357 c 128,-1,7
 180 1382 180 1382 165 1394.5 c 128,-1,8
 150 1407 150 1407 123 1411 c 128,-1,9
 96 1415 96 1415 53 1420 c 1,10,-1
 53 1470 l 1,11,12
 131 1484 131 1484 202.5 1502.5 c 128,-1,13
 274 1521 274 1521 331 1550 c 1,14,-1
 370 1514 l 1,15,-1
 370 531 l 1,16,-1
 663 789 l 2,17,18
 696 818 696 818 704 835.5 c 128,-1,19
 712 853 712 853 703 862 c 128,-1,20
 694 871 694 871 672.5 874 c 128,-1,21
 651 877 651 877 625 877 c 1,22,-1
 625 930 l 1,23,-1
 1027 930 l 1,24,-1
 1027 877 l 1,25,26
 983 872 983 872 943.5 859 c 128,-1,27
 904 846 904 846 862 813 c 2,28,-1
 533 554 l 1,29,-1
 904 124 l 2,30,31
 918 108 918 108 932.5 97.5 c 128,-1,32
 947 87 947 87 964.5 81.5 c 128,-1,33
 982 76 982 76 1004.5 75 c 128,-1,34
 1027 74 1027 74 1056 76 c 1,35,-1
 1062 23 l 1,36,37
 1033 16 1033 16 1001.5 10 c 128,-1,38
 970 4 970 4 942 -0.5 c 128,-1,39
 914 -5 914 -5 892 -7.5 c 128,-1,40
 870 -10 870 -10 860 -10 c 0,41,42
 818 -10 818 -10 791.5 2 c 128,-1,43
 765 14 765 14 743 43 c 2,44,-1
 370 520 l 1,45,-1
 370 114 l 2,46,47
 370 106 370 106 373.5 100 c 128,-1,48
 377 94 377 94 388 87.5 c 128,-1,49
 399 81 399 81 421 73 c 128,-1,50
 443 65 443 65 480 53 c 1,51,-1
 480 0 l 1,52,-1
 53 0 l 1,0,-1
EndSplineSet
EndChar

StartChar: l
Encoding: 108 108 79
Width: 575
GlyphClass: 2
Flags: W
AnchorPoint: "Anchor-4" 555 900 basechar 0
AnchorPoint: "Anchor-3" 295 -100 basechar 0
AnchorPoint: "Anchor-2" 295 0 basechar 0
AnchorPoint: "Anchor-1" 295 -100 basechar 0
AnchorPoint: "Anchor-0" 295 1690 basechar 0
LayerCount: 2
Fore
SplineSet
58 0 m 1,0,-1
 58 53 l 1,1,2
 101 60 101 60 129.5 67.5 c 128,-1,3
 158 75 158 75 174.5 82.5 c 128,-1,4
 191 90 191 90 198 98 c 128,-1,5
 205 106 205 106 205 114 c 2,6,-1
 205 1286 l 2,7,8
 205 1331 205 1331 199.5 1356 c 128,-1,9
 194 1381 194 1381 178.5 1393.5 c 128,-1,10
 163 1406 163 1406 136.5 1410.5 c 128,-1,11
 110 1415 110 1415 68 1420 c 1,12,-1
 68 1470 l 1,13,14
 108 1477 108 1477 144 1484.5 c 128,-1,15
 180 1492 180 1492 214 1501 c 128,-1,16
 248 1510 248 1510 280.5 1522 c 128,-1,17
 313 1534 313 1534 347 1550 c 1,18,-1
 385 1514 l 1,19,-1
 385 114 l 2,20,21
 385 99 385 99 418 83 c 128,-1,22
 451 67 451 67 533 53 c 1,23,-1
 533 0 l 1,24,-1
 58 0 l 1,0,-1
EndSplineSet
EndChar

StartChar: m
Encoding: 109 109 80
Width: 1673
GlyphClass: 2
Flags: W
AnchorPoint: "Anchor-4" 1673 900 basechar 0
AnchorPoint: "Anchor-3" 849 -100 basechar 0
AnchorPoint: "Anchor-2" 1426 0 basechar 0
AnchorPoint: "Anchor-1" 849 -100 basechar 0
AnchorPoint: "Anchor-0" 849 1050 basechar 0
LayerCount: 2
Fore
SplineSet
1194 0 m 1,0,-1
 1194 53 l 1,1,2
 1266 72 1266 72 1295.5 86 c 128,-1,3
 1325 100 1325 100 1325 114 c 2,4,-1
 1325 623 l 2,5,6
 1325 684 1325 684 1318.5 723 c 128,-1,7
 1312 762 1312 762 1298.5 784.5 c 128,-1,8
 1285 807 1285 807 1264.5 815 c 128,-1,9
 1244 823 1244 823 1215 823 c 0,10,11
 1156 823 1156 823 1083 765.5 c 128,-1,12
 1010 708 1010 708 938 603 c 1,13,-1
 938 114 l 2,14,15
 938 107 938 107 944.5 100.5 c 128,-1,16
 951 94 951 94 966.5 87 c 128,-1,17
 982 80 982 80 1008.5 71.5 c 128,-1,18
 1035 63 1035 63 1074 53 c 1,19,-1
 1074 0 l 1,20,-1
 626 0 l 1,21,-1
 626 53 l 1,22,23
 698 72 698 72 728 86 c 128,-1,24
 758 100 758 100 758 114 c 2,25,-1
 758 623 l 2,26,27
 758 684 758 684 752 723 c 128,-1,28
 746 762 746 762 733.5 784.5 c 128,-1,29
 721 807 721 807 700.5 815 c 128,-1,30
 680 823 680 823 650 823 c 0,31,32
 590 823 590 823 520.5 766 c 128,-1,33
 451 709 451 709 370 603 c 1,34,-1
 370 114 l 2,35,36
 370 99 370 99 405 83 c 128,-1,37
 440 67 440 67 505 53 c 1,38,-1
 505 0 l 1,39,-1
 53 0 l 1,40,-1
 53 53 l 1,41,42
 119 70 119 70 154.5 83.5 c 128,-1,43
 190 97 190 97 190 114 c 2,44,-1
 190 704 l 2,45,46
 190 744 190 744 186.5 767 c 128,-1,47
 183 790 183 790 169.5 802.5 c 128,-1,48
 156 815 156 815 128.5 821 c 128,-1,49
 101 827 101 827 53 833 c 1,50,-1
 53 883 l 1,51,52
 95 889 95 889 130.5 897 c 128,-1,53
 166 905 166 905 197.5 914.5 c 128,-1,54
 229 924 229 924 258.5 935.5 c 128,-1,55
 288 947 288 947 318 960 c 1,56,-1
 355 923 l 1,57,-1
 366 729 l 1,58,59
 463 851 463 851 552 905.5 c 128,-1,60
 641 960 641 960 713 960 c 0,61,62
 761 960 761 960 800.5 948.5 c 128,-1,63
 840 937 840 937 868.5 912 c 128,-1,64
 897 887 897 887 913.5 847.5 c 128,-1,65
 930 808 930 808 932 753 c 2,66,-1
 933 734 l 1,67,68
 1027 851 1027 851 1115.5 905.5 c 128,-1,69
 1204 960 1204 960 1278 960 c 0,70,71
 1326 960 1326 960 1367 946.5 c 128,-1,72
 1408 933 1408 933 1439 905 c 128,-1,73
 1470 877 1470 877 1487.5 833.5 c 128,-1,74
 1505 790 1505 790 1505 729 c 2,75,-1
 1505 114 l 2,76,77
 1505 100 1505 100 1536 86.5 c 128,-1,78
 1567 73 1567 73 1646 53 c 1,79,-1
 1646 0 l 1,80,-1
 1194 0 l 1,0,-1
EndSplineSet
EndChar

StartChar: n
Encoding: 110 110 81
Width: 1150
GlyphClass: 2
Flags: W
AnchorPoint: "Anchor-4" 1150 900 basechar 0
AnchorPoint: "Anchor-3" 587 -100 basechar 0
AnchorPoint: "Anchor-2" 902 0 basechar 0
AnchorPoint: "Anchor-1" 587 -100 basechar 0
AnchorPoint: "Anchor-0" 587 1050 basechar 0
LayerCount: 2
Fore
SplineSet
668 0 m 1,0,-1
 668 53 l 1,1,2
 740 72 740 72 772.5 86 c 128,-1,3
 805 100 805 100 805 114 c 2,4,-1
 805 618 l 2,5,6
 805 677 805 677 799 715 c 128,-1,7
 793 753 793 753 778.5 774.5 c 128,-1,8
 764 796 764 796 741 804.5 c 128,-1,9
 718 813 718 813 685 813 c 0,10,11
 656 813 656 813 621.5 801 c 128,-1,12
 587 789 587 789 547.5 761.5 c 128,-1,13
 508 734 508 734 463 689.5 c 128,-1,14
 418 645 418 645 370 579 c 1,15,-1
 370 114 l 2,16,17
 370 99 370 99 406.5 83 c 128,-1,18
 443 67 443 67 508 53 c 1,19,-1
 508 0 l 1,20,-1
 53 0 l 1,21,-1
 53 53 l 1,22,23
 119 70 119 70 154.5 83.5 c 128,-1,24
 190 97 190 97 190 114 c 2,25,-1
 190 704 l 2,26,27
 190 743 190 743 187.5 766 c 128,-1,28
 185 789 185 789 172 802 c 128,-1,29
 159 815 159 815 131.5 821 c 128,-1,30
 104 827 104 827 53 833 c 1,31,-1
 53 883 l 1,32,33
 130 894 130 894 193 913 c 128,-1,34
 256 932 256 932 318 960 c 1,35,-1
 355 923 l 1,36,-1
 366 709 l 1,37,38
 415 770 415 770 468.5 817 c 128,-1,39
 522 864 522 864 574.5 895.5 c 128,-1,40
 627 927 627 927 676 943.5 c 128,-1,41
 725 960 725 960 764 960 c 0,42,43
 807 960 807 960 847 946.5 c 128,-1,44
 887 933 887 933 917.5 905 c 128,-1,45
 948 877 948 877 966.5 833.5 c 128,-1,46
 985 790 985 790 985 729 c 2,47,-1
 985 114 l 2,48,49
 985 107 985 107 992 100.5 c 128,-1,50
 999 94 999 94 1015 87 c 128,-1,51
 1031 80 1031 80 1057.5 71.5 c 128,-1,52
 1084 63 1084 63 1123 53 c 1,53,-1
 1123 0 l 1,54,-1
 668 0 l 1,0,-1
EndSplineSet
EndChar

StartChar: o
Encoding: 111 111 82
Width: 1045
GlyphClass: 2
Flags: W
AnchorPoint: "Anchor-4" 1045 900 basechar 0
AnchorPoint: "Anchor-3" 584 0 basechar 0
AnchorPoint: "Anchor-2" 543 0 basechar 0
AnchorPoint: "Anchor-1" 543 -100 basechar 0
AnchorPoint: "Anchor-0" 543 1050 basechar 0
LayerCount: 2
Fore
SplineSet
783 450 m 0,0,1
 783 529 783 529 760 600.5 c 128,-1,2
 737 672 737 672 699.5 726.5 c 128,-1,3
 662 781 662 781 613.5 813 c 128,-1,4
 565 845 565 845 514 845 c 0,5,6
 442 845 442 845 394 816.5 c 128,-1,7
 346 788 346 788 317 738 c 128,-1,8
 288 688 288 688 275.5 620 c 128,-1,9
 263 552 263 552 263 473 c 256,10,11
 263 394 263 394 287.5 323.5 c 128,-1,12
 312 253 312 253 351 200 c 128,-1,13
 390 147 390 147 438 116 c 128,-1,14
 486 85 486 85 532 85 c 0,15,16
 599 85 599 85 646.5 110.5 c 128,-1,17
 694 136 694 136 724.5 183 c 128,-1,18
 755 230 755 230 769 298 c 128,-1,19
 783 366 783 366 783 450 c 0,0,1
970 485 m 0,20,21
 970 385 970 385 932.5 292 c 128,-1,22
 895 199 895 199 831 127.5 c 128,-1,23
 767 56 767 56 682.5 13 c 128,-1,24
 598 -30 598 -30 504 -30 c 0,25,26
 406 -30 406 -30 327 6 c 128,-1,27
 248 42 248 42 192 105 c 128,-1,28
 136 168 136 168 105.5 255 c 128,-1,29
 75 342 75 342 75 444 c 0,30,31
 75 510 75 510 91.5 574 c 128,-1,32
 108 638 108 638 138 695.5 c 128,-1,33
 168 753 168 753 210.5 801.5 c 128,-1,34
 253 850 253 850 305 885 c 128,-1,35
 357 920 357 920 417 940 c 128,-1,36
 477 960 477 960 543 960 c 0,37,38
 640 960 640 960 718.5 924 c 128,-1,39
 797 888 797 888 853 824.5 c 128,-1,40
 909 761 909 761 939.5 674 c 128,-1,41
 970 587 970 587 970 485 c 0,20,21
EndSplineSet
EndChar

StartChar: p
Encoding: 112 112 83
Width: 1105
GlyphClass: 2
Flags: W
AnchorPoint: "Anchor-4" 1105 900 basechar 0
AnchorPoint: "Anchor-3" 540 -600 basechar 0
AnchorPoint: "Anchor-2" 639 -470 basechar 0
AnchorPoint: "Anchor-1" 540 -600 basechar 0
AnchorPoint: "Anchor-0" 540 1050 basechar 0
LayerCount: 2
Fore
SplineSet
865 426 m 0,0,1
 865 516 865 516 844.5 589 c 128,-1,2
 824 662 824 662 790.5 713.5 c 128,-1,3
 757 765 757 765 713 792.5 c 128,-1,4
 669 820 669 820 623 820 c 0,5,6
 605 820 605 820 579.5 811.5 c 128,-1,7
 554 803 554 803 522 781.5 c 128,-1,8
 490 760 490 760 452 724 c 128,-1,9
 414 688 414 688 370 633 c 1,10,-1
 370 218 l 1,11,12
 418 185 418 185 456.5 164.5 c 128,-1,13
 495 144 495 144 527.5 132.5 c 128,-1,14
 560 121 560 121 587.5 117 c 128,-1,15
 615 113 615 113 641 113 c 0,16,17
 690 113 690 113 731 133 c 128,-1,18
 772 153 772 153 802 193 c 128,-1,19
 832 233 832 233 848.5 291 c 128,-1,20
 865 349 865 349 865 426 c 0,0,1
1030 495 m 0,21,22
 1030 434 1030 434 1014.5 372 c 128,-1,23
 999 310 999 310 971.5 251.5 c 128,-1,24
 944 193 944 193 907 141.5 c 128,-1,25
 870 90 870 90 827.5 52 c 128,-1,26
 785 14 785 14 738.5 -8 c 128,-1,27
 692 -30 692 -30 646 -30 c 0,28,29
 587 -30 587 -30 517 0.5 c 128,-1,30
 447 31 447 31 370 93 c 1,31,-1
 370 -365 l 2,32,33
 370 -381 370 -381 407.5 -397 c 128,-1,34
 445 -413 445 -413 539 -427 c 1,35,-1
 539 -480 l 1,36,-1
 53 -480 l 1,37,-1
 53 -427 l 1,38,39
 119 -411 119 -411 154.5 -396.5 c 128,-1,40
 190 -382 190 -382 190 -365 c 2,41,-1
 190 704 l 2,42,43
 190 741 190 741 186.5 765 c 128,-1,44
 183 789 183 789 169 803.5 c 128,-1,45
 155 818 155 818 128 824.5 c 128,-1,46
 101 831 101 831 53 833 c 1,47,-1
 53 883 l 1,48,49
 95 890 95 890 129.5 898 c 128,-1,50
 164 906 164 906 195 915 c 128,-1,51
 226 924 226 924 256 935 c 128,-1,52
 286 946 286 946 318 960 c 1,53,-1
 355 923 l 1,54,-1
 364 750 l 1,55,56
 416 806 416 806 465.5 846 c 128,-1,57
 515 886 515 886 559.5 911.5 c 128,-1,58
 604 937 604 937 641.5 948.5 c 128,-1,59
 679 960 679 960 708 960 c 0,60,61
 776 960 776 960 835 929.5 c 128,-1,62
 894 899 894 899 937.5 839.5 c 128,-1,63
 981 780 981 780 1005.5 693.5 c 128,-1,64
 1030 607 1030 607 1030 495 c 0,21,22
EndSplineSet
EndChar

StartChar: q
Encoding: 113 113 84
Width: 1078
GlyphClass: 2
Flags: W
AnchorPoint: "Anchor-4" 1078 900 basechar 0
AnchorPoint: "Anchor-3" 567 -600 basechar 0
AnchorPoint: "Anchor-2" 567 -600 basechar 0
AnchorPoint: "Anchor-1" 567 -600 basechar 0
AnchorPoint: "Anchor-0" 567 1050 basechar 0
LayerCount: 2
Fore
SplineSet
500 120 m 0,0,1
 532 120 532 120 562.5 131.5 c 128,-1,2
 593 143 593 143 623 163 c 128,-1,3
 653 183 653 183 683 209 c 128,-1,4
 713 235 713 235 743 264 c 1,5,-1
 743 720 l 1,6,7
 726 748 726 748 702 771 c 128,-1,8
 678 794 678 794 649.5 810 c 128,-1,9
 621 826 621 826 588.5 834.5 c 128,-1,10
 556 843 556 843 523 843 c 0,11,12
 470 843 470 843 421.5 821 c 128,-1,13
 373 799 373 799 336 755 c 128,-1,14
 299 711 299 711 277 643.5 c 128,-1,15
 255 576 255 576 255 485 c 0,16,17
 255 400 255 400 278 332.5 c 128,-1,18
 301 265 301 265 336.5 217.5 c 128,-1,19
 372 170 372 170 415.5 145 c 128,-1,20
 459 120 459 120 500 120 c 0,0,1
573 -480 m 1,21,-1
 573 -427 l 1,22,23
 667 -413 667 -413 705 -397.5 c 128,-1,24
 743 -382 743 -382 743 -365 c 2,25,-1
 743 157 l 1,26,27
 703 112 703 112 665 77 c 128,-1,28
 627 42 627 42 588 18 c 128,-1,29
 549 -6 549 -6 506.5 -18 c 128,-1,30
 464 -30 464 -30 414 -30 c 0,31,32
 357 -30 357 -30 297 2.5 c 128,-1,33
 237 35 237 35 187.5 96 c 128,-1,34
 138 157 138 157 106.5 245 c 128,-1,35
 75 333 75 333 75 444 c 0,36,37
 75 532 75 532 101 604.5 c 128,-1,38
 127 677 127 677 165.5 733 c 128,-1,39
 204 789 204 789 248 828 c 128,-1,40
 292 867 292 867 327 888 c 1,41,42
 384 920 384 920 444.5 940 c 128,-1,43
 505 960 505 960 551 960 c 0,44,45
 579 960 579 960 606 956.5 c 128,-1,46
 633 953 633 953 661.5 942.5 c 128,-1,47
 690 932 690 932 720.5 912.5 c 128,-1,48
 751 893 751 893 786 862 c 1,49,50
 804 872 804 872 823.5 885.5 c 128,-1,51
 843 899 843 899 861.5 912.5 c 128,-1,52
 880 926 880 926 895.5 938.5 c 128,-1,53
 911 951 911 951 920 960 c 1,54,-1
 954 928 l 1,55,56
 945 898 945 898 938 864 c 0,57,58
 932 835 932 835 927.5 795 c 128,-1,59
 923 755 923 755 923 710 c 2,60,-1
 923 -365 l 2,61,62
 923 -373 923 -373 930 -381 c 128,-1,63
 937 -389 937 -389 953 -397 c 128,-1,64
 969 -405 969 -405 995 -412.5 c 128,-1,65
 1021 -420 1021 -420 1059 -427 c 1,66,-1
 1059 -480 l 1,67,-1
 573 -480 l 1,21,-1
EndSplineSet
EndChar

StartChar: r
Encoding: 114 114 85
Width: 844
GlyphClass: 2
Flags: W
AnchorPoint: "Anchor-4" 844 900 basechar 0
AnchorPoint: "Anchor-3" 278 -100 basechar 0
AnchorPoint: "Anchor-2" 278 0 basechar 0
AnchorPoint: "Anchor-1" 278 -100 basechar 0
AnchorPoint: "Anchor-0" 468 1050 basechar 0
LayerCount: 2
Fore
SplineSet
805 921 m 0,0,1
 814 915 814 915 812 881.5 c 128,-1,2
 810 848 810 848 801.5 804 c 128,-1,3
 793 760 793 760 780 715.5 c 128,-1,4
 767 671 767 671 755 644 c 1,5,-1
 702 644 l 1,6,7
 691 725 691 725 662 765 c 128,-1,8
 633 805 633 805 591 805 c 0,9,10
 570 805 570 805 542.5 790 c 128,-1,11
 515 775 515 775 485 741.5 c 128,-1,12
 455 708 455 708 425.5 654 c 128,-1,13
 396 600 396 600 370 521 c 1,14,-1
 370 114 l 2,15,16
 370 99 370 99 409 83 c 128,-1,17
 448 67 448 67 542 53 c 1,18,-1
 542 0 l 1,19,-1
 53 0 l 1,20,-1
 53 53 l 1,21,22
 119 68 119 68 154.5 82.5 c 128,-1,23
 190 97 190 97 190 114 c 2,24,-1
 190 679 l 2,25,26
 190 712 190 712 188 734.5 c 128,-1,27
 186 757 186 757 183 771 c 128,-1,28
 180 785 180 785 175.5 793 c 128,-1,29
 171 801 171 801 167 806 c 0,30,31
 160 813 160 813 152 817.5 c 128,-1,32
 144 822 144 822 131 825 c 128,-1,33
 118 828 118 828 99.5 829.5 c 128,-1,34
 81 831 81 831 53 833 c 1,35,-1
 53 883 l 1,36,37
 93 891 93 891 128 899 c 128,-1,38
 163 907 163 907 195 916 c 128,-1,39
 227 925 227 925 257.5 935.5 c 128,-1,40
 288 946 288 946 318 960 c 1,41,-1
 355 923 l 1,42,-1
 368 723 l 1,43,44
 395 773 395 773 427.5 816 c 128,-1,45
 460 859 460 859 496.5 891 c 128,-1,46
 533 923 533 923 573.5 941.5 c 128,-1,47
 614 960 614 960 657 960 c 0,48,49
 692 960 692 960 730 951 c 128,-1,50
 768 942 768 942 805 921 c 0,0,1
EndSplineSet
EndChar

StartChar: s
Encoding: 115 115 86
Width: 813
GlyphClass: 2
Flags: W
AnchorPoint: "Anchor-4" 813 900 basechar 0
AnchorPoint: "Anchor-3" 408 -100 basechar 0
AnchorPoint: "Anchor-2" 395 0 basechar 0
AnchorPoint: "Anchor-1" 408 -100 basechar 0
AnchorPoint: "Anchor-0" 408 1050 basechar 0
LayerCount: 2
Fore
SplineSet
727 283 m 0,0,1
 727 212 727 212 706.5 161.5 c 128,-1,2
 686 111 686 111 653.5 76 c 128,-1,3
 621 41 621 41 580.5 20 c 128,-1,4
 540 -1 540 -1 499.5 -12 c 128,-1,5
 459 -23 459 -23 423.5 -26.5 c 128,-1,6
 388 -30 388 -30 366 -30 c 0,7,8
 339 -30 339 -30 307 -25.5 c 128,-1,9
 275 -21 275 -21 240.5 -12 c 128,-1,10
 206 -3 206 -3 170 11 c 128,-1,11
 134 25 134 25 101 43 c 0,12,13
 94 46 94 46 91.5 76.5 c 128,-1,14
 89 107 89 107 89.5 147.5 c 128,-1,15
 90 188 90 188 95 231 c 128,-1,16
 100 274 100 274 108 301 c 1,17,-1
 163 290 l 1,18,19
 168 244 168 244 189 205.5 c 128,-1,20
 210 167 210 167 243 138.5 c 128,-1,21
 276 110 276 110 319 94 c 128,-1,22
 362 78 362 78 411 78 c 0,23,24
 483 78 483 78 525 115.5 c 128,-1,25
 567 153 567 153 567 220 c 0,26,27
 567 260 567 260 546 291 c 128,-1,28
 525 322 525 322 490.5 348 c 128,-1,29
 456 374 456 374 412 397 c 128,-1,30
 368 420 368 420 322 444 c 0,31,32
 280 465 280 465 240 489.5 c 128,-1,33
 200 514 200 514 168.5 544.5 c 128,-1,34
 137 575 137 575 118 612.5 c 128,-1,35
 99 650 99 650 99 698 c 0,36,37
 99 760 99 760 126 809 c 128,-1,38
 153 858 153 858 197 891.5 c 128,-1,39
 241 925 241 925 298.5 942.5 c 128,-1,40
 356 960 356 960 416 960 c 0,41,42
 451 960 451 960 490.5 954.5 c 128,-1,43
 530 949 530 949 567.5 939 c 128,-1,44
 605 929 605 929 637.5 915 c 128,-1,45
 670 901 670 901 691 883 c 0,46,47
 697 878 697 878 693 854.5 c 128,-1,48
 689 831 689 831 679.5 802.5 c 128,-1,49
 670 774 670 774 658.5 747.5 c 128,-1,50
 647 721 647 721 639 711 c 1,51,-1
 590 719 l 1,52,53
 550 796 550 796 499.5 830.5 c 128,-1,54
 449 865 449 865 395 865 c 0,55,56
 363 865 363 865 337.5 855 c 128,-1,57
 312 845 312 845 294.5 829.5 c 128,-1,58
 277 814 277 814 268 794 c 128,-1,59
 259 774 259 774 259 753 c 0,60,61
 259 721 259 721 277 695.5 c 128,-1,62
 295 670 295 670 325.5 647.5 c 128,-1,63
 356 625 356 625 396.5 604 c 128,-1,64
 437 583 437 583 482 559 c 0,65,66
 525 537 525 537 569 512 c 128,-1,67
 613 487 613 487 648 454.5 c 128,-1,68
 683 422 683 422 705 380.5 c 128,-1,69
 727 339 727 339 727 283 c 0,0,1
EndSplineSet
EndChar

StartChar: t
Encoding: 116 116 87
Width: 723
GlyphClass: 2
Flags: W
AnchorPoint: "Anchor-4" 518 900 basechar 0
AnchorPoint: "Anchor-3" 356 -100 basechar 0
AnchorPoint: "Anchor-2" 356 0 basechar 0
AnchorPoint: "Anchor-1" 356 -100 basechar 0
AnchorPoint: "Anchor-0" 356 1320 basechar 0
LayerCount: 2
Fore
SplineSet
696 130 m 1,0,1
 586 49 586 49 495 9.5 c 128,-1,2
 404 -30 404 -30 351 -30 c 0,3,4
 314 -30 314 -30 280 -15.5 c 128,-1,5
 246 -1 246 -1 220.5 30 c 128,-1,6
 195 61 195 61 180 110 c 128,-1,7
 165 159 165 159 165 229 c 2,8,-1
 165 825 l 1,9,-1
 39 825 l 1,10,-1
 15 856 l 1,11,-1
 93 930 l 1,12,-1
 165 930 l 1,13,-1
 165 1164 l 1,14,-1
 312 1283 l 1,15,-1
 345 1255 l 1,16,-1
 345 930 l 1,17,-1
 665 930 l 1,18,-1
 696 899 l 1,19,20
 687 884 687 884 673.5 867 c 128,-1,21
 660 850 660 850 646 835 c 128,-1,22
 632 820 632 820 618.5 808 c 128,-1,23
 605 796 605 796 595 790 c 1,24,25
 571 802 571 802 522.5 813.5 c 128,-1,26
 474 825 474 825 402 825 c 2,27,-1
 345 825 l 1,28,-1
 345 317 l 2,29,30
 345 260 345 260 351 222 c 128,-1,31
 357 184 357 184 369 160.5 c 128,-1,32
 381 137 381 137 400 127.5 c 128,-1,33
 419 118 419 118 445 118 c 0,34,35
 480 118 480 118 531 132.5 c 128,-1,36
 582 147 582 147 662 188 c 1,37,-1
 696 130 l 1,0,1
EndSplineSet
EndChar

StartChar: u
Encoding: 117 117 88
Width: 1108
GlyphClass: 2
Flags: W
AnchorPoint: "Anchor-4" 1208 900 basechar 0
AnchorPoint: "Anchor-3" 879 0 basechar 0
AnchorPoint: "Anchor-2" 859 0 basechar 0
AnchorPoint: "Anchor-1" 556 -100 basechar 0
AnchorPoint: "Anchor-0" 556 1050 basechar 0
LayerCount: 2
Fore
SplineSet
1094 92 m 1,0,1
 1057 68 1057 68 1019.5 46 c 128,-1,2
 982 24 982 24 949 7 c 128,-1,3
 916 -10 916 -10 890.5 -20 c 128,-1,4
 865 -30 865 -30 853 -30 c 0,5,6
 835 -30 835 -30 820 -20 c 128,-1,7
 805 -10 805 -10 793 12 c 128,-1,8
 781 34 781 34 772.5 69.5 c 128,-1,9
 764 105 764 105 760 156 c 1,10,11
 698 96 698 96 647 59.5 c 128,-1,12
 596 23 596 23 553.5 3 c 128,-1,13
 511 -17 511 -17 475.5 -23.5 c 128,-1,14
 440 -30 440 -30 408 -30 c 0,15,16
 361 -30 361 -30 317.5 -17 c 128,-1,17
 274 -4 274 -4 240 30.5 c 128,-1,18
 206 65 206 65 185.5 125 c 128,-1,19
 165 185 165 185 165 279 c 2,20,-1
 165 704 l 2,21,22
 165 752 165 752 162.5 778.5 c 128,-1,23
 160 805 160 805 148 818.5 c 128,-1,24
 136 832 136 832 110.5 837 c 128,-1,25
 85 842 85 842 39 847 c 1,26,-1
 39 897 l 1,27,28
 79 901 79 901 114 906.5 c 128,-1,29
 149 912 149 912 181.5 919.5 c 128,-1,30
 214 927 214 927 246.5 937 c 128,-1,31
 279 947 279 947 315 960 c 1,32,-1
 345 919 l 1,33,-1
 345 337 l 2,34,35
 345 269 345 269 354.5 225 c 128,-1,36
 364 181 364 181 382 155 c 128,-1,37
 400 129 400 129 426.5 118.5 c 128,-1,38
 453 108 453 108 486 108 c 0,39,40
 514 108 514 108 544.5 116 c 128,-1,41
 575 124 575 124 608.5 142 c 128,-1,42
 642 160 642 160 679.5 189.5 c 128,-1,43
 717 219 717 219 760 262 c 1,44,-1
 760 704 l 2,45,46
 760 749 760 749 756 776 c 128,-1,47
 752 803 752 803 737.5 818 c 128,-1,48
 723 833 723 833 696 839 c 128,-1,49
 669 845 669 845 623 847 c 1,50,-1
 623 897 l 1,51,52
 704 906 704 906 775 923.5 c 128,-1,53
 846 941 846 941 908 960 c 1,54,-1
 940 919 l 1,55,-1
 940 264 l 2,56,57
 940 202 940 202 944.5 168 c 128,-1,58
 949 134 949 134 963 124 c 0,59,60
 975 116 975 116 1001.5 120.5 c 128,-1,61
 1028 125 1028 125 1079 147 c 1,62,-1
 1094 92 l 1,0,1
EndSplineSet
EndChar

StartChar: v
Encoding: 118 118 89
Width: 1020
GlyphClass: 2
Flags: W
AnchorPoint: "Anchor-4" 1020 900 basechar 0
AnchorPoint: "Anchor-3" 464 0 basechar 0
AnchorPoint: "Anchor-2" 521 0 basechar 0
AnchorPoint: "Anchor-1" 521 -100 basechar 0
AnchorPoint: "Anchor-0" 541 1050 basechar 0
LayerCount: 2
Fore
SplineSet
1002 877 m 1,0,1
 972 870 972 870 953.5 864 c 128,-1,2
 935 858 935 858 923.5 850.5 c 128,-1,3
 912 843 912 843 906 833.5 c 128,-1,4
 900 824 900 824 894 809 c 2,5,-1
 611 67 l 2,6,7
 602 45 602 45 584.5 28.5 c 128,-1,8
 567 12 567 12 546 0 c 128,-1,9
 525 -12 525 -12 503 -19 c 128,-1,10
 481 -26 481 -26 464 -30 c 1,11,-1
 126 809 l 1,12,13
 116 837 116 837 92 851.5 c 128,-1,14
 68 866 68 866 18 877 c 1,15,-1
 18 930 l 1,16,-1
 426 930 l 1,17,-1
 426 877 l 1,18,19
 387 872 387 872 363 867 c 128,-1,20
 339 862 339 862 327 854.5 c 128,-1,21
 315 847 315 847 313.5 836 c 128,-1,22
 312 825 312 825 318 809 c 2,23,-1
 554 214 l 1,24,-1
 775 809 l 2,25,26
 781 824 781 824 780 834.5 c 128,-1,27
 779 845 779 845 768.5 852.5 c 128,-1,28
 758 860 758 860 736.5 865.5 c 128,-1,29
 715 871 715 871 679 877 c 1,30,-1
 679 930 l 1,31,-1
 1002 930 l 1,32,-1
 1002 877 l 1,0,1
EndSplineSet
EndChar

StartChar: w
Encoding: 119 119 90
Width: 1454
GlyphClass: 2
Flags: W
AnchorPoint: "Anchor-4" 1454 900 basechar 0
AnchorPoint: "Anchor-3" 734 -100 basechar 0
AnchorPoint: "Anchor-2" 734 -100 basechar 0
AnchorPoint: "Anchor-1" 734 -100 basechar 0
AnchorPoint: "Anchor-0" 754 1050 basechar 0
LayerCount: 2
Fore
SplineSet
1435 877 m 1,0,1
 1405 870 1405 870 1387 863.5 c 128,-1,2
 1369 857 1369 857 1358.5 850.5 c 128,-1,3
 1348 844 1348 844 1343 835.5 c 128,-1,4
 1338 827 1338 827 1335 815 c 2,5,-1
 1114 59 l 2,6,7
 1108 37 1108 37 1090 21.5 c 128,-1,8
 1072 6 1072 6 1051 -4.5 c 128,-1,9
 1030 -15 1030 -15 1009 -21 c 128,-1,10
 988 -27 988 -27 975 -30 c 1,11,-1
 731 616 l 1,12,-1
 527 59 l 2,13,14
 519 36 519 36 502 20.5 c 128,-1,15
 485 5 485 5 464.5 -5.5 c 128,-1,16
 444 -16 444 -16 424 -21.5 c 128,-1,17
 404 -27 404 -27 391 -30 c 1,18,-1
 127 815 l 1,19,20
 116 855 116 855 18 877 c 1,21,-1
 18 930 l 1,22,-1
 426 930 l 1,23,-1
 426 877 l 1,24,25
 379 872 379 872 353 865.5 c 128,-1,26
 327 859 327 859 315.5 850.5 c 128,-1,27
 304 842 304 842 303.5 833 c 128,-1,28
 303 824 303 824 306 815 c 2,29,-1
 481 234 l 1,30,-1
 725 930 l 1,31,-1
 797 930 l 1,32,-1
 1054 234 l 1,33,-1
 1217 815 l 2,34,35
 1224 838 1224 838 1201.5 852 c 128,-1,36
 1179 866 1179 866 1110 877 c 1,37,-1
 1110 930 l 1,38,-1
 1435 930 l 1,39,-1
 1435 877 l 1,0,1
EndSplineSet
EndChar

StartChar: x
Encoding: 120 120 91
Width: 1043
GlyphClass: 2
Flags: W
AnchorPoint: "Anchor-4" 1043 900 basechar 0
AnchorPoint: "Anchor-3" 523 -100 basechar 0
AnchorPoint: "Anchor-2" 809 0 basechar 0
AnchorPoint: "Anchor-1" 523 -100 basechar 0
AnchorPoint: "Anchor-0" 523 1050 basechar 0
LayerCount: 2
Fore
SplineSet
597 0 m 1,0,-1
 597 53 l 1,1,2
 622 55 622 55 643.5 59 c 128,-1,3
 665 63 665 63 677 72 c 128,-1,4
 689 81 689 81 688.5 97 c 128,-1,5
 688 113 688 113 668 140 c 2,6,-1
 488 386 l 1,7,-1
 309 140 l 2,8,9
 289 113 289 113 292 97 c 128,-1,10
 295 81 295 81 311 72 c 128,-1,11
 327 63 327 63 351 59 c 128,-1,12
 375 55 375 55 399 53 c 1,13,-1
 399 0 l 1,14,-1
 18 0 l 1,15,-1
 18 53 l 1,16,17
 57 59 57 59 84 68.5 c 128,-1,18
 111 78 111 78 130.5 90 c 128,-1,19
 150 102 150 102 163.5 116.5 c 128,-1,20
 177 131 177 131 188 146 c 2,21,-1
 427 470 l 1,22,-1
 196 788 l 2,23,24
 183 806 183 806 170 821.5 c 128,-1,25
 157 837 157 837 139 848 c 128,-1,26
 121 859 121 859 94.5 866.5 c 128,-1,27
 68 874 68 874 29 877 c 1,28,-1
 29 930 l 1,29,-1
 474 930 l 1,30,-1
 474 877 l 1,31,32
 443 874 443 874 421.5 869 c 128,-1,33
 400 864 400 864 390 854.5 c 128,-1,34
 380 845 380 845 382.5 829.5 c 128,-1,35
 385 814 385 814 403 790 c 2,36,-1
 547 591 l 1,37,-1
 691 790 l 2,38,39
 709 814 709 814 712 829.5 c 128,-1,40
 715 845 715 845 706 854.5 c 128,-1,41
 697 864 697 864 676 869 c 128,-1,42
 655 874 655 874 624 877 c 1,43,-1
 624 930 l 1,44,-1
 1005 930 l 1,45,-1
 1005 877 l 1,46,47
 964 874 964 874 934.5 866.5 c 128,-1,48
 905 859 905 859 882.5 848 c 128,-1,49
 860 837 860 837 843.5 821.5 c 128,-1,50
 827 806 827 806 814 788 c 2,51,-1
 608 507 l 1,52,-1
 871 146 l 2,53,54
 883 131 883 131 896.5 116.5 c 128,-1,55
 910 102 910 102 928.5 89.5 c 128,-1,56
 947 77 947 77 971.5 67 c 128,-1,57
 996 57 996 57 1029 53 c 1,58,-1
 1029 0 l 1,59,-1
 597 0 l 1,0,-1
EndSplineSet
EndChar

StartChar: y
Encoding: 121 121 92
Width: 1020
GlyphClass: 2
Flags: W
AnchorPoint: "Anchor-4" 1020 900 basechar 0
AnchorPoint: "Anchor-3" 785 -100 basechar 0
AnchorPoint: "Anchor-2" 785 -100 basechar 0
AnchorPoint: "Anchor-1" 785 -100 basechar 0
AnchorPoint: "Anchor-0" 535 1050 basechar 0
LayerCount: 2
Fore
SplineSet
1002 877 m 1,0,1
 972 870 972 870 953 864 c 128,-1,2
 934 858 934 858 922 850.5 c 128,-1,3
 910 843 910 843 903.5 833.5 c 128,-1,4
 897 824 897 824 892 809 c 2,5,-1
 558 -80 l 2,6,7
 516 -190 516 -190 464.5 -269 c 128,-1,8
 413 -348 413 -348 357.5 -399 c 128,-1,9
 302 -450 302 -450 244.5 -474 c 128,-1,10
 187 -498 187 -498 132 -498 c 0,11,12
 94 -498 94 -498 60.5 -492.5 c 128,-1,13
 27 -487 27 -487 2 -478.5 c 128,-1,14
 -23 -470 -23 -470 -37.5 -459.5 c 128,-1,15
 -52 -449 -52 -449 -52 -440 c 0,16,17
 -52 -433 -52 -433 -38 -412.5 c 128,-1,18
 -24 -392 -24 -392 -4.5 -368 c 128,-1,19
 15 -344 15 -344 37 -322 c 128,-1,20
 59 -300 59 -300 75 -290 c 1,21,22
 123 -319 123 -319 172 -323 c 128,-1,23
 221 -327 221 -327 258 -313 c 0,24,25
 276 -307 276 -307 298.5 -287.5 c 128,-1,26
 321 -268 321 -268 344.5 -239 c 128,-1,27
 368 -210 368 -210 390 -172.5 c 128,-1,28
 412 -135 412 -135 430 -92 c 2,29,-1
 459 -23 l 1,30,-1
 129 809 l 1,31,32
 119 837 119 837 93.5 851.5 c 128,-1,33
 68 866 68 866 18 877 c 1,34,-1
 18 930 l 1,35,-1
 426 930 l 1,36,-1
 426 877 l 1,37,38
 387 872 387 872 363.5 867 c 128,-1,39
 340 862 340 862 328 854.5 c 128,-1,40
 316 847 316 847 315 836 c 128,-1,41
 314 825 314 825 321 809 c 2,42,-1
 553 217 l 1,43,-1
 773 809 l 2,44,45
 778 824 778 824 776.5 834.5 c 128,-1,46
 775 845 775 845 763.5 852.5 c 128,-1,47
 752 860 752 860 729 865.5 c 128,-1,48
 706 871 706 871 670 877 c 1,49,-1
 670 930 l 1,50,-1
 1002 930 l 1,51,-1
 1002 877 l 1,0,1
EndSplineSet
EndChar

StartChar: z
Encoding: 122 122 93
Width: 923
GlyphClass: 2
Flags: W
AnchorPoint: "Anchor-4" 923 900 basechar 0
AnchorPoint: "Anchor-3" 461 -100 basechar 0
AnchorPoint: "Anchor-2" 769 0 basechar 0
AnchorPoint: "Anchor-1" 461 -100 basechar 0
AnchorPoint: "Anchor-0" 489 1050 basechar 0
LayerCount: 2
Fore
SplineSet
847 276 m 1,0,1
 847 244 847 244 846 204 c 128,-1,2
 845 164 845 164 843.5 124.5 c 128,-1,3
 842 85 842 85 840 51.5 c 128,-1,4
 838 18 838 18 835 0 c 1,5,-1
 97 0 l 1,6,-1
 71 45 l 1,7,-1
 617 830 l 1,8,-1
 300 830 l 2,9,10
 282 830 282 830 264 822 c 128,-1,11
 246 814 246 814 229.5 794.5 c 128,-1,12
 213 775 213 775 198.5 742 c 128,-1,13
 184 709 184 709 173 660 c 1,14,-1
 117 675 l 1,15,-1
 137 946 l 1,16,17
 159 940 159 940 177 936.5 c 128,-1,18
 195 933 195 933 214.5 931.5 c 128,-1,19
 234 930 234 930 257 930 c 2,20,-1
 828 930 l 1,21,-1
 850 887 l 1,22,-1
 301 100 l 1,23,-1
 697 100 l 2,24,25
 726 100 726 100 747 145.5 c 128,-1,26
 768 191 768 191 792 288 c 1,27,-1
 847 276 l 1,0,1
EndSplineSet
EndChar

StartChar: braceleft
Encoding: 123 123 94
Width: 698
Flags: W
LayerCount: 2
Fore
SplineSet
664 1543 m 1,0,1
 625 1519 625 1519 591.5 1489 c 128,-1,2
 558 1459 558 1459 534 1423 c 128,-1,3
 510 1387 510 1387 496 1345.5 c 128,-1,4
 482 1304 482 1304 482 1257 c 0,5,6
 482 1219 482 1219 485 1190.5 c 128,-1,7
 488 1162 488 1162 492.5 1137 c 128,-1,8
 497 1112 497 1112 502.5 1090 c 128,-1,9
 508 1068 508 1068 512.5 1043 c 128,-1,10
 517 1018 517 1018 520 989 c 128,-1,11
 523 960 523 960 523 923 c 0,12,13
 523 881 523 881 510 840.5 c 128,-1,14
 497 800 497 800 472.5 764.5 c 128,-1,15
 448 729 448 729 414 700 c 128,-1,16
 380 671 380 671 338 653 c 1,17,18
 438 635 438 635 480.5 565 c 128,-1,19
 523 495 523 495 523 385 c 0,20,21
 523 327 523 327 516.5 283.5 c 128,-1,22
 510 240 510 240 502.5 201.5 c 128,-1,23
 495 163 495 163 488.5 124.5 c 128,-1,24
 482 86 482 86 482 38 c 0,25,26
 482 -13 482 -13 489 -52 c 128,-1,27
 496 -91 496 -91 515 -124 c 128,-1,28
 534 -157 534 -157 567.5 -186 c 128,-1,29
 601 -215 601 -215 654 -244 c 1,30,-1
 626 -315 l 1,31,32
 539 -281 539 -281 475 -244.5 c 128,-1,33
 411 -208 411 -208 369 -163 c 128,-1,34
 327 -118 327 -118 306.5 -61.5 c 128,-1,35
 286 -5 286 -5 286 67 c 0,36,37
 286 124 286 124 292.5 164 c 128,-1,38
 299 204 299 204 306.5 241 c 128,-1,39
 314 278 314 278 320.5 320 c 128,-1,40
 327 362 327 362 327 422 c 0,41,42
 327 503 327 503 288.5 542 c 128,-1,43
 250 581 250 581 179 581 c 2,44,-1
 158 581 l 2,45,46
 152 581 152 581 147 580.5 c 128,-1,47
 142 580 142 580 135.5 578.5 c 128,-1,48
 129 577 129 577 114 575 c 1,49,-1
 97 638 l 1,50,51
 212 669 212 669 269.5 728.5 c 128,-1,52
 327 788 327 788 327 863 c 0,53,54
 327 902 327 902 324 931.5 c 128,-1,55
 321 961 321 961 316.5 985 c 128,-1,56
 312 1009 312 1009 306.5 1030.5 c 128,-1,57
 301 1052 301 1052 296.5 1076.5 c 128,-1,58
 292 1101 292 1101 289 1130.5 c 128,-1,59
 286 1160 286 1160 286 1200 c 0,60,61
 286 1267 286 1267 311 1325.5 c 128,-1,62
 336 1384 336 1384 382 1433.5 c 128,-1,63
 428 1483 428 1483 491.5 1524.5 c 128,-1,64
 555 1566 555 1566 633 1600 c 1,65,-1
 664 1543 l 1,0,1
EndSplineSet
EndChar

StartChar: bar
Encoding: 124 124 95
Width: 469
Flags: W
LayerCount: 2
Fore
SplineSet
325 -351 m 1,0,1
 316 -359 316 -359 302 -367 c 128,-1,2
 288 -375 288 -375 272.5 -382 c 128,-1,3
 257 -389 257 -389 241 -395 c 128,-1,4
 225 -401 225 -401 213 -405 c 1,5,-1
 175 -380 l 1,6,-1
 175 1619 l 1,7,8
 203 1636 203 1636 230.5 1649 c 128,-1,9
 258 1662 258 1662 287 1670 c 1,10,-1
 325 1646 l 1,11,-1
 325 -351 l 1,0,1
EndSplineSet
EndChar

StartChar: braceright
Encoding: 125 125 96
Width: 698
Flags: W
LayerCount: 2
Fore
SplineSet
603 646 m 1,0,1
 486 615 486 615 429 556.5 c 128,-1,2
 372 498 372 498 372 422 c 0,3,4
 372 383 372 383 375 354 c 128,-1,5
 378 325 378 325 382.5 300.5 c 128,-1,6
 387 276 387 276 392 254.5 c 128,-1,7
 397 233 397 233 401.5 209 c 128,-1,8
 406 185 406 185 409 155.5 c 128,-1,9
 412 126 412 126 412 86 c 0,10,11
 412 18 412 18 387 -40 c 128,-1,12
 362 -98 362 -98 316.5 -148 c 128,-1,13
 271 -198 271 -198 207 -239.5 c 128,-1,14
 143 -281 143 -281 66 -315 c 1,15,-1
 34 -257 l 1,16,17
 73 -233 73 -233 106.5 -203 c 128,-1,18
 140 -173 140 -173 164 -137 c 128,-1,19
 188 -101 188 -101 202 -59.5 c 128,-1,20
 216 -18 216 -18 216 29 c 0,21,22
 216 85 216 85 209.5 123 c 128,-1,23
 203 161 203 161 195.5 195.5 c 128,-1,24
 188 230 188 230 182 268.5 c 128,-1,25
 176 307 176 307 176 364 c 0,26,27
 176 405 176 405 189 445 c 128,-1,28
 202 485 202 485 226 520.5 c 128,-1,29
 250 556 250 556 284.5 584.5 c 128,-1,30
 319 613 319 613 362 631 c 1,31,32
 261 650 261 650 218.5 720 c 128,-1,33
 176 790 176 790 176 901 c 0,34,35
 176 959 176 959 182 1002.5 c 128,-1,36
 188 1046 188 1046 195.5 1084.5 c 128,-1,37
 203 1123 203 1123 209.5 1161 c 128,-1,38
 216 1199 216 1199 216 1247 c 0,39,40
 216 1298 216 1298 209 1338 c 128,-1,41
 202 1378 202 1378 182.5 1410.5 c 128,-1,42
 163 1443 163 1443 129.5 1471.5 c 128,-1,43
 96 1500 96 1500 44 1529 c 1,44,-1
 72 1600 l 1,45,46
 159 1567 159 1567 223 1530 c 128,-1,47
 287 1493 287 1493 329 1448 c 128,-1,48
 371 1403 371 1403 391.5 1347 c 128,-1,49
 412 1291 412 1291 412 1219 c 0,50,51
 412 1162 412 1162 405.5 1122 c 128,-1,52
 399 1082 399 1082 391.5 1044.5 c 128,-1,53
 384 1007 384 1007 378 965.5 c 128,-1,54
 372 924 372 924 372 864 c 0,55,56
 372 783 372 783 410.5 744 c 128,-1,57
 449 705 449 705 521 705 c 2,58,-1
 551 705 l 2,59,60
 556 705 556 705 563 706 c 2,61,-1
 586 711 l 1,62,-1
 603 646 l 1,0,1
EndSplineSet
EndChar

StartChar: asciitilde
Encoding: 126 126 97
Width: 999
Flags: W
LayerCount: 2
Fore
SplineSet
950 774 m 1,0,1
 929 725 929 725 897 672.5 c 128,-1,2
 865 620 865 620 825.5 576.5 c 128,-1,3
 786 533 786 533 740.5 505 c 128,-1,4
 695 477 695 477 647 477 c 0,5,6
 605 477 605 477 558 502 c 128,-1,7
 511 527 511 527 462.5 557 c 128,-1,8
 414 587 414 587 366.5 612 c 128,-1,9
 319 637 319 637 276 637 c 0,10,11
 227 637 227 637 185.5 598 c 128,-1,12
 144 559 144 559 102 475 c 1,13,-1
 49 502 l 1,14,15
 70 551 70 551 102.5 603.5 c 128,-1,16
 135 656 135 656 174.5 699.5 c 128,-1,17
 214 743 214 743 259 771 c 128,-1,18
 304 799 304 799 352 799 c 0,19,20
 398 799 398 799 446.5 774 c 128,-1,21
 495 749 495 749 542.5 719 c 128,-1,22
 590 689 590 689 635.5 664 c 128,-1,23
 681 639 681 639 721 639 c 0,24,25
 769 639 769 639 812 678 c 128,-1,26
 855 717 855 717 897 799 c 1,27,-1
 950 774 l 1,0,1
EndSplineSet
EndChar

StartChar: Ccedilla
Encoding: 199 199 100
Width: 1113
GlyphClass: 2
Flags: W
AnchorPoint: "Anchor-4" 1113 900 basechar 0
AnchorPoint: "Anchor-3" 591 -600 basechar 0
AnchorPoint: "Anchor-2" 591 -600 basechar 0
AnchorPoint: "Anchor-1" 591 -600 basechar 0
AnchorPoint: "Anchor-0" 622 1370 basechar 0
LayerCount: 2
Fore
SplineSet
767 -229 m 0,0,1
 767 -266 767 -266 746.5 -300 c 128,-1,2
 726 -334 726 -334 685 -362.5 c 128,-1,3
 644 -391 644 -391 583 -412 c 128,-1,4
 522 -433 522 -433 441 -444 c 1,5,-1
 414 -388 l 1,6,7
 463 -380 463 -380 498 -367 c 128,-1,8
 533 -354 533 -354 554.5 -339 c 128,-1,9
 576 -324 576 -324 586 -307 c 128,-1,10
 596 -290 596 -290 596 -274 c 0,11,12
 596 -240 596 -240 571 -226 c 128,-1,13
 546 -212 546 -212 490 -207 c 1,14,15
 492 -204 492 -204 501 -180 c 0,16,17
 508 -160 508 -160 523 -115 c 0,18,19
 534 -82 534 -82 551 -29 c 1,20,21
 469 -24 469 -24 389 12 c 0,22,23
 297 54 297 54 225 133 c 128,-1,24
 153 212 153 212 109 326.5 c 128,-1,25
 65 441 65 441 65 586 c 0,26,27
 65 746 65 746 113.5 876 c 128,-1,28
 162 1006 162 1006 246 1098 c 128,-1,29
 330 1190 330 1190 442 1240 c 128,-1,30
 554 1290 554 1290 681 1290 c 0,31,32
 735 1290 735 1290 784.5 1282 c 128,-1,33
 834 1274 834 1274 877 1260.5 c 128,-1,34
 920 1247 920 1247 955.5 1229 c 128,-1,35
 991 1211 991 1211 1017 1190 c 0,36,37
 1023 1185 1023 1185 1013 1165 c 128,-1,38
 1003 1145 1003 1145 986.5 1120.5 c 128,-1,39
 970 1096 970 1096 952 1072.5 c 128,-1,40
 934 1049 934 1049 922 1037 c 1,41,-1
 877 1046 l 1,42,43
 826 1106 826 1106 757.5 1139.5 c 128,-1,44
 689 1173 689 1173 602 1173 c 0,45,46
 568 1173 568 1173 528.5 1161 c 128,-1,47
 489 1149 489 1149 450.5 1122.5 c 128,-1,48
 412 1096 412 1096 376 1053.5 c 128,-1,49
 340 1011 340 1011 313 950 c 128,-1,50
 286 889 286 889 269.5 808 c 128,-1,51
 253 727 253 727 253 623 c 0,52,53
 253 492 253 492 290 394.5 c 128,-1,54
 327 297 327 297 385 232.5 c 128,-1,55
 443 168 443 168 515 136.5 c 128,-1,56
 587 105 587 105 656 105 c 0,57,58
 683 105 683 105 719 113 c 128,-1,59
 755 121 755 121 798 139.5 c 128,-1,60
 841 158 841 158 890.5 188.5 c 128,-1,61
 940 219 940 219 994 264 c 1,62,63
 999 261 999 261 1005 253.5 c 128,-1,64
 1011 246 1011 246 1017 237.5 c 128,-1,65
 1023 229 1023 229 1028 221.5 c 128,-1,66
 1033 214 1033 214 1036 211 c 1,67,68
 972 144 972 144 912.5 98 c 128,-1,69
 853 52 853 52 796 23.5 c 128,-1,70
 739 -5 739 -5 684 -17 c 0,71,72
 664 -22 664 -22 645 -25 c 1,73,-1
 619 -99 l 1,74,75
 649 -105 649 -105 676 -115.5 c 128,-1,76
 703 -126 703 -126 723.5 -142 c 128,-1,77
 744 -158 744 -158 755.5 -179.5 c 128,-1,78
 767 -201 767 -201 767 -229 c 0,0,1
EndSplineSet
Ligature2: "'ccmp' Glyph Composition/Decomposition lookup 3 subtable" C uni0327
EndChar

StartChar: ccedilla
Encoding: 231 231 111
Width: 908
GlyphClass: 2
Flags: W
AnchorPoint: "Anchor-4" 908 900 basechar 0
AnchorPoint: "Anchor-3" 497 -600 basechar 0
AnchorPoint: "Anchor-2" 497 -600 basechar 0
AnchorPoint: "Anchor-1" 497 -600 basechar 0
AnchorPoint: "Anchor-0" 497 1050 basechar 0
LayerCount: 2
Fore
SplineSet
673 -229 m 0,0,1
 673 -266 673 -266 652.5 -300 c 128,-1,2
 632 -334 632 -334 591 -362.5 c 128,-1,3
 550 -391 550 -391 489 -412 c 128,-1,4
 428 -433 428 -433 347 -444 c 1,5,-1
 320 -388 l 1,6,7
 369 -380 369 -380 404 -367 c 128,-1,8
 439 -354 439 -354 460.5 -339 c 128,-1,9
 482 -324 482 -324 492 -307 c 128,-1,10
 502 -290 502 -290 502 -274 c 0,11,12
 502 -240 502 -240 477 -226 c 128,-1,13
 452 -212 452 -212 396 -207 c 1,14,15
 398 -204 398 -204 407 -180 c 0,16,17
 414 -160 414 -160 429 -115 c 0,18,19
 440 -82 440 -82 457 -30 c 1,20,21
 388 -27 388 -27 323 2 c 1,22,23
 252 35 252 35 197 96 c 128,-1,24
 142 157 142 157 108.5 245 c 128,-1,25
 75 333 75 333 75 444 c 0,26,27
 75 552 75 552 114.5 646 c 128,-1,28
 154 740 154 740 223.5 809.5 c 128,-1,29
 293 879 293 879 388.5 919.5 c 128,-1,30
 484 960 484 960 595 960 c 0,31,32
 628 960 628 960 665 954.5 c 128,-1,33
 702 949 702 949 736.5 938.5 c 128,-1,34
 771 928 771 928 799.5 913.5 c 128,-1,35
 828 899 828 899 845 881 c 1,36,37
 847 869 847 869 841 842 c 128,-1,38
 835 815 835 815 824.5 784.5 c 128,-1,39
 814 754 814 754 802 726.5 c 128,-1,40
 790 699 790 699 781 685 c 1,41,-1
 734 695 l 1,42,43
 723 723 723 723 704.5 750 c 128,-1,44
 686 777 686 777 658.5 798 c 128,-1,45
 631 819 631 819 594.5 832 c 128,-1,46
 558 845 558 845 510 845 c 0,47,48
 460 845 460 845 414 823 c 128,-1,49
 368 801 368 801 333 755 c 128,-1,50
 298 709 298 709 276.5 639.5 c 128,-1,51
 255 570 255 570 255 475 c 0,52,53
 255 392 255 392 279 325 c 128,-1,54
 303 258 303 258 343 211 c 128,-1,55
 383 164 383 164 436 138.5 c 128,-1,56
 489 113 489 113 547 113 c 0,57,58
 575 113 575 113 600 116 c 128,-1,59
 625 119 625 119 654 131 c 128,-1,60
 683 143 683 143 721 168.5 c 128,-1,61
 759 194 759 194 814 239 c 1,62,-1
 858 190 l 1,63,64
 793 114 793 114 741.5 70.5 c 128,-1,65
 690 27 690 27 645.5 4.5 c 128,-1,66
 601 -18 601 -18 559 -24 c 2,67,-1
 551 -25 l 1,68,-1
 525 -99 l 1,69,70
 555 -105 555 -105 582 -115.5 c 128,-1,71
 609 -126 609 -126 629.5 -142 c 128,-1,72
 650 -158 650 -158 661.5 -179.5 c 128,-1,73
 673 -201 673 -201 673 -229 c 0,0,1
EndSplineSet
Ligature2: "'ccmp' Glyph Composition/Decomposition lookup 3 subtable" c uni0327
EndChar

StartChar: dagger
Encoding: 8224 8224 130
Width: 987
Flags: W
LayerCount: 2
Fore
SplineSet
922 1087 m 1,0,1
 915 1070 915 1070 903.5 1046 c 128,-1,2
 892 1022 892 1022 878.5 996.5 c 128,-1,3
 865 971 865 971 851 946 c 128,-1,4
 837 921 837 921 825 902 c 1,5,6
 757 930 757 930 690.5 945 c 128,-1,7
 624 960 624 960 542 965 c 1,8,9
 544 896 544 896 556 822.5 c 128,-1,10
 568 749 568 749 591 680 c 1,11,12
 566 569 566 569 555 461.5 c 128,-1,13
 544 354 544 354 542 258 c 0,14,15
 541 200 541 200 547.5 136.5 c 128,-1,16
 554 73 554 73 567 12 c 1,17,18
 558 5 558 5 542.5 -2.5 c 128,-1,19
 527 -10 527 -10 509.5 -17 c 128,-1,20
 492 -24 492 -24 475 -30 c 128,-1,21
 458 -36 458 -36 446 -40 c 1,22,-1
 414 -17 l 1,23,24
 426 51 426 51 434 124 c 128,-1,25
 442 197 442 197 441 258 c 0,26,27
 439 357 439 357 428 463.5 c 128,-1,28
 417 570 417 570 391 680 c 1,29,30
 414 749 414 749 425.5 822.5 c 128,-1,31
 437 896 437 896 440 965 c 1,32,33
 348 960 348 960 265.5 944.5 c 128,-1,34
 183 929 183 929 93 902 c 1,35,-1
 65 948 l 1,36,37
 72 965 72 965 83.5 988.5 c 128,-1,38
 95 1012 95 1012 108.5 1037.5 c 128,-1,39
 122 1063 122 1063 136 1088 c 128,-1,40
 150 1113 150 1113 162 1132 c 1,41,42
 228 1104 228 1104 293.5 1090 c 128,-1,43
 359 1076 359 1076 440 1071 c 1,44,45
 437 1158 437 1158 422 1235.5 c 128,-1,46
 407 1313 407 1313 376 1386 c 1,47,48
 395 1398 395 1398 420 1411.5 c 128,-1,49
 445 1425 445 1425 470.5 1438 c 128,-1,50
 496 1451 496 1451 520 1462 c 128,-1,51
 544 1473 544 1473 561 1480 c 1,52,-1
 606 1453 l 1,53,54
 578 1360 578 1360 563.5 1262.5 c 128,-1,55
 549 1165 549 1165 544 1071 c 1,56,57
 637 1076 637 1076 720.5 1090.5 c 128,-1,58
 804 1105 804 1105 895 1132 c 1,59,-1
 922 1087 l 1,0,1
EndSplineSet
EndChar

StartChar: degree
Encoding: 176 176 131
Width: 733
Flags: W
LayerCount: 2
Fore
SplineSet
478 995 m 0,0,1
 478 1023 478 1023 471 1048 c 128,-1,2
 464 1073 464 1073 451 1092.5 c 128,-1,3
 438 1112 438 1112 419.5 1123.5 c 128,-1,4
 401 1135 401 1135 378 1135 c 0,5,6
 354 1135 354 1135 332 1125.5 c 128,-1,7
 310 1116 310 1116 293 1098 c 128,-1,8
 276 1080 276 1080 266 1054.5 c 128,-1,9
 256 1029 256 1029 256 998 c 0,10,11
 256 971 256 971 263 946 c 128,-1,12
 270 921 270 921 282.5 901.5 c 128,-1,13
 295 882 295 882 313.5 870 c 128,-1,14
 332 858 332 858 356 858 c 0,15,16
 379 858 379 858 401 867 c 128,-1,17
 423 876 423 876 440 893.5 c 128,-1,18
 457 911 457 911 467.5 936.5 c 128,-1,19
 478 962 478 962 478 995 c 0,0,1
602 1047 m 0,20,21
 602 983 602 983 577 928.5 c 128,-1,22
 552 874 552 874 512.5 834.5 c 128,-1,23
 473 795 473 795 424.5 772.5 c 128,-1,24
 376 750 376 750 328 750 c 0,25,26
 285 750 285 750 249 765.5 c 128,-1,27
 213 781 213 781 187 808 c 128,-1,28
 161 835 161 835 146.5 870.5 c 128,-1,29
 132 906 132 906 132 946 c 0,30,31
 132 1011 132 1011 156.5 1065.5 c 128,-1,32
 181 1120 181 1120 220 1160 c 128,-1,33
 259 1200 259 1200 308 1222 c 128,-1,34
 357 1244 357 1244 406 1244 c 0,35,36
 446 1244 446 1244 481.5 1228 c 128,-1,37
 517 1212 517 1212 544 1185 c 128,-1,38
 571 1158 571 1158 586.5 1122.5 c 128,-1,39
 602 1087 602 1087 602 1047 c 0,20,21
EndSplineSet
EndChar

StartChar: cent
Encoding: 162 162 132
Width: 986
Flags: W
LayerCount: 2
Fore
SplineSet
274 616 m 0,0,1
 274 547 274 547 290 491 c 128,-1,2
 306 435 306 435 334 393 c 128,-1,3
 362 351 362 351 400 323 c 128,-1,4
 438 295 438 295 483 281 c 1,5,-1
 483 958 l 1,6,7
 441 949 441 949 403 924.5 c 128,-1,8
 365 900 365 900 336.5 858 c 128,-1,9
 308 816 308 816 291 756 c 128,-1,10
 274 696 274 696 274 616 c 0,0,1
583 -3 m 1,11,12
 565 -19 565 -19 549.5 -26 c 128,-1,13
 534 -33 534 -33 510 -41 c 1,14,-1
 483 -14 l 1,15,-1
 483 129 l 1,16,17
 413 133 413 133 344 164 c 128,-1,18
 275 195 275 195 220.5 253 c 128,-1,19
 166 311 166 311 132.5 394.5 c 128,-1,20
 99 478 99 478 99 586 c 0,21,22
 99 674 99 674 127 752 c 128,-1,23
 155 830 155 830 206 892 c 128,-1,24
 257 954 257 954 327.5 997.5 c 128,-1,25
 398 1041 398 1041 483 1062 c 1,26,-1
 483 1209 l 1,27,28
 497 1218 497 1218 504 1223 c 128,-1,29
 511 1228 511 1228 517 1232 c 128,-1,30
 523 1236 523 1236 531 1238.5 c 128,-1,31
 539 1241 539 1241 554 1245 c 1,32,-1
 583 1221 l 1,33,-1
 583 1077 l 1,34,35
 594 1078 594 1078 605 1078.5 c 128,-1,36
 616 1079 616 1079 627 1079 c 0,37,38
 660 1079 660 1079 697.5 1073.5 c 128,-1,39
 735 1068 735 1068 770 1057.5 c 128,-1,40
 805 1047 805 1047 834 1032.5 c 128,-1,41
 863 1018 863 1018 880 999 c 1,42,43
 882 988 882 988 876 963.5 c 128,-1,44
 870 939 870 939 859.5 911.5 c 128,-1,45
 849 884 849 884 837 859 c 128,-1,46
 825 834 825 834 816 821 c 1,47,-1
 771 833 l 1,48,49
 763 848 763 848 747.5 868 c 128,-1,50
 732 888 732 888 709 906.5 c 128,-1,51
 686 925 686 925 654.5 940 c 128,-1,52
 623 955 623 955 583 961 c 1,53,-1
 583 267 l 1,54,55
 611 267 611 267 636 271.5 c 128,-1,56
 661 276 661 276 690.5 290 c 128,-1,57
 720 304 720 304 757 331 c 128,-1,58
 794 358 794 358 845 404 c 1,59,-1
 892 353 l 1,60,61
 841 294 841 294 799 254 c 128,-1,62
 757 214 757 214 720.5 189 c 128,-1,63
 684 164 684 164 650.5 151.5 c 128,-1,64
 617 139 617 139 583 134 c 1,65,-1
 583 -3 l 1,11,12
EndSplineSet
EndChar

StartChar: sterling
Encoding: 163 163 133
Width: 986
Flags: W
LayerCount: 2
Fore
SplineSet
650 531 m 1,0,-1
 400 531 l 1,1,2
 405 400 405 400 373.5 294 c 128,-1,3
 342 188 342 188 288 114 c 1,4,5
 333 118 333 118 367.5 119 c 128,-1,6
 402 120 402 120 429.5 119.5 c 128,-1,7
 457 119 457 119 481 118 c 128,-1,8
 505 117 505 117 530 115.5 c 128,-1,9
 555 114 555 114 583.5 113.5 c 128,-1,10
 612 113 612 113 649 114 c 0,11,12
 695 115 695 115 728 121 c 128,-1,13
 761 127 761 127 786.5 145.5 c 128,-1,14
 812 164 812 164 833 198.5 c 128,-1,15
 854 233 854 233 875 292 c 1,16,-1
 928 272 l 1,17,18
 924 229 924 229 918.5 186.5 c 128,-1,19
 913 144 913 144 906.5 107.5 c 128,-1,20
 900 71 900 71 894.5 43 c 128,-1,21
 889 15 889 15 885 0 c 1,22,23
 840 -25 840 -25 777 -28 c 128,-1,24
 714 -31 714 -31 642 -24 c 128,-1,25
 570 -17 570 -17 492.5 -5.5 c 128,-1,26
 415 6 415 6 341 11 c 128,-1,27
 267 16 267 16 201.5 8.5 c 128,-1,28
 136 1 136 1 87 -30 c 1,29,-1
 59 27 l 1,30,31
 89 52 89 52 113 74 c 128,-1,32
 137 96 137 96 154 122 c 128,-1,33
 171 148 171 148 182 181 c 128,-1,34
 193 214 193 214 198 261.5 c 128,-1,35
 203 309 203 309 202 375 c 128,-1,36
 201 441 201 441 195 531 c 1,37,-1
 81 531 l 1,38,-1
 57 559 l 1,39,40
 62 574 62 574 70 595 c 128,-1,41
 78 616 78 616 84 632 c 1,42,-1
 189 632 l 1,43,44
 184 770 184 770 209 881.5 c 128,-1,45
 234 993 234 993 289 1071.5 c 128,-1,46
 344 1150 344 1150 428.5 1192.5 c 128,-1,47
 513 1235 513 1235 627 1235 c 0,48,49
 653 1235 653 1235 680 1233 c 128,-1,50
 707 1231 707 1231 738.5 1223.5 c 128,-1,51
 770 1216 770 1216 807 1202.5 c 128,-1,52
 844 1189 844 1189 891 1165 c 1,53,54
 890 1139 890 1139 886 1099 c 128,-1,55
 882 1059 882 1059 876.5 1017.5 c 128,-1,56
 871 976 871 976 864.5 939 c 128,-1,57
 858 902 858 902 852 883 c 1,58,-1
 795 883 l 1,59,60
 781 1008 781 1008 723 1068.5 c 128,-1,61
 665 1129 665 1129 568 1129 c 0,62,63
 543 1129 543 1129 517.5 1124 c 128,-1,64
 492 1119 492 1119 468.5 1102 c 128,-1,65
 445 1085 445 1085 425.5 1052.5 c 128,-1,66
 406 1020 406 1020 395 965 c 128,-1,67
 384 910 384 910 382 828.5 c 128,-1,68
 380 747 380 747 392 632 c 1,69,-1
 653 632 l 1,70,-1
 680 607 l 1,71,-1
 650 531 l 1,0,-1
EndSplineSet
EndChar

StartChar: section
Encoding: 167 167 134
Width: 982
Flags: W
LayerCount: 2
Fore
SplineSet
554 539 m 0,0,1
 579 526 579 526 605 512.5 c 128,-1,2
 631 499 631 499 657 484 c 1,3,4
 682 505 682 505 696 534.5 c 128,-1,5
 710 564 710 564 710 597 c 0,6,7
 710 645 710 645 692 682.5 c 128,-1,8
 674 720 674 720 637.5 754.5 c 128,-1,9
 601 789 601 789 545 823.5 c 128,-1,10
 489 858 489 858 413 899 c 0,11,12
 392 910 392 910 372 922 c 128,-1,13
 352 934 352 934 332 948 c 1,14,15
 318 938 318 938 307 923 c 128,-1,16
 296 908 296 908 288.5 891 c 128,-1,17
 281 874 281 874 277 856.5 c 128,-1,18
 273 839 273 839 273 824 c 0,19,20
 273 779 273 779 289.5 744.5 c 128,-1,21
 306 710 306 710 340.5 678 c 128,-1,22
 375 646 375 646 428 613 c 128,-1,23
 481 580 481 580 554 539 c 0,0,1
868 660 m 0,24,25
 868 616 868 616 859 578.5 c 128,-1,26
 850 541 850 541 834 509.5 c 128,-1,27
 818 478 818 478 797.5 452.5 c 128,-1,28
 777 427 777 427 754 408 c 1,29,30
 779 380 779 380 794 346 c 128,-1,31
 809 312 809 312 809 268 c 0,32,33
 809 197 809 197 788.5 147.5 c 128,-1,34
 768 98 768 98 735.5 65 c 128,-1,35
 703 32 703 32 662.5 13 c 128,-1,36
 622 -6 622 -6 581.5 -15.5 c 128,-1,37
 541 -25 541 -25 505.5 -27.5 c 128,-1,38
 470 -30 470 -30 447 -30 c 0,39,40
 421 -30 421 -30 388.5 -24 c 128,-1,41
 356 -18 356 -18 321.5 -7.5 c 128,-1,42
 287 3 287 3 251 18 c 128,-1,43
 215 33 215 33 182 51 c 0,44,45
 175 54 175 54 172.5 84.5 c 128,-1,46
 170 115 170 115 171 155.5 c 128,-1,47
 172 196 172 196 176.5 238.5 c 128,-1,48
 181 281 181 281 189 308 c 1,49,-1
 245 297 l 1,50,51
 250 251 250 251 271 211 c 128,-1,52
 292 171 292 171 325 141 c 128,-1,53
 358 111 358 111 400.5 93.5 c 128,-1,54
 443 76 443 76 492 76 c 0,55,56
 564 76 564 76 606.5 107 c 128,-1,57
 649 138 649 138 649 205 c 0,58,59
 649 245 649 245 626.5 274.5 c 128,-1,60
 604 304 604 304 568 328.5 c 128,-1,61
 532 353 532 353 486.5 375 c 128,-1,62
 441 397 441 397 396 422 c 0,63,64
 336 455 336 455 284 489.5 c 128,-1,65
 232 524 232 524 194.5 566 c 128,-1,66
 157 608 157 608 135.5 659.5 c 128,-1,67
 114 711 114 711 114 776 c 0,68,69
 114 813 114 813 125.5 847.5 c 128,-1,70
 137 882 137 882 156.5 913 c 128,-1,71
 176 944 176 944 201.5 969.5 c 128,-1,72
 227 995 227 995 256 1013 c 1,73,74
 221 1051 221 1051 200.5 1095 c 128,-1,75
 180 1139 180 1139 180 1193 c 0,76,77
 180 1255 180 1255 207 1301.5 c 128,-1,78
 234 1348 234 1348 278 1378.5 c 128,-1,79
 322 1409 322 1409 379.5 1424.5 c 128,-1,80
 437 1440 437 1440 497 1440 c 0,81,82
 532 1440 532 1440 571.5 1433.5 c 128,-1,83
 611 1427 611 1427 648.5 1415.5 c 128,-1,84
 686 1404 686 1404 719 1389 c 128,-1,85
 752 1374 752 1374 773 1356 c 0,86,87
 779 1350 779 1350 774.5 1326.5 c 128,-1,88
 770 1303 770 1303 760.5 1274.5 c 128,-1,89
 751 1246 751 1246 739.5 1220 c 128,-1,90
 728 1194 728 1194 720 1183 c 1,91,-1
 671 1191 l 1,92,93
 631 1269 631 1269 581 1307 c 128,-1,94
 531 1345 531 1345 476 1345 c 0,95,96
 412 1345 412 1345 376 1317.5 c 128,-1,97
 340 1290 340 1290 340 1240 c 0,98,99
 340 1206 340 1206 355.5 1178.5 c 128,-1,100
 371 1151 371 1151 400.5 1125.5 c 128,-1,101
 430 1100 430 1100 473 1074 c 128,-1,102
 516 1048 516 1048 571 1017 c 0,103,104
 632 982 632 982 686 949 c 128,-1,105
 740 916 740 916 780.5 875.5 c 128,-1,106
 821 835 821 835 844.5 783 c 128,-1,107
 868 731 868 731 868 660 c 0,24,25
EndSplineSet
EndChar

StartChar: bullet
Encoding: 8226 8226 135
Width: 569
Flags: W
LayerCount: 2
Fore
SplineSet
498 662 m 0,0,1
 498 601 498 601 480.5 551 c 128,-1,2
 463 501 463 501 431.5 465 c 128,-1,3
 400 429 400 429 356.5 409 c 128,-1,4
 313 389 313 389 260 389 c 0,5,6
 212 389 212 389 176.5 405.5 c 128,-1,7
 141 422 141 422 117.5 452 c 128,-1,8
 94 482 94 482 82 523 c 128,-1,9
 70 564 70 564 70 612 c 0,10,11
 70 672 70 672 88.5 722 c 128,-1,12
 107 772 107 772 139 808.5 c 128,-1,13
 171 845 171 845 214.5 865 c 128,-1,14
 258 885 258 885 309 885 c 0,15,16
 354 885 354 885 389.5 868.5 c 128,-1,17
 425 852 425 852 449 822.5 c 128,-1,18
 473 793 473 793 485.5 752 c 128,-1,19
 498 711 498 711 498 662 c 0,0,1
EndSplineSet
EndChar

StartChar: paragraph
Encoding: 182 182 136
Width: 1170
Flags: W
LayerCount: 2
Fore
SplineSet
457 -250 m 1,0,-1
 457 -197 l 1,1,2
 526 -183 526 -183 563 -166 c 128,-1,3
 600 -149 600 -149 600 -135 c 2,4,-1
 601 530 l 1,5,6
 583 527 583 527 562 525.5 c 128,-1,7
 541 524 541 524 514 524 c 0,8,9
 416 524 416 524 330.5 548 c 128,-1,10
 245 572 245 572 181.5 619.5 c 128,-1,11
 118 667 118 667 81 738 c 128,-1,12
 44 809 44 809 44 903 c 0,13,14
 44 988 44 988 78.5 1059 c 128,-1,15
 113 1130 113 1130 175.5 1181.5 c 128,-1,16
 238 1233 238 1233 325 1261.5 c 128,-1,17
 412 1290 412 1290 518 1290 c 0,18,19
 540 1290 540 1290 573 1288.5 c 128,-1,20
 606 1287 606 1287 645.5 1285 c 128,-1,21
 685 1283 685 1283 728.5 1280.5 c 128,-1,22
 772 1278 772 1278 814 1275 c 0,23,24
 913 1268 913 1268 1023 1260 c 1,25,-1
 1093 1260 l 1,26,-1
 1093 1207 l 1,27,28
 1025 1193 1025 1193 987 1176 c 128,-1,29
 949 1159 949 1159 949 1145 c 2,30,-1
 949 -135 l 2,31,32
 949 -148 949 -148 984.5 -165.5 c 128,-1,33
 1020 -183 1020 -183 1093 -197 c 1,34,-1
 1093 -250 l 1,35,-1
 457 -250 l 1,0,-1
601 618 m 1,36,-1
 602 1192 l 1,37,38
 575 1194 575 1194 552 1195 c 128,-1,39
 529 1196 529 1196 512 1196 c 0,40,41
 456 1196 456 1196 407 1176.5 c 128,-1,42
 358 1157 358 1157 321.5 1122.5 c 128,-1,43
 285 1088 285 1088 264 1041 c 128,-1,44
 243 994 243 994 243 938 c 0,45,46
 243 884 243 884 261 827 c 128,-1,47
 279 770 279 770 317 723.5 c 128,-1,48
 355 677 355 677 414.5 647.5 c 128,-1,49
 474 618 474 618 557 618 c 2,50,-1
 601 618 l 1,36,-1
816 1155 m 1,51,-1
 776 1165 l 2,52,53
 756 1170 756 1170 736 1174 c 1,54,-1
 736 -135 l 2,55,56
 736 -146 736 -146 750.5 -154.5 c 128,-1,57
 765 -163 765 -163 775 -166 c 1,58,59
 787 -163 787 -163 801.5 -154.5 c 128,-1,60
 816 -146 816 -146 816 -135 c 2,61,-1
 816 1155 l 1,51,-1
EndSplineSet
EndChar

StartChar: germandbls
Encoding: 223 223 137
Width: 1201
GlyphClass: 2
Flags: W
AnchorPoint: "Anchor-4" 1201 900 basechar 0
AnchorPoint: "Anchor-3" 584 -100 basechar 0
AnchorPoint: "Anchor-2" 584 -100 basechar 0
AnchorPoint: "Anchor-1" 584 -100 basechar 0
AnchorPoint: "Anchor-0" 584 1690 basechar 0
LayerCount: 2
Fore
SplineSet
1123 283 m 0,0,1
 1123 223 1123 223 1102 166.5 c 128,-1,2
 1081 110 1081 110 1037.5 66.5 c 128,-1,3
 994 23 994 23 927 -3.5 c 128,-1,4
 860 -30 860 -30 767 -30 c 0,5,6
 735 -30 735 -30 692 -22.5 c 128,-1,7
 649 -15 649 -15 608.5 -3.5 c 128,-1,8
 568 8 568 8 537 21 c 128,-1,9
 506 34 506 34 499 46 c 0,10,11
 495 51 495 51 493 70 c 128,-1,12
 491 89 491 89 491 115.5 c 128,-1,13
 491 142 491 142 492 171.5 c 128,-1,14
 493 201 493 201 495.5 227.5 c 128,-1,15
 498 254 498 254 502 274 c 128,-1,16
 506 294 506 294 511 301 c 1,17,-1
 563 288 l 1,18,19
 572 233 572 233 596 193 c 128,-1,20
 620 153 620 153 653.5 127.5 c 128,-1,21
 687 102 687 102 726 90 c 128,-1,22
 765 78 765 78 803 78 c 0,23,24
 837 78 837 78 866.5 87.5 c 128,-1,25
 896 97 896 97 917.5 114.5 c 128,-1,26
 939 132 939 132 951 157.5 c 128,-1,27
 963 183 963 183 963 215 c 0,28,29
 963 282 963 282 929.5 327 c 128,-1,30
 896 372 896 372 845 405.5 c 128,-1,31
 794 439 794 439 735.5 467.5 c 128,-1,32
 677 496 677 496 626 531 c 128,-1,33
 575 566 575 566 541.5 612.5 c 128,-1,34
 508 659 508 659 508 729 c 0,35,36
 508 795 508 795 532.5 836 c 128,-1,37
 557 877 557 877 593.5 905 c 128,-1,38
 630 933 630 933 673 952 c 128,-1,39
 716 971 716 971 752.5 993 c 128,-1,40
 789 1015 789 1015 813.5 1044.5 c 128,-1,41
 838 1074 838 1074 838 1122 c 0,42,43
 838 1176 838 1176 823 1229 c 128,-1,44
 808 1282 808 1282 776.5 1324 c 128,-1,45
 745 1366 745 1366 697.5 1392 c 128,-1,46
 650 1418 650 1418 585 1418 c 0,47,48
 538 1418 538 1418 499 1401 c 128,-1,49
 460 1384 460 1384 431 1338.5 c 128,-1,50
 402 1293 402 1293 386 1214 c 128,-1,51
 370 1135 370 1135 370 1011 c 2,52,-1
 370 0 l 1,53,-1
 53 0 l 1,54,-1
 53 53 l 1,55,56
 121 65 121 65 155.5 82.5 c 128,-1,57
 190 100 190 100 190 112 c 2,58,-1
 190 956 l 2,59,60
 190 1076 190 1076 208.5 1158.5 c 128,-1,61
 227 1241 227 1241 257.5 1297 c 128,-1,62
 288 1353 288 1353 326 1390.5 c 128,-1,63
 364 1428 364 1428 403 1458 c 0,64,65
 459 1500 459 1500 529.5 1525 c 128,-1,66
 600 1550 600 1550 676 1550 c 0,67,68
 765 1550 765 1550 830 1515.5 c 128,-1,69
 895 1481 895 1481 937 1428 c 128,-1,70
 979 1375 979 1375 999.5 1311.5 c 128,-1,71
 1020 1248 1020 1248 1020 1190 c 0,72,73
 1020 1108 1020 1108 994.5 1056 c 128,-1,74
 969 1004 969 1004 931 971 c 128,-1,75
 893 938 893 938 848 917 c 128,-1,76
 803 896 803 896 765 877 c 128,-1,77
 727 858 727 858 701.5 834 c 128,-1,78
 676 810 676 810 676 770 c 0,79,80
 676 737 676 737 695 711.5 c 128,-1,81
 714 686 714 686 745.5 664.5 c 128,-1,82
 777 643 777 643 817.5 623.5 c 128,-1,83
 858 604 858 604 899.5 582 c 128,-1,84
 941 560 941 560 981.5 533.5 c 128,-1,85
 1022 507 1022 507 1053.5 472 c 128,-1,86
 1085 437 1085 437 1104 390.5 c 128,-1,87
 1123 344 1123 344 1123 283 c 0,0,1
EndSplineSet
EndChar

StartChar: registered
Encoding: 174 174 138
Width: 730
Flags: W
LayerCount: 2
Fore
SplineSet
701 1084 m 0,0,1
 701 1012 701 1012 676 948 c 128,-1,2
 651 884 651 884 606 836 c 128,-1,3
 561 788 561 788 499 760.5 c 128,-1,4
 437 733 437 733 364 733 c 0,5,6
 292 733 292 733 230.5 760.5 c 128,-1,7
 169 788 169 788 124.5 836 c 128,-1,8
 80 884 80 884 55 948 c 128,-1,9
 30 1012 30 1012 30 1084 c 0,10,11
 30 1157 30 1157 55 1221 c 128,-1,12
 80 1285 80 1285 124.5 1332.5 c 128,-1,13
 169 1380 169 1380 230.5 1407.5 c 128,-1,14
 292 1435 292 1435 364 1435 c 0,15,16
 437 1435 437 1435 499 1407.5 c 128,-1,17
 561 1380 561 1380 606 1332.5 c 128,-1,18
 651 1285 651 1285 676 1221 c 128,-1,19
 701 1157 701 1157 701 1084 c 0,0,1
637 1084 m 0,20,21
 637 1143 637 1143 616.5 1195.5 c 128,-1,22
 596 1248 596 1248 560 1287 c 128,-1,23
 524 1326 524 1326 474 1348.5 c 128,-1,24
 424 1371 424 1371 364 1371 c 0,25,26
 305 1371 305 1371 255.5 1348.5 c 128,-1,27
 206 1326 206 1326 170 1287 c 128,-1,28
 134 1248 134 1248 113.5 1195.5 c 128,-1,29
 93 1143 93 1143 93 1084 c 0,30,31
 93 1024 93 1024 113.5 972 c 128,-1,32
 134 920 134 920 170 881 c 128,-1,33
 206 842 206 842 255.5 819.5 c 128,-1,34
 305 797 305 797 364 797 c 0,35,36
 424 797 424 797 474 819.5 c 128,-1,37
 524 842 524 842 560 881 c 128,-1,38
 596 920 596 920 616.5 972 c 128,-1,39
 637 1024 637 1024 637 1084 c 0,20,21
212 886 m 1,40,-1
 212 906 l 1,41,42
 254 915 254 915 254 924 c 2,43,-1
 254 1249 l 1,44,45
 243 1248 243 1248 233 1247 c 128,-1,46
 223 1246 223 1246 212 1244 c 1,47,-1
 210 1275 l 1,48,49
 239 1282 239 1282 273 1287 c 128,-1,50
 307 1292 307 1292 349 1292 c 0,51,52
 428 1292 428 1292 466 1264.5 c 128,-1,53
 504 1237 504 1237 504 1196 c 0,54,55
 504 1149 504 1149 477 1119 c 128,-1,56
 450 1089 450 1089 405 1076 c 1,57,-1
 505 936 l 2,58,59
 512 925 512 925 522.5 921.5 c 128,-1,60
 533 918 533 918 555 920 c 1,61,-1
 557 899 l 1,62,63
 537 893 537 893 513 887 c 128,-1,64
 489 881 489 881 478 881 c 0,65,66
 469 881 469 881 460.5 886.5 c 128,-1,67
 452 892 452 892 448 898 c 2,68,-1
 348 1069 l 1,69,-1
 344 1069 l 2,70,71
 330 1069 330 1069 315 1072 c 1,72,-1
 315 924 l 2,73,74
 315 920 315 920 324 915.5 c 128,-1,75
 333 911 333 911 356 906 c 1,76,-1
 356 886 l 1,77,-1
 212 886 l 1,40,-1
338 1256 m 2,78,-1
 326 1256 l 2,79,80
 321 1256 321 1256 315 1255 c 1,81,-1
 315 1110 l 1,82,83
 322 1108 322 1108 327 1108 c 2,84,-1
 340 1108 l 2,85,86
 391 1108 391 1108 413.5 1128.5 c 128,-1,87
 436 1149 436 1149 436 1187 c 0,88,89
 436 1216 436 1216 414 1236 c 128,-1,90
 392 1256 392 1256 338 1256 c 2,78,-1
EndSplineSet
EndChar

StartChar: copyright
Encoding: 169 169 139
Width: 1472
Flags: W
LayerCount: 2
Fore
SplineSet
1035 383 m 1,0,1
 987 335 987 335 945 304 c 128,-1,2
 903 273 903 273 863.5 255 c 128,-1,3
 824 237 824 237 787 230 c 128,-1,4
 750 223 750 223 713 223 c 0,5,6
 647 223 647 223 583 250 c 128,-1,7
 519 277 519 277 469.5 327 c 128,-1,8
 420 377 420 377 389.5 449.5 c 128,-1,9
 359 522 359 522 359 614 c 0,10,11
 359 712 359 712 393 794 c 128,-1,12
 427 876 427 876 486 935 c 128,-1,13
 545 994 545 994 624.5 1027 c 128,-1,14
 704 1060 704 1060 795 1060 c 0,15,16
 867 1060 867 1060 927 1040 c 128,-1,17
 987 1020 987 1020 1022 993 c 1,18,19
 1025 988 1025 988 1018.5 969.5 c 128,-1,20
 1012 951 1012 951 1001 928.5 c 128,-1,21
 990 906 990 906 977.5 885.5 c 128,-1,22
 965 865 965 865 956 857 c 1,23,-1
 922 862 l 1,24,25
 907 883 907 883 889 902.5 c 128,-1,26
 871 922 871 922 849.5 937 c 128,-1,27
 828 952 828 952 801.5 961.5 c 128,-1,28
 775 971 775 971 743 971 c 0,29,30
 708 971 708 971 667.5 954.5 c 128,-1,31
 627 938 627 938 592.5 899.5 c 128,-1,32
 558 861 558 861 535.5 797.5 c 128,-1,33
 513 734 513 734 513 641 c 0,34,35
 513 565 513 565 540 506.5 c 128,-1,36
 567 448 567 448 608 408 c 128,-1,37
 649 368 649 368 697 347.5 c 128,-1,38
 745 327 745 327 788 327 c 0,39,40
 810 327 810 327 831.5 330.5 c 128,-1,41
 853 334 853 334 877.5 344.5 c 128,-1,42
 902 355 902 355 932 373 c 128,-1,43
 962 391 962 391 1002 420 c 1,44,45
 1005 419 1005 419 1009.5 413.5 c 128,-1,46
 1014 408 1014 408 1019 401.5 c 128,-1,47
 1024 395 1024 395 1028.5 389.5 c 128,-1,48
 1033 384 1033 384 1035 383 c 1,0,1
1280 643 m 0,49,50
 1280 761 1280 761 1239.5 865.5 c 128,-1,51
 1199 970 1199 970 1126.5 1048 c 128,-1,52
 1054 1126 1054 1126 954 1171 c 128,-1,53
 854 1216 854 1216 735 1216 c 0,54,55
 617 1216 617 1216 517.5 1171 c 128,-1,56
 418 1126 418 1126 345.5 1048 c 128,-1,57
 273 970 273 970 232.5 865.5 c 128,-1,58
 192 761 192 761 192 643 c 0,59,60
 192 524 192 524 232.5 419 c 128,-1,61
 273 314 273 314 345.5 236 c 128,-1,62
 418 158 418 158 517.5 113 c 128,-1,63
 617 68 617 68 735 68 c 0,64,65
 854 68 854 68 954 113 c 128,-1,66
 1054 158 1054 158 1126.5 236 c 128,-1,67
 1199 314 1199 314 1239.5 419 c 128,-1,68
 1280 524 1280 524 1280 643 c 0,49,50
1377 643 m 0,69,70
 1377 550 1377 550 1355 464 c 128,-1,71
 1333 378 1333 378 1293 303 c 128,-1,72
 1253 228 1253 228 1195.5 167 c 128,-1,73
 1138 106 1138 106 1066.5 62 c 128,-1,74
 995 18 995 18 911.5 -6 c 128,-1,75
 828 -30 828 -30 735 -30 c 256,76,77
 642 -30 642 -30 559 -6 c 128,-1,78
 476 18 476 18 405 62 c 128,-1,79
 334 106 334 106 276.5 167 c 128,-1,80
 219 228 219 228 178.5 303 c 128,-1,81
 138 378 138 378 116.5 464 c 128,-1,82
 95 550 95 550 95 643 c 0,83,84
 95 782 95 782 143 904 c 128,-1,85
 191 1026 191 1026 276.5 1117 c 128,-1,86
 362 1208 362 1208 479 1260.5 c 128,-1,87
 596 1313 596 1313 735 1313 c 256,88,89
 874 1313 874 1313 992 1260.5 c 128,-1,90
 1110 1208 1110 1208 1195.5 1117 c 128,-1,91
 1281 1026 1281 1026 1329 904 c 128,-1,92
 1377 782 1377 782 1377 643 c 0,69,70
EndSplineSet
EndChar

StartChar: trademark
Encoding: 8482 8482 140
Width: 1175
Flags: W
LayerCount: 2
Fore
SplineSet
172 807 m 1,0,-1
 172 835 l 1,1,2
 208 843 208 843 220 849.5 c 128,-1,3
 232 856 232 856 232 862 c 2,4,-1
 232 1215 l 1,5,-1
 125 1215 l 2,6,7
 119 1215 119 1215 113.5 1212.5 c 128,-1,8
 108 1210 108 1210 103 1202.5 c 128,-1,9
 98 1195 98 1195 92 1182 c 128,-1,10
 86 1169 86 1169 77 1148 c 1,11,-1
 54 1155 l 1,12,13
 54 1163 54 1163 55.5 1177.5 c 128,-1,14
 57 1192 57 1192 59.5 1208 c 128,-1,15
 62 1224 62 1224 64.5 1238 c 128,-1,16
 67 1252 67 1252 69 1260 c 1,17,-1
 476 1260 l 1,18,-1
 490 1250 l 1,19,20
 489 1241 489 1241 488 1227.5 c 128,-1,21
 487 1214 487 1214 485.5 1199 c 128,-1,22
 484 1184 484 1184 481.5 1170.5 c 128,-1,23
 479 1157 479 1157 476 1148 c 1,24,-1
 455 1148 l 1,25,26
 447 1180 447 1180 441.5 1197.5 c 128,-1,27
 436 1215 436 1215 419 1215 c 2,28,-1
 316 1215 l 1,29,-1
 316 862 l 2,30,31
 316 857 316 857 327.5 850 c 128,-1,32
 339 843 339 843 377 835 c 1,33,-1
 377 807 l 1,34,-1
 172 807 l 1,0,-1
1110 1232 m 1,35,36
 1100 1232 1100 1232 1087.5 1230 c 128,-1,37
 1075 1228 1075 1228 1062 1223 c 1,38,-1
 1066 858 l 2,39,40
 1066 853 1066 853 1078.5 846.5 c 128,-1,41
 1091 840 1091 840 1120 835 c 1,42,-1
 1120 807 l 1,43,-1
 931 807 l 1,44,-1
 931 835 l 1,45,46
 957 840 957 840 972.5 846.5 c 128,-1,47
 988 853 988 853 988 858 c 2,48,-1
 984 1153 l 1,49,-1
 820 807 l 1,50,-1
 787 807 l 1,51,-1
 621 1152 l 1,52,-1
 618 858 l 2,53,54
 618 853 618 853 630.5 846.5 c 128,-1,55
 643 840 643 840 671 835 c 1,56,-1
 671 807 l 1,57,-1
 510 807 l 1,58,-1
 510 835 l 1,59,60
 537 840 537 840 550 846.5 c 128,-1,61
 563 853 563 853 563 858 c 2,62,-1
 567 1222 l 1,63,64
 553 1228 553 1228 539 1230 c 128,-1,65
 525 1232 525 1232 514 1232 c 1,66,-1
 514 1260 l 1,67,-1
 639 1260 l 2,68,69
 647 1260 647 1260 651 1254.5 c 128,-1,70
 655 1249 655 1249 665 1229 c 2,71,-1
 815 924 l 1,72,-1
 961 1229 l 2,73,74
 971 1251 971 1251 975.5 1255.5 c 128,-1,75
 980 1260 980 1260 988 1260 c 2,76,-1
 1110 1260 l 1,77,-1
 1110 1232 l 1,35,36
EndSplineSet
EndChar

StartChar: acute
Encoding: 180 180 141
Width: 653
Flags: W
LayerCount: 2
Fore
SplineSet
279 1045 m 1,0,1
 261 1048 261 1048 242.5 1058.5 c 128,-1,2
 224 1069 224 1069 212 1078 c 1,3,-1
 439 1497 l 1,4,5
 451 1496 451 1496 475 1493 c 128,-1,6
 499 1490 499 1490 525.5 1485.5 c 128,-1,7
 552 1481 552 1481 576 1476.5 c 128,-1,8
 600 1472 600 1472 611 1469 c 1,9,-1
 637 1425 l 1,10,-1
 279 1045 l 1,0,1
EndSplineSet
EndChar

StartChar: dieresis
Encoding: 168 168 142
Width: 801
Flags: W
LayerCount: 2
Fore
SplineSet
716 1263 m 0,0,1
 716 1232 716 1232 706 1205 c 128,-1,2
 696 1178 696 1178 678.5 1157.5 c 128,-1,3
 661 1137 661 1137 637.5 1125 c 128,-1,4
 614 1113 614 1113 587 1113 c 0,5,6
 538 1113 538 1113 514.5 1140 c 128,-1,7
 491 1167 491 1167 491 1218 c 0,8,9
 491 1249 491 1249 501.5 1276 c 128,-1,10
 512 1303 512 1303 529.5 1323.5 c 128,-1,11
 547 1344 547 1344 570.5 1355.5 c 128,-1,12
 594 1367 594 1367 620 1367 c 0,13,14
 716 1367 716 1367 716 1263 c 0,0,1
309 1263 m 0,15,16
 309 1232 309 1232 299 1205 c 128,-1,17
 289 1178 289 1178 271.5 1157.5 c 128,-1,18
 254 1137 254 1137 230 1125 c 128,-1,19
 206 1113 206 1113 179 1113 c 0,20,21
 130 1113 130 1113 107 1140 c 128,-1,22
 84 1167 84 1167 84 1218 c 0,23,24
 84 1249 84 1249 94.5 1276 c 128,-1,25
 105 1303 105 1303 122.5 1323.5 c 128,-1,26
 140 1344 140 1344 163.5 1355.5 c 128,-1,27
 187 1367 187 1367 213 1367 c 0,28,29
 260 1367 260 1367 284.5 1341 c 128,-1,30
 309 1315 309 1315 309 1263 c 0,15,16
EndSplineSet
EndChar

StartChar: notequal
Encoding: 8800 8800 143
Width: 909
Flags: W
LayerCount: 2
Fore
SplineSet
667 771 m 1,0,-1
 824 771 l 1,1,-1
 851 744 l 1,2,3
 848 734 848 734 843.5 721 c 128,-1,4
 839 708 839 708 834 695.5 c 128,-1,5
 829 683 829 683 824.5 671 c 128,-1,6
 820 659 820 659 817 650 c 1,7,-1
 591 650 l 1,8,-1
 478 471 l 1,9,-1
 824 471 l 1,10,-1
 851 444 l 1,11,12
 846 423 846 423 834.5 395.5 c 128,-1,13
 823 368 823 368 817 350 c 1,14,-1
 401 350 l 1,15,-1
 275 150 l 1,16,17
 266 143 266 143 247.5 135.5 c 128,-1,18
 229 128 229 128 207.5 121.5 c 128,-1,19
 186 115 186 115 165.5 109 c 128,-1,20
 145 103 145 103 133 99 c 1,21,-1
 106 137 l 1,22,-1
 240 350 l 1,23,-1
 86 350 l 1,24,-1
 58 379 l 1,25,26
 63 399 63 399 74 425 c 128,-1,27
 85 451 85 451 94 471 c 1,28,-1
 316 471 l 1,29,-1
 428 650 l 1,30,-1
 86 650 l 1,31,-1
 58 677 l 1,32,33
 63 698 63 698 74 725 c 128,-1,34
 85 752 85 752 94 771 c 1,35,-1
 504 771 l 1,36,-1
 631 972 l 1,37,38
 659 989 659 989 700 1001 c 128,-1,39
 741 1013 741 1013 772 1021 c 1,40,-1
 803 986 l 1,41,-1
 667 771 l 1,0,-1
EndSplineSet
EndChar

StartChar: AE
Encoding: 198 198 144
Width: 1615
GlyphClass: 2
Flags: W
AnchorPoint: "Anchor-4" 1615 900 basechar 0
AnchorPoint: "Anchor-3" 867 -100 basechar 0
AnchorPoint: "Anchor-2" 867 -100 basechar 0
AnchorPoint: "Anchor-1" 867 -100 basechar 0
AnchorPoint: "Anchor-0" 939 1370 basechar 0
LayerCount: 2
Fore
SplineSet
769 1138 m 2,0,1
 769 1149 769 1149 760.5 1154 c 128,-1,2
 752 1159 752 1159 740 1157.5 c 128,-1,3
 728 1156 728 1156 715.5 1147 c 128,-1,4
 703 1138 703 1138 696 1121 c 2,5,-1
 542 735 l 1,6,-1
 769 735 l 1,7,-1
 769 1138 l 2,0,1
1560 264 m 1,8,9
 1555 221 1555 221 1549.5 180 c 128,-1,10
 1544 139 1544 139 1538 103.5 c 128,-1,11
 1532 68 1532 68 1527 41.5 c 128,-1,12
 1522 15 1522 15 1518 0 c 1,13,-1
 629 0 l 1,14,-1
 629 53 l 1,15,16
 697 67 697 67 733 83.5 c 128,-1,17
 769 100 769 100 769 114 c 2,18,-1
 769 642 l 1,19,-1
 505 642 l 1,20,-1
 293 121 l 1,21,22
 280 92 280 92 308.5 77 c 128,-1,23
 337 62 337 62 416 53 c 1,24,-1
 416 0 l 1,25,-1
 0 0 l 1,26,-1
 0 53 l 1,27,28
 66 64 66 64 103.5 78 c 128,-1,29
 141 92 141 92 154 121 c 1,30,-1
 559 1123 l 2,31,32
 566 1140 566 1140 557.5 1151.5 c 128,-1,33
 549 1163 549 1163 526 1172.5 c 128,-1,34
 503 1182 503 1182 466.5 1190 c 128,-1,35
 430 1198 430 1198 381 1207 c 1,36,-1
 381 1260 l 1,37,-1
 1461 1260 l 1,38,-1
 1493 1233 l 1,39,40
 1491 1207 1491 1207 1487.5 1173.5 c 128,-1,41
 1484 1140 1484 1140 1478.5 1105.5 c 128,-1,42
 1473 1071 1473 1071 1466 1040 c 128,-1,43
 1459 1009 1459 1009 1452 990 c 1,44,-1
 1397 990 l 1,45,46
 1392 1082 1392 1082 1373 1121 c 128,-1,47
 1354 1160 1354 1160 1315 1160 c 2,48,-1
 959 1160 l 1,49,-1
 959 735 l 1,50,-1
 1362 735 l 1,51,-1
 1391 705 l 1,52,53
 1382 691 1382 691 1370.5 674 c 128,-1,54
 1359 657 1359 657 1346.5 640.5 c 128,-1,55
 1334 624 1334 624 1321.5 609.5 c 128,-1,56
 1309 595 1309 595 1299 587 c 1,57,58
 1270 616 1270 616 1227 629 c 128,-1,59
 1184 642 1184 642 1125 642 c 2,60,-1
 959 642 l 1,61,-1
 959 164 l 2,62,63
 959 149 959 149 966.5 137.5 c 128,-1,64
 974 126 974 126 996.5 117.5 c 128,-1,65
 1019 109 1019 109 1059.5 104.5 c 128,-1,66
 1100 100 1100 100 1166 100 c 2,67,-1
 1284 100 l 2,68,69
 1330 100 1330 100 1362.5 107 c 128,-1,70
 1395 114 1395 114 1419.5 134 c 128,-1,71
 1444 154 1444 154 1464.5 190 c 128,-1,72
 1485 226 1485 226 1506 285 c 1,73,-1
 1560 264 l 1,8,9
EndSplineSet
EndChar

StartChar: Oslash
Encoding: 216 216 145
Width: 1244
GlyphClass: 2
Flags: W
AnchorPoint: "Anchor-4" 1244 900 basechar 0
AnchorPoint: "Anchor-3" 612 -100 basechar 0
AnchorPoint: "Anchor-2" 612 -100 basechar 0
AnchorPoint: "Anchor-1" 612 -100 basechar 0
AnchorPoint: "Anchor-0" 612 1370 basechar 0
LayerCount: 2
Fore
SplineSet
971 629 m 0,0,1
 971 711 971 711 954.5 789 c 128,-1,2
 938 867 938 867 906 935 c 1,3,-1
 393 212 l 1,4,5
 440 157 440 157 497 126 c 128,-1,6
 554 95 554 95 617 95 c 0,7,8
 694 95 694 95 759 129 c 128,-1,9
 824 163 824 163 871 230 c 128,-1,10
 918 297 918 297 944.5 397 c 128,-1,11
 971 497 971 497 971 629 c 0,0,1
253 641 m 0,12,13
 253 554 253 554 270.5 475 c 128,-1,14
 288 396 288 396 319 330 c 1,15,-1
 833 1053 l 1,16,17
 787 1107 787 1107 729.5 1138.5 c 128,-1,18
 672 1170 672 1170 604 1170 c 0,19,20
 521 1170 521 1170 455.5 1133 c 128,-1,21
 390 1096 390 1096 345 1027.5 c 128,-1,22
 300 959 300 959 276.5 861 c 128,-1,23
 253 763 253 763 253 641 c 0,12,13
1021 1097 m 1,24,25
 1089 1006 1089 1006 1123.5 889 c 128,-1,26
 1158 772 1158 772 1158 647 c 0,27,28
 1158 511 1158 511 1112 388.5 c 128,-1,29
 1066 266 1066 266 987 173 c 128,-1,30
 908 80 908 80 804 25 c 128,-1,31
 700 -30 700 -30 583 -30 c 0,32,33
 497 -30 497 -30 424.5 -4 c 128,-1,34
 352 22 352 22 293 70 c 1,35,-1
 242 -2 l 1,36,37
 233 -10 233 -10 214.5 -18 c 128,-1,38
 196 -26 196 -26 175 -32.5 c 128,-1,39
 154 -39 154 -39 133.5 -44.5 c 128,-1,40
 113 -50 113 -50 101 -53 c 1,41,-1
 72 -19 l 1,42,-1
 202 164 l 1,43,44
 135 254 135 254 100 369 c 128,-1,45
 65 484 65 484 65 612 c 0,46,47
 65 748 65 748 109 871 c 128,-1,48
 153 994 153 994 230.5 1087 c 128,-1,49
 308 1180 308 1180 413 1235 c 128,-1,50
 518 1290 518 1290 641 1290 c 0,51,52
 728 1290 728 1290 800 1264 c 128,-1,53
 872 1238 872 1238 930 1191 c 1,54,-1
 982 1264 l 1,55,56
 1010 1281 1010 1281 1049.5 1294 c 128,-1,57
 1089 1307 1089 1307 1120 1313 c 1,58,-1
 1150 1279 l 1,59,-1
 1021 1097 l 1,24,25
EndSplineSet
EndChar

StartChar: infinity
Encoding: 8734 8734 146
Width: 1365
Flags: W
LayerCount: 2
Fore
SplineSet
352 431 m 0,0,1
 382 431 382 431 406 435 c 128,-1,2
 430 439 430 439 456 452 c 128,-1,3
 482 465 482 465 513 488 c 128,-1,4
 544 511 544 511 587 550 c 1,5,6
 566 577 566 577 540.5 606 c 128,-1,7
 515 635 515 635 484 658 c 128,-1,8
 453 681 453 681 417.5 696 c 128,-1,9
 382 711 382 711 342 711 c 0,10,11
 299 711 299 711 272 697.5 c 128,-1,12
 245 684 245 684 230 664.5 c 128,-1,13
 215 645 215 645 209.5 622 c 128,-1,14
 204 599 204 599 204 580 c 0,15,16
 204 559 204 559 213.5 533 c 128,-1,17
 223 507 223 507 241.5 484.5 c 128,-1,18
 260 462 260 462 288 446.5 c 128,-1,19
 316 431 316 431 352 431 c 0,0,1
1013 724 m 0,20,21
 984 724 984 724 957.5 718 c 128,-1,22
 931 712 931 712 903.5 698 c 128,-1,23
 876 684 876 684 844.5 660.5 c 128,-1,24
 813 637 813 637 773 603 c 1,25,26
 794 576 794 576 820.5 548 c 128,-1,27
 847 520 847 520 878.5 497 c 128,-1,28
 910 474 910 474 946.5 459.5 c 128,-1,29
 983 445 983 445 1023 445 c 0,30,31
 1065 445 1065 445 1092 458.5 c 128,-1,32
 1119 472 1119 472 1134.5 491.5 c 128,-1,33
 1150 511 1150 511 1155.5 534 c 128,-1,34
 1161 557 1161 557 1161 576 c 0,35,36
 1161 597 1161 597 1151.5 622.5 c 128,-1,37
 1142 648 1142 648 1123.5 670.5 c 128,-1,38
 1105 693 1105 693 1077 708.5 c 128,-1,39
 1049 724 1049 724 1013 724 c 0,20,21
416 855 m 0,40,41
 467 855 467 855 511.5 839 c 128,-1,42
 556 823 556 823 594 797 c 128,-1,43
 632 771 632 771 663.5 739 c 128,-1,44
 695 707 695 707 721 674 c 1,45,46
 778 725 778 725 825 759.5 c 128,-1,47
 872 794 872 794 913 815 c 128,-1,48
 954 836 954 836 992.5 845.5 c 128,-1,49
 1031 855 1031 855 1070 855 c 0,50,51
 1112 855 1112 855 1152 837.5 c 128,-1,52
 1192 820 1192 820 1222.5 788.5 c 128,-1,53
 1253 757 1253 757 1271 714 c 128,-1,54
 1289 671 1289 671 1289 619 c 0,55,56
 1289 560 1289 560 1261 503 c 128,-1,57
 1233 446 1233 446 1186 401 c 128,-1,58
 1139 356 1139 356 1077 328 c 128,-1,59
 1015 300 1015 300 948 300 c 0,60,61
 897 300 897 300 852 316 c 128,-1,62
 807 332 807 332 768 358 c 128,-1,63
 729 384 729 384 696 416 c 128,-1,64
 663 448 663 448 637 481 c 1,65,66
 574 425 574 425 527.5 390 c 128,-1,67
 481 355 481 355 442.5 335 c 128,-1,68
 404 315 404 315 369 307.5 c 128,-1,69
 334 300 334 300 294 300 c 0,70,71
 252 300 252 300 212.5 317.5 c 128,-1,72
 173 335 173 335 142.5 366.5 c 128,-1,73
 112 398 112 398 93.5 441 c 128,-1,74
 75 484 75 484 75 536 c 0,75,76
 75 595 75 595 103 652 c 128,-1,77
 131 709 131 709 178 754 c 128,-1,78
 225 799 225 799 286.5 827 c 128,-1,79
 348 855 348 855 416 855 c 0,40,41
EndSplineSet
EndChar

StartChar: plusminus
Encoding: 177 177 147
Width: 840
Flags: W
LayerCount: 2
Fore
SplineSet
789 219 m 1,0,1
 786 208 786 208 781.5 195 c 128,-1,2
 777 182 777 182 772 169 c 128,-1,3
 767 156 767 156 762 144 c 128,-1,4
 757 132 757 132 753 124 c 1,5,-1
 86 124 l 1,6,-1
 58 150 l 1,7,8
 63 171 63 171 74 198 c 128,-1,9
 85 225 85 225 94 245 c 1,10,-1
 762 245 l 1,11,-1
 789 219 l 1,0,1
487 362 m 1,12,13
 467 352 467 352 439 343 c 128,-1,14
 411 334 411 334 389 329 c 1,15,-1
 362 353 l 1,16,-1
 362 632 l 1,17,-1
 86 632 l 1,18,-1
 58 658 l 1,19,20
 63 679 63 679 74 706 c 128,-1,21
 85 733 85 733 94 753 c 1,22,-1
 362 753 l 1,23,-1
 362 1025 l 1,24,25
 381 1031 381 1031 409.5 1041 c 128,-1,26
 438 1051 438 1051 460 1056 c 1,27,-1
 487 1030 l 1,28,-1
 487 753 l 1,29,-1
 762 753 l 1,30,-1
 789 726 l 1,31,32
 786 716 786 716 781.5 703 c 128,-1,33
 777 690 777 690 772 677 c 128,-1,34
 767 664 767 664 762 652 c 128,-1,35
 757 640 757 640 753 632 c 1,36,-1
 487 632 l 1,37,-1
 487 362 l 1,12,13
EndSplineSet
EndChar

StartChar: lessequal
Encoding: 8804 8804 148
Width: 909
Flags: W
LayerCount: 2
Fore
SplineSet
851 280 m 1,0,1
 846 259 846 259 834.5 232 c 128,-1,2
 823 205 823 205 817 186 c 1,3,-1
 86 186 l 1,4,-1
 58 215 l 1,5,6
 63 236 63 236 74 262 c 128,-1,7
 85 288 85 288 94 308 c 1,8,-1
 824 308 l 1,9,-1
 851 280 l 1,0,1
851 443 m 1,10,11
 829 423 829 423 810 405.5 c 128,-1,12
 791 388 791 388 760 369 c 1,13,-1
 86 617 l 1,14,15
 72 632 72 632 65.5 640.5 c 128,-1,16
 59 649 59 649 59 651 c 0,17,18
 64 675 64 675 72.5 702 c 128,-1,19
 81 729 81 729 92 753 c 1,20,-1
 824 1024 l 1,21,-1
 851 996 l 1,22,23
 848 985 848 985 844 970.5 c 128,-1,24
 840 956 840 956 835.5 940.5 c 128,-1,25
 831 925 831 925 827 910.5 c 128,-1,26
 823 896 823 896 820 887 c 1,27,-1
 274 686 l 1,28,-1
 832 482 l 1,29,-1
 851 443 l 1,10,11
EndSplineSet
EndChar

StartChar: greaterequal
Encoding: 8805 8805 149
Width: 909
Flags: W
LayerCount: 2
Fore
SplineSet
150 1024 m 1,0,-1
 825 775 l 1,1,-1
 851 746 l 1,2,3
 846 721 846 721 837.5 692 c 128,-1,4
 829 663 829 663 818 638 c 1,5,-1
 86 369 l 1,6,-1
 58 396 l 1,7,-1
 65 421 l 2,8,9
 70 436 70 436 74.5 451.5 c 128,-1,10
 79 467 79 467 83.5 481 c 128,-1,11
 88 495 88 495 91 504 c 1,12,-1
 634 705 l 1,13,-1
 78 909 l 1,14,-1
 58 950 l 1,15,-1
 150 1024 l 1,0,-1
851 280 m 1,16,17
 846 259 846 259 834.5 232 c 128,-1,18
 823 205 823 205 817 186 c 1,19,-1
 86 186 l 1,20,-1
 58 215 l 1,21,22
 63 236 63 236 74 262 c 128,-1,23
 85 288 85 288 94 308 c 1,24,-1
 824 308 l 1,25,-1
 851 280 l 1,16,17
EndSplineSet
EndChar

StartChar: yen
Encoding: 165 165 150
Width: 986
Flags: W
LayerCount: 2
Fore
SplineSet
234 0 m 1,0,-1
 234 53 l 1,1,2
 279 62 279 62 310 72 c 128,-1,3
 341 82 341 82 360 91.5 c 128,-1,4
 379 101 379 101 387 109.5 c 128,-1,5
 395 118 395 118 395 125 c 2,6,-1
 395 420 l 1,7,-1
 118 420 l 1,8,-1
 96 445 l 1,9,-1
 108 482 l 2,10,11
 116 505 116 505 122 521 c 1,12,-1
 395 521 l 1,13,-1
 395 563 l 1,14,15
 360 638 360 638 321.5 712 c 128,-1,16
 283 786 283 786 244 854.5 c 128,-1,17
 205 923 205 923 166.5 982 c 128,-1,18
 128 1041 128 1041 94 1085 c 0,19,20
 85 1096 85 1096 74 1106 c 128,-1,21
 63 1116 63 1116 45.5 1123 c 128,-1,22
 28 1130 28 1130 1 1134 c 128,-1,23
 -26 1138 -26 1138 -68 1138 c 1,24,-1
 -72 1191 l 1,25,26
 -43 1195 -43 1195 -10 1199 c 128,-1,27
 23 1203 23 1203 55 1206.5 c 128,-1,28
 87 1210 87 1210 115.5 1212 c 128,-1,29
 144 1214 144 1214 165 1214 c 0,30,31
 188 1214 188 1214 211 1203.5 c 128,-1,32
 234 1193 234 1193 250 1173 c 0,33,34
 287 1124 287 1124 321.5 1072.5 c 128,-1,35
 356 1021 356 1021 389 964.5 c 128,-1,36
 422 908 422 908 454.5 845 c 128,-1,37
 487 782 487 782 522 710 c 1,38,-1
 729 1085 l 2,39,40
 744 1111 744 1111 719.5 1126 c 128,-1,41
 695 1141 695 1141 618 1151 c 1,42,-1
 618 1204 l 1,43,-1
 1021 1204 l 1,44,-1
 1021 1151 l 1,45,46
 953 1138 953 1138 917.5 1124.5 c 128,-1,47
 882 1111 882 1111 868 1085 c 2,48,-1
 585 561 l 1,49,-1
 585 521 l 1,50,-1
 855 521 l 1,51,-1
 880 498 l 1,52,-1
 851 420 l 1,53,-1
 585 420 l 1,54,-1
 585 125 l 2,55,56
 585 119 585 119 593 110.5 c 128,-1,57
 601 102 601 102 620 92 c 128,-1,58
 639 82 639 82 670.5 72 c 128,-1,59
 702 62 702 62 749 53 c 1,60,-1
 749 0 l 1,61,-1
 234 0 l 1,0,-1
EndSplineSet
EndChar

StartChar: mu
Encoding: 181 181 151
Width: 1125
Flags: W
LayerCount: 2
Fore
SplineSet
1110 87 m 1,0,1
 1080 67 1080 67 1046 46.5 c 128,-1,2
 1012 26 1012 26 979 8.5 c 128,-1,3
 946 -9 946 -9 917 -20 c 128,-1,4
 888 -31 888 -31 868 -31 c 0,5,6
 845 -31 845 -31 828.5 -14.5 c 128,-1,7
 812 2 812 2 800.5 29.5 c 128,-1,8
 789 57 789 57 782.5 94 c 128,-1,9
 776 131 776 131 774 173 c 1,10,11
 694 70 694 70 623.5 19.5 c 128,-1,12
 553 -31 553 -31 493 -31 c 0,13,14
 440 -31 440 -31 383.5 7.5 c 128,-1,15
 327 46 327 46 281 115 c 1,16,-1
 281 106 l 1,17,18
 280 1 280 1 292.5 -82 c 128,-1,19
 305 -165 305 -165 326 -229.5 c 128,-1,20
 347 -294 347 -294 374 -341 c 128,-1,21
 401 -388 401 -388 429 -419 c 1,22,23
 414 -424 414 -424 385 -435 c 128,-1,24
 356 -446 356 -446 324 -458.5 c 128,-1,25
 292 -471 292 -471 264 -482.5 c 128,-1,26
 236 -494 236 -494 224 -500 c 1,27,-1
 183 -469 l 1,28,-1
 183 719 l 2,29,30
 183 758 183 758 181 780.5 c 128,-1,31
 179 803 179 803 167 815.5 c 128,-1,32
 155 828 155 828 129 833.5 c 128,-1,33
 103 839 103 839 56 844 c 1,34,-1
 56 894 l 1,35,36
 97 900 97 900 132.5 906 c 128,-1,37
 168 912 168 912 200 919.5 c 128,-1,38
 232 927 232 927 262 936.5 c 128,-1,39
 292 946 292 946 322 960 c 1,40,-1
 327 955 l 2,41,42
 332 950 332 950 338.5 943 c 128,-1,43
 345 936 345 936 352 928 c 128,-1,44
 359 920 359 920 363 915 c 1,45,-1
 363 371 l 2,46,47
 363 333 363 333 376.5 293 c 128,-1,48
 390 253 390 253 413.5 220 c 128,-1,49
 437 187 437 187 468.5 165.5 c 128,-1,50
 500 144 500 144 536 144 c 0,51,52
 560 144 560 144 585.5 148.5 c 128,-1,53
 611 153 611 153 640 169 c 128,-1,54
 669 185 669 185 702 214 c 128,-1,55
 735 243 735 243 773 293 c 1,56,-1
 773 748 l 2,57,58
 773 764 773 764 769.5 786.5 c 128,-1,59
 766 809 766 809 760.5 831 c 128,-1,60
 755 853 755 853 748.5 872 c 128,-1,61
 742 891 742 891 735 900 c 1,62,63
 783 911 783 911 837.5 927 c 128,-1,64
 892 943 892 943 938 960 c 1,65,-1
 969 919 l 1,66,67
 965 893 965 893 960 857.5 c 128,-1,68
 955 822 955 822 953 759 c 1,69,-1
 953 278 l 2,70,71
 953 185 953 185 962 149.5 c 128,-1,72
 971 114 971 114 992 114 c 0,73,74
 1014 114 1014 114 1038 121 c 128,-1,75
 1062 128 1062 128 1095 142 c 1,76,-1
 1110 87 l 1,0,1
EndSplineSet
EndChar

StartChar: partialdiff
Encoding: 8706 8706 152
Width: 1034
Flags: W
LayerCount: 2
Fore
SplineSet
770 586 m 1,0,1
 754 642 754 642 721.5 689 c 128,-1,2
 689 736 689 736 648.5 770.5 c 128,-1,3
 608 805 608 805 564 824 c 128,-1,4
 520 843 520 843 480 843 c 0,5,6
 424 843 424 843 382.5 815 c 128,-1,7
 341 787 341 787 313.5 737.5 c 128,-1,8
 286 688 286 688 272 620.5 c 128,-1,9
 258 553 258 553 258 473 c 0,10,11
 258 394 258 394 282 323.5 c 128,-1,12
 306 253 306 253 343.5 200 c 128,-1,13
 381 147 381 147 426.5 116 c 128,-1,14
 472 85 472 85 514 85 c 0,15,16
 571 85 571 85 618.5 119 c 128,-1,17
 666 153 666 153 699.5 216.5 c 128,-1,18
 733 280 733 280 751.5 371 c 128,-1,19
 770 462 770 462 770 575 c 2,20,-1
 770 586 l 1,0,1
959 722 m 256,21,22
 959 570 959 570 936 455.5 c 128,-1,23
 913 341 913 341 875.5 257.5 c 128,-1,24
 838 174 838 174 789.5 118.5 c 128,-1,25
 741 63 741 63 690.5 30 c 128,-1,26
 640 -3 640 -3 590.5 -16.5 c 128,-1,27
 541 -30 541 -30 501 -30 c 0,28,29
 402 -30 402 -30 323 6 c 128,-1,30
 244 42 244 42 189 105 c 128,-1,31
 134 168 134 168 104.5 255 c 128,-1,32
 75 342 75 342 75 444 c 0,33,34
 75 543 75 543 110.5 636.5 c 128,-1,35
 146 730 146 730 205.5 802 c 128,-1,36
 265 874 265 874 343 917.5 c 128,-1,37
 421 961 421 961 506 961 c 0,38,39
 535 961 535 961 571.5 948 c 128,-1,40
 608 935 608 935 644.5 913 c 128,-1,41
 681 891 681 891 714 862.5 c 128,-1,42
 747 834 747 834 770 804 c 1,43,44
 765 949 765 949 732.5 1047 c 128,-1,45
 700 1145 700 1145 652 1204 c 128,-1,46
 604 1263 604 1263 548.5 1288 c 128,-1,47
 493 1313 493 1313 443 1313 c 0,48,49
 410 1313 410 1313 380.5 1309 c 128,-1,50
 351 1305 351 1305 320.5 1293 c 128,-1,51
 290 1281 290 1281 255.5 1259.5 c 128,-1,52
 221 1238 221 1238 178 1204 c 1,53,-1
 130 1239 l 1,54,-1
 258 1398 l 1,55,56
 316 1421 316 1421 367.5 1434 c 128,-1,57
 419 1447 419 1447 470 1447 c 0,58,59
 525 1447 525 1447 583 1435.5 c 128,-1,60
 641 1424 641 1424 695.5 1394 c 128,-1,61
 750 1364 750 1364 798 1312.5 c 128,-1,62
 846 1261 846 1261 881.5 1180.5 c 128,-1,63
 917 1100 917 1100 938 987 c 128,-1,64
 959 874 959 874 959 722 c 256,21,22
EndSplineSet
EndChar

StartChar: pi
Encoding: 960 960 155
Width: 1088
GlyphClass: 2
Flags: W
AnchorPoint: "Anchor-4" 1088 900 basechar 0
AnchorPoint: "Anchor-3" 582 -100 basechar 0
AnchorPoint: "Anchor-2" 582 -100 basechar 0
AnchorPoint: "Anchor-1" 582 -100 basechar 0
AnchorPoint: "Anchor-0" 582 1050 basechar 0
LayerCount: 2
Fore
SplineSet
1059 110 m 1,0,1
 1006 68 1006 68 966 40.5 c 128,-1,2
 926 13 926 13 894.5 -2.5 c 128,-1,3
 863 -18 863 -18 838 -24.5 c 128,-1,4
 813 -31 813 -31 791 -31 c 0,5,6
 718 -31 718 -31 682.5 46.5 c 128,-1,7
 647 124 647 124 647 262 c 0,8,9
 647 326 647 326 656 446.5 c 128,-1,10
 665 567 665 567 685 759 c 1,11,12
 616 760 616 760 549.5 762 c 128,-1,13
 483 764 483 764 406 766 c 1,14,15
 397 655 397 655 392 536.5 c 128,-1,16
 387 418 387 418 387 305 c 0,17,18
 387 233 387 233 389.5 174 c 128,-1,19
 392 115 392 115 398 60 c 1,20,21
 384 51 384 51 352 38 c 128,-1,22
 320 25 320 25 282.5 11.5 c 128,-1,23
 245 -2 245 -2 208 -14 c 128,-1,24
 171 -26 171 -26 149 -32 c 1,25,26
 146 -29 146 -29 141 -22.5 c 128,-1,27
 136 -16 136 -16 131 -9 c 0,28,29
 125 -1 125 -1 118 7 c 1,30,31
 145 45 145 45 165.5 79 c 128,-1,32
 186 113 186 113 201.5 152.5 c 128,-1,33
 217 192 217 192 229 242.5 c 128,-1,34
 241 293 241 293 251.5 365 c 128,-1,35
 262 437 262 437 271.5 535.5 c 128,-1,36
 281 634 281 634 292 768 c 1,37,-1
 245 768 l 2,38,39
 213 768 213 768 188 765.5 c 128,-1,40
 163 763 163 763 139.5 756.5 c 128,-1,41
 116 750 116 750 92.5 737.5 c 128,-1,42
 69 725 69 725 41 705 c 1,43,-1
 11 749 l 1,44,45
 41 786 41 786 71 819 c 128,-1,46
 101 852 101 852 131 877 c 128,-1,47
 161 902 161 902 192.5 916 c 128,-1,48
 224 930 224 930 257 930 c 2,49,-1
 898 930 l 2,50,51
 940 930 940 930 976 934 c 128,-1,52
 1012 938 1012 938 1043 960 c 1,53,-1
 1076 924 l 1,54,55
 1022 849 1022 849 965.5 803 c 128,-1,56
 909 757 909 757 858 757 c 2,57,-1
 798 757 l 1,58,59
 790 678 790 678 787 601 c 128,-1,60
 784 524 784 524 784 457 c 0,61,62
 784 280 784 280 806 201.5 c 128,-1,63
 828 123 828 123 875 123 c 0,64,65
 890 123 890 123 904.5 124.5 c 128,-1,66
 919 126 919 126 937 130 c 128,-1,67
 955 134 955 134 978.5 142 c 128,-1,68
 1002 150 1002 150 1034 162 c 1,69,-1
 1059 110 l 1,0,1
EndSplineSet
EndChar

StartChar: integral
Encoding: 8747 8747 156
Width: 580
Flags: W
LayerCount: 2
Fore
SplineSet
767 1431 m 256,0,1
 767 1422 767 1422 751 1403 c 128,-1,2
 735 1384 735 1384 713 1363.5 c 128,-1,3
 691 1343 691 1343 667.5 1325 c 128,-1,4
 644 1307 644 1307 628 1300 c 1,5,6
 606 1334 606 1334 584.5 1357 c 128,-1,7
 563 1380 563 1380 543 1393 c 128,-1,8
 523 1406 523 1406 505.5 1411.5 c 128,-1,9
 488 1417 488 1417 474 1417 c 0,10,11
 446 1417 446 1417 424 1402.5 c 128,-1,12
 402 1388 402 1388 386.5 1352.5 c 128,-1,13
 371 1317 371 1317 363 1257 c 128,-1,14
 355 1197 355 1197 355 1106 c 0,15,16
 355 1044 355 1044 358.5 959.5 c 128,-1,17
 362 875 362 875 367.5 778.5 c 128,-1,18
 373 682 373 682 379.5 579.5 c 128,-1,19
 386 477 386 477 391.5 379 c 128,-1,20
 397 281 397 281 400.5 193 c 128,-1,21
 404 105 404 105 404 38 c 0,22,23
 404 -49 404 -49 384 -117 c 128,-1,24
 364 -185 364 -185 333.5 -238 c 128,-1,25
 303 -291 303 -291 265.5 -330.5 c 128,-1,26
 228 -370 228 -370 193 -398 c 0,27,28
 166 -420 166 -420 134.5 -438 c 128,-1,29
 103 -456 103 -456 72 -469.5 c 128,-1,30
 41 -483 41 -483 12.5 -490.5 c 128,-1,31
 -16 -498 -16 -498 -38 -498 c 0,32,33
 -73 -498 -73 -498 -106.5 -489.5 c 128,-1,34
 -140 -481 -140 -481 -166.5 -468.5 c 128,-1,35
 -193 -456 -193 -456 -209.5 -442.5 c 128,-1,36
 -226 -429 -226 -429 -226 -419 c 256,37,38
 -226 -409 -226 -409 -210 -390.5 c 128,-1,39
 -194 -372 -194 -372 -171.5 -352.5 c 128,-1,40
 -149 -333 -149 -333 -124.5 -315.5 c 128,-1,41
 -100 -298 -100 -298 -84 -290 c 1,42,43
 -52 -322 -52 -322 -11.5 -336 c 128,-1,44
 29 -350 29 -350 67 -350 c 0,45,46
 94 -350 94 -350 120.5 -334 c 128,-1,47
 147 -318 147 -318 168 -278 c 128,-1,48
 189 -238 189 -238 202 -169.5 c 128,-1,49
 215 -101 215 -101 215 3 c 0,50,51
 215 58 215 58 211.5 140.5 c 128,-1,52
 208 223 208 223 202.5 319.5 c 128,-1,53
 197 416 197 416 190.5 519 c 128,-1,54
 184 622 184 622 178.5 719.5 c 128,-1,55
 173 817 173 817 169.5 902 c 128,-1,56
 166 987 166 987 166 1046 c 0,57,58
 166 1129 166 1129 178 1191.5 c 128,-1,59
 190 1254 190 1254 212 1302 c 128,-1,60
 234 1350 234 1350 266 1387.5 c 128,-1,61
 298 1425 298 1425 338 1458 c 0,62,63
 393 1504 393 1504 451 1527 c 128,-1,64
 509 1550 509 1550 552 1550 c 0,65,66
 597 1550 597 1550 636.5 1535 c 128,-1,67
 676 1520 676 1520 705 1500 c 128,-1,68
 734 1480 734 1480 750.5 1460 c 128,-1,69
 767 1440 767 1440 767 1431 c 256,0,1
EndSplineSet
EndChar

